{
.appVersion = "3515";
.formatVersion = 3;
DisplayStrings = (
adqu,
"4"
);
axes = (
{
name = Weight;
tag = wght;
}
);
customParameters = (
{
name = "Use Typo Metrics";
value = 1;
},
{
name = fsType;
value = (
);
}
);
date = "2026-01-30 16:40:44 +0000";
familyName = Jacobins;
featurePrefixes = (
{
automatic = 1;
code = "languagesystem DFLT dflt;

languagesystem latn dflt;
languagesystem latn NLD;
";
name = Languagesystems;
}
);
features = (
{
automatic = 1;
code = "feature locl;
";
tag = aalt;
},
{
automatic = 1;
code = "lookup ccmp_DFLT_1 {
	@CombiningTopAccents = [acutecomb circumflexcomb dieresiscomb dotaccentcomb gravecomb ringcomb tildecomb];
	lookupflag UseMarkFilteringSet @CombiningTopAccents;
	sub i' @CombiningTopAccents by idotless;
	sub j' @CombiningTopAccents by jdotless;
} ccmp_DFLT_1;
";
tag = ccmp;
},
{
automatic = 1;
code = "script latn;
language NLD;
lookup locl_latn_0 {
	sub iacute j' by jacute;
	sub Iacute J' by Jacute;
} locl_latn_0;
";
tag = locl;
}
);
fontMaster = (
{
axesValues = (
400
);
customParameters = (
{
name = hheaAscender;
value = 990;
},
{
name = hheaDescender;
value = -230;
},
{
name = hheaLineGap;
value = 180;
},
{
name = typoAscender;
value = 990;
},
{
name = typoDescender;
value = -230;
},
{
name = typoLineGap;
value = 180;
},
{
name = winAscent;
value = 990;
},
{
name = winDescent;
value = 230;
},
{
name = unitizerUnit;
value = 19;
}
);
id = m002;
metricValues = (
{
over = 16;
pos = 700;
},
{
over = 16;
pos = 700;
},
{
over = 16;
pos = 500;
},
{
over = -16;
},
{
over = -16;
pos = -300;
},
{
}
);
name = Regular;
stemValues = (
80,
40
);
userData = {
GSOffsetHorizontal = 6;
GSOffsetVertical = 6;
};
},
{
axesValues = (
800
);
customParameters = (
{
name = hheaAscender;
value = 990;
},
{
name = hheaDescender;
value = -230;
},
{
name = hheaLineGap;
value = 180;
},
{
name = typoAscender;
value = 990;
},
{
name = typoDescender;
value = -230;
},
{
name = typoLineGap;
value = 180;
},
{
name = winAscent;
value = 990;
},
{

glyphs = (
{
glyphname = A;
kernLeft = A;
kernRight = A;
lastChange = "2026-02-08 08:43:49 +0000";
layers = (
{
anchors = (
{
name = bottom;
pos = (397,0);
},
{
name = ogonek;
pos = (715,10);
},
{
name = top;
pos = (397,740);
}
);
background = {
shapes = (
{
closed = 1;
nodes = (
(87,80,l),
(-20,80,l),
(-20,-1,l),
(72,2,o),
(190,2,o),
(282,-1,c),
(282,80,l),
(174,80,l),
(438,762,l),
(355,739,l)
);
},
{
closed = 1;
nodes = (
(534,2,o),
(693,2,o),
(794,-1,c),
(794,80,l),
(694,80,l),
(438,762,l),
(316,620,l),
(519,80,l),
(433,80,l),
(433,-1,l)
);
}
);
};
layerId = m01;
shapes = (
{
closed = 1;
nodes = (
(97,81,l),
(0,81,l),
(0,0,l),
(92,3,o),
(171,3,o),
(263,0,c),
(263,81,l),
(175,81,l),
(458,762,l),
(385,739,l)
);
},
{
closed = 1;
nodes = (
(572,3,o),
(733,3,o),
(834,0,c),
(834,81,l),
(734,81,l),
(458,762,l),
(346,630,l),
(559,81,l),
(471,81,l),
(471,0,l)
);
},
{
closed = 1;
nodes = (
(180,210,l),
(610,210,l),
(570,290,l),
(220,290,l)
);
}
);
width = 834;
},
{
anchors = (
{
name = bottom;
pos = (365,0);
},
{
name = ogonek;
pos = (664,10);
},
{
name = top;
pos = (365,700);
}
);
layerId = m002;
shapes = (
{
closed = 1;
nodes = (
(97,41,l),
(0,41,l),
(0,0,l),
(92,3,o),
(148,3,o),
(240,0,c),
(240,41,l),
(142,41,l),
(384,731,l),
(324,700,l)
);
},
{
closed = 1;
nodes = (
(563,3,o),
(638,3,o),
(739,0,c),
(739,41,l),
(639,41,l),
(384,731,l),
(320,664,l),
(548,41,l),
(462,41,l),
(462,0,l)
);
},
{
closed = 1;
nodes = (
(190,230,l),
(530,230,l),
(530,270,l),
(190,270,l)
);
}
);
width = 739;
}
);
unicode = 65;
},
{
color = 3;
glyphname = AE;
kernLeft = A;
kernRight = E;
lastChange = "2026-02-07 21:09:39 +0000";
layers = (
{
layerId = m01;
shapes = (
{
closed = 1;
nodes = (
(90,81,l),
(20,81,l),
(20,0,l),
(112,3,o),
(149,3,o),
(241,0,c),
(241,81,l),
(176,81,l),
(502,607,l),
(458,681,l)
);
},
{
closed = 1;
nodes = (
(216,230,l),
(596,230,l),
(603,310,l),
(273,310,l)
);
},
{
closed = 1;
nodes = (
(751,0,l),
(751,80,l),
(623,80,l),
(623,740,l),
(361,740,l),
(361,660,l),
(459,660,l),
(459,80,l),
(361,80,l),
(361,0,l)
);
},
{
closed = 1;
nodes = (
(879,252,l),
(877,332,o),
(877,412,o),
(879,492,c),
(779,492,l),
(779,392,l),
(581,392,l),
(581,352,l),
(779,352,l),
(779,252,l)
);
},
{
closed = 1;
nodes = (
(961,560,l),
(959,607,o),
(959,693,o),
(961,740,c),
(621,740,l),
(621,660,l),
(851,660,l),
(861,560,l)
);
},
{
closed = 1;
nodes = (
(871,80,l),
(621,80,l),
(621,0,l),
(981,0,l),
(979,60,o),
(979,120,o),
(981,180,c),
(881,180,l)
);
}
);
width = 1041;
},
{
layerId = m002;
shapes = (
{
closed = 1;
nodes = (
(90,41,l),
(20,41,l),
(20,0,l),
(112,3,o),
(109,3,o),
(201,0,c),
(201,41,l),
(136,41,l),
(462,607,l),
(458,681,l)
);
},
{
closed = 1;
nodes = (
(216,230,l),
(516,230,l),
(523,270,l),
(223,270,l)
);
},
{
closed = 1;
nodes = (
(671,0,l),
(671,40,l),
(543,40,l),
(543,700,l),
(361,700,l),
(361,660,l),
(459,660,l),
(459,40,l),
(361,40,l),
(361,0,l)
);
},
{
closed = 1;
nodes = (
(759,252,l),
(757,332,o),
(757,412,o),
(759,492,c),
(699,492,l),
(699,392,l),
(501,392,l),
(501,352,l),
(699,352,l),
(699,252,l)
);
},
{
closed = 1;
nodes = (
(841,560,l),
(839,607,o),
(839,653,o),
(841,700,c),
(541,700,l),
(541,660,l),
(771,660,l),
(781,560,l)
);
},
{
closed = 1;
nodes = (
(791,40,l),
(541,40,l),
(541,0,l),
(861,0,l),
(859,60,o),
(859,120,o),
(861,180,c),
(801,180,l)
);
}
);
width = 921;
}
);
unicode = 198;
},
{
glyphname = B;
kernLeft = H;
kernRight = B;
lastChange = "2026-02-07 20:18:56 +0000";
layers = (
{
anchors = (
{
name = bottom;
pos = (379,0);
},
{
name = center;
pos = (189,222);
},
{
name = top;
pos = (379,740);
}
);
background = {
shapes = (
{
closed = 1;
nodes = (
(290,0,l),
(290,40,l),
(202,40,l),
(202,700,l),
(20,700,l),
(20,660,l),
(118,660,l),
(118,40,l),
(20,40,l),
(20,0,l)
);
},
{
closed = 1;
nodes = (
(458,252,l),
(456,332,o),
(456,412,o),
(458,492,c),
(398,492,l),
(398,392,l),
(160,392,l),
(160,352,l),
(398,352,l),
(398,252,l)
);
},
{
closed = 1;
nodes = (
(540,560,l),
(538,607,o),
(538,653,o),
(540,700,c),
(200,700,l),
(200,660,l),
(470,660,l),
(480,560,l)
);
},
{
closed = 1;
nodes = (
(490,40,l),
(200,40,l),
(200,0,l),
(560,0,l),
(558,60,o),
(558,120,o),
(560,180,c),
(500,180,l)
);
},
{
closed = 1;
nodes = (
(310,0,l),
(310,40,l),
(202,40,l),
(202,660,l),
(270,660,l),
(270,700,l),
(200,700,l),
(20,700,l),
(20,660,l),
(118,660,l),
(118,40,l),
(20,40,l),
(20,0,l)
);
},
{
closed = 1;
nodes = (
(409,352,o),
(515,430,o),
(515,533,cs),
(515,634,o),
(413,700,o),
(270,700,c),
(270,660,l),
(358,660,o),
(421,611,o),
(421,534,cs),
(421,454,o),
(354,392,o),
(260,392,c),
(260,352,l)
);
},
{
closed = 1;
nodes = (
(453,0,o),
(555,84,o),
(555,196,cs),
(555,314,o),
(441,392,o),
(280,392,c),
(280,352,l),
(386,352,o),
(461,290,o),
(461,195,cs),
(461,108,o),
(398,40,o),
(310,40,c),
(310,0,l)
);
},
{
closed = 1;
nodes = (
(181,352,l),
(260,352,l),
(260,392,l),
(181,392,l)
);
},
{
closed = 1;
nodes = (
(390,40,l),
(390,80,l),
(282,80,l),
(282,700,l),
(350,700,l),
(350,740,l),
(280,740,l),
(100,740,l),
(100,700,l),
(198,700,l),
(198,80,l),
(100,80,l),
(100,40,l)
);
},
{
closed = 1;
nodes = (
(489,392,o),
(595,470,o),
(595,573,cs),
(595,674,o),
(493,740,o),
(350,740,c),
(350,700,l),
(438,700,o),
(501,651,o),
(501,574,cs),
(501,494,o),
(434,432,o),
(340,432,c),
(340,392,l)
);
},
{
closed = 1;
nodes = (
(533,40,o),
(635,124,o),
(635,236,cs),
(635,354,o),
(521,432,o),
(360,432,c),
(360,392,l),
(466,392,o),
(541,330,o),
(541,235,cs),
(541,148,o),
(478,80,o),
(390,80,c),
(390,40,l)
);
},
{
closed = 1;
nodes = (
(261,392,l),
(340,392,l),
(340,432,l),
(261,432,l)
);
}
);
};
layerId = m01;
shapes = (
{
closed = 1;
nodes = (
(430,0,l),
(430,80,l),
(282,80,l),
(282,660,l),
(390,660,l),
(390,740,l),
(280,740,l),
(20,740,l),
(20,660,l),
(118,660,l),
(118,80,l),
(20,80,l),
(20,0,l)
);
},
{
closed = 1;
nodes = (
(553,352,o),
(675,427,o),
(675,541,cs),
(675,654,o),
(557,740,o),
(390,740,c),
(390,660,l),
(455,660,o),
(501,608,o),
(501,542,cs),
(501,474,o),
(451,432,o),
(380,432,c),
(380,352,l)
);
},
{
closed = 1;
nodes = (
(597,0,o),
(715,81,o),
(715,204,cs),
(715,334,o),
(584,432,o),
(400,432,c),
(400,352,l),
(483,352,o),
(541,287,o),
(541,203,cs),
(541,128,o),
(495,80,o),
(430,80,c),
(430,0,l)
);
},
{
closed = 1;
nodes = (
(261,352,l),
(380,352,l),
(380,432,l),
(261,432,l)
);
}
);
width = 757;
},
{
anchors = (
{
name = bottom;
pos = (299,0);
},
{
name = center;
pos = (149,210);
},
{
name = top;
pos = (299,700);
}
);
background = {
shapes = (
{
closed = 1;
nodes = (
(290,0,l),
(290,40,l),
(202,40,l),
(202,700,l),
(20,700,l),
(20,660,l),
(118,660,l),
(118,40,l),
(20,40,l),
(20,0,l)
);
},
{
closed = 1;
nodes = (
(458,252,l),
(456,332,o),
(456,412,o),
(458,492,c),
(398,492,l),
(398,392,l),
(160,392,l),
(160,352,l),
(398,352,l),
(398,252,l)
);
},
{
closed = 1;
nodes = (
(540,560,l),
(538,607,o),
(538,653,o),
(540,700,c),
(200,700,l),
(200,660,l),
(470,660,l),
(480,560,l)
);
},
{
closed = 1;
nodes = (
(490,40,l),
(200,40,l),
(200,0,l),
(560,0,l),
(558,60,o),
(558,120,o),
(560,180,c),
(500,180,l)
);
}
);
};
layerId = m002;
shapes = (
{
closed = 1;
nodes = (
(310,0,l),
(310,40,l),
(202,40,l),
(202,660,l),
(270,660,l),
(270,700,l),
(200,700,l),
(20,700,l),
(20,660,l),
(118,660,l),
(118,40,l),
(20,40,l),
(20,0,l)
);
},
{
closed = 1;
nodes = (
(409,352,o),
(515,430,o),
(515,533,cs),
(515,634,o),
(413,700,o),
(270,700,c),
(270,660,l),
(358,660,o),
(421,611,o),
(421,534,cs),
(421,454,o),
(354,392,o),
(260,392,c),
(260,352,l)
);
},
{
closed = 1;
nodes = (
(453,0,o),
(555,84,o),
(555,196,cs),
(555,314,o),
(441,392,o),
(280,392,c),
(280,352,l),
(386,352,o),
(461,290,o),
(461,195,cs),
(461,108,o),
(398,40,o),
(310,40,c),
(310,0,l)
);
},
{
closed = 1;
nodes = (
(181,352,l),
(260,352,l),
(260,392,l),
(181,392,l)
);
}
);
width = 597;
}
);
unicode = 66;
},
{
glyphname = C;
kernLeft = O;
kernRight = C;
lastChange = "2026-02-07 20:46:58 +0000";
layers = (
{
anchors = (
{
name = bottom;
pos = (379,0);
},
{
name = top;
pos = (379,740);
}
);
background = {
shapes = (
{
closed = 1;
nodes = (
(480,-13,o),
(565,23,o),
(619,75,c),
(584,115,l),
(543,65,o),
(473,29,o),
(394,29,cs),
(241,29,o),
(138,162,o),
(138,351,cs),
(138,540,o),
(241,674,o),
(384,674,cs),
(477,674,o),
(540,617,o),
(540,536,cs),
(540,477,l),
(592,477,l),
(589,542,o),
(589,635,o),
(592,700,c),
(540,700,l),
(540,657,l),
(498,692,o),
(434,716,o),
(363,716,cs),
(186,716,o),
(44,565,o),
(44,352,cs),
(44,138,o),
(186,-13,o),
(384,-13,cs)
);
},
{
closed = 1;
nodes = (
(560,27,o),
(645,63,o),
(699,115,c),
(664,155,l),
(623,105,o),
(553,69,o),
(474,69,cs),
(321,69,o),
(218,202,o),
(218,391,cs),
(218,580,o),
(321,714,o),
(464,714,cs),
(557,714,o),
(620,657,o),
(620,576,cs),
(620,517,l),
(672,517,l),
(669,582,o),
(669,675,o),
(672,740,c),
(620,740,l),
(620,697,l),
(578,732,o),
(514,756,o),
(443,756,cs),
(266,756,o),
(124,605,o),
(124,392,cs),
(124,178,o),
(266,27,o),
(464,27,cs)
);
}
);
};
layerId = m01;
shapes = (
{
closed = 1;
nodes = (
(547,-13,o),
(653,32,o),
(719,95,c),
(664,155,l),
(623,105,o),
(544,69,o),
(467,69,cs),
(324,69,o),
(218,194,o),
(218,373,cs),
(218,548,o),
(320,674,o),
(461,674,cs),
(542,674,o),
(600,617,o),
(600,536,cs),
(600,477,l),
(692,477,l),
(688,554,o),
(688,663,o),
(692,740,c),
(600,740,l),
(600,697,l),
(561,732,o),
(489,756,o),
(424,756,cs),
(209,756,o),
(44,597,o),
(44,375,cs),
(44,147,o),
(218,-13,o),
(433,-13,cs)
);
}
);
width = 757;
},
{
anchors = (
{
name = bottom;
pos = (329,0);
},
{
name = top;
pos = (329,700);
}
);
layerId = m002;
shapes = (
{
closed = 1;
nodes = (
(480,-13,o),
(565,23,o),
(619,75,c),
(584,115,l),
(543,65,o),
(473,29,o),
(394,29,cs),
(241,29,o),
(138,162,o),
(138,351,cs),
(138,540,o),
(241,674,o),
(384,674,cs),
(477,674,o),
(540,617,o),
(540,536,cs),
(540,477,l),
(592,477,l),
(589,542,o),
(589,635,o),
(592,700,c),
(540,700,l),
(540,657,l),
(498,692,o),
(434,716,o),
(363,716,cs),
(186,716,o),
(44,565,o),
(44,352,cs),
(44,138,o),
(186,-13,o),
(384,-13,cs)
);
}
);
width = 657;
}
);
unicode = 67;
},
{
glyphname = D;
kernLeft = H;
kernRight = O;
lastChange = "2026-02-07 20:18:56 +0000";
layers = (
{
anchors = (
{
name = bottom;
pos = (420,0);
},
{
name = center;
pos = (210,370);
},
{
name = top;
pos = (420,740);
}
);
background = {
shapes = (
{
closed = 1;
nodes = (
(360,0,l),
(360,40,l),
(202,40,l),
(202,660,l),
(370,660,l),
(370,700,l),
(200,700,l),
(20,700,l),
(20,660,l),
(118,660,l),
(118,40,l),
(20,40,l),
(20,0,l)
);
},
{
closed = 1;
nodes = (
(533,0,o),
(655,146,o),
(655,353,cs),
(655,556,o),
(537,700,o),
(370,700,c),
(370,660,l),
(482,660,o),
(561,533,o),
(561,353,cs),
(561,170,o),
(478,40,o),
(360,40,c),
(360,0,l)
);
},
{
closed = 1;
nodes = (
(440,40,l),
(440,80,l),
(282,80,l),
(282,700,l),
(450,700,l),
(450,740,l),
(280,740,l),
(100,740,l),
(100,700,l),
(198,700,l),
(198,80,l),
(100,80,l),
(100,40,l)
);
},
{
closed = 1;
nodes = (
(613,40,o),
(735,186,o),
(735,393,cs),
(735,596,o),
(617,740,o),
(450,740,c),
(450,700,l),
(562,700,o),
(641,573,o),
(641,393,cs),
(641,210,o),
(558,80,o),
(440,80,c),
(440,40,l)
);
}
);
};
layerId = m01;
shapes = (
{
closed = 1;
nodes = (
(420,0,l),
(400,80,l),
(282,80,l),
(282,660,l),
(410,660,l),
(410,740,l),
(280,740,l),
(20,740,l),
(20,660,l),
(118,660,l),
(118,80,l),
(20,80,l),
(20,0,l)
);
},
{
closed = 1;
nodes = (
(638,0,o),
(775,147,o),
(775,382,cs),
(775,602,o),
(634,740,o),
(410,740,c),
(410,660,l),
(527,660,o),
(601,554,o),
(601,385,cs),
(601,198,o),
(523,80,o),
(400,80,c),
(420,0,l)
);
}
);
width = 840;
},
{
anchors = (
{
name = bottom;
pos = (360,0);
},
{
name = center;
pos = (180,350);
},
{
name = top;
pos = (360,700);
}
);
layerId = m002;
shapes = (
{
closed = 1;
nodes = (
(360,0,l),
(360,40,l),
(202,40,l),
(202,660,l),
(370,660,l),
(370,700,l),
(200,700,l),
(20,700,l),
(20,660,l),
(118,660,l),
(118,40,l),
(20,40,l),
(20,0,l)
);
},
{
closed = 1;
nodes = (
(533,0,o),
(655,146,o),
(655,353,cs),
(655,556,o),
(537,700,o),
(370,700,c),
(370,660,l),
(482,660,o),
(561,533,o),
(561,353,cs),
(561,170,o),
(478,40,o),
(360,40,c),
(360,0,l)
);
}
);
width = 720;
}
);
unicode = 68;
},
{
color = 3;
glyphname = Eth;
kernLeft = H;
kernRight = O;
lastChange = "2026-02-07 20:47:40 +0000";
layers = (
{
layerId = m01;
shapes = (
{
ref = D;
},
{
closed = 1;
nodes = (
(43,350,l),
(363,350,l),
(363,450,l),
(43,450,l)
);
}
);
width = 840;
},
{
layerId = m002;
shapes = (
{
ref = D;
},
{
closed = 1;
nodes = (
(43,350,l),
(283,350,l),
(283,410,l),
(43,410,l)
);
}
);
width = 720;
}
);
unicode = 208;
},
{
glyphname = E;
kernLeft = H;
kernRight = E;
lastChange = "2026-02-07 20:18:56 +0000";
layers = (
{
anchors = (
{
name = bottom;
pos = (370,0);
},
{
name = ogonek;
pos = (666,10);
},
{
name = top;
pos = (370,740);
},
{
name = topleft;
pos = (20,740);
}
);
background = {
shapes = (
{
closed = 1;
nodes = (
(290,0,l),
(290,40,l),
(202,40,l),
(202,700,l),
(20,700,l),
(20,660,l),
(118,660,l),
(118,40,l),
(20,40,l),
(20,0,l)
);
},
{
closed = 1;
nodes = (
(458,252,l),
(456,332,o),
(456,412,o),
(458,492,c),
(398,492,l),
(398,392,l),
(160,392,l),
(160,352,l),
(398,352,l),
(398,252,l)
);
},
{
closed = 1;
nodes = (
(540,560,l),
(538,607,o),
(538,653,o),
(540,700,c),
(200,700,l),
(200,660,l),
(470,660,l),
(480,560,l)
);
},
{
closed = 1;
nodes = (
(490,40,l),
(200,40,l),
(200,0,l),
(560,0,l),
(558,60,o),
(558,120,o),
(560,180,c),
(500,180,l)
);
},
{
closed = 1;
nodes = (
(370,40,l),
(370,80,l),
(282,80,l),
(282,740,l),
(100,740,l),
(100,700,l),
(198,700,l),
(198,80,l),
(100,80,l),
(100,40,l)
);
},
{
closed = 1;
nodes = (
(538,292,l),
(536,372,o),
(536,452,o),
(538,532,c),
(478,532,l),
(478,432,l),
(240,432,l),
(240,392,l),
(478,392,l),
(478,292,l)
);
},
{
closed = 1;
nodes = (
(620,600,l),
(618,647,o),
(618,693,o),
(620,740,c),
(280,740,l),
(280,700,l),
(550,700,l),
(560,600,l)
);
},
{
closed = 1;
nodes = (
(570,80,l),
(280,80,l),
(280,40,l),
(640,40,l),
(638,100,o),
(638,160,o),
(640,220,c),
(580,220,l)
);
}
);
};
layerId = m01;
shapes = (
{
closed = 1;
nodes = (
(370,0,l),
(370,80,l),
(282,80,l),
(282,740,l),
(20,740,l),
(20,660,l),
(118,660,l),
(118,80,l),
(20,80,l),
(20,0,l)
);
},
{
closed = 1;
nodes = (
(578,272,l),
(576,352,o),
(576,432,o),
(578,512,c),
(478,512,l),
(478,432,l),
(240,432,l),
(240,352,l),
(478,352,l),
(478,272,l)
);
},
{
closed = 1;
nodes = (
(660,560,l),
(658,607,o),
(658,653,o),
(660,740,c),
(280,740,l),
(280,660,l),
(550,660,l),
(560,560,l)
);
},
{
closed = 1;
nodes = (
(570,80,l),
(280,80,l),
(280,0,l),
(680,0,l),
(678,100,o),
(678,160,o),
(680,220,c),
(580,220,l)
);
}
);
width = 740;
},
{
anchors = (
{
name = bottom;
pos = (310,0);
},
{
name = ogonek;
pos = (558,10);
},
{
name = top;
pos = (310,700);
},
{
name = topleft;
pos = (20,700);
}
);
layerId = m002;
shapes = (
{
closed = 1;
nodes = (
(290,0,l),
(290,40,l),
(202,40,l),
(202,700,l),
(20,700,l),
(20,660,l),
(118,660,l),
(118,40,l),
(20,40,l),
(20,0,l)
);
},
{
closed = 1;
nodes = (
(458,252,l),
(456,332,o),
(456,412,o),
(458,492,c),
(398,492,l),
(398,392,l),
(160,392,l),
(160,352,l),
(398,352,l),
(398,252,l)
);
},
{
closed = 1;
nodes = (
(540,560,l),
(538,607,o),
(538,653,o),
(540,700,c),
(200,700,l),
(200,660,l),
(470,660,l),
(480,560,l)
);
},
{
closed = 1;
nodes = (
(490,40,l),
(200,40,l),
(200,0,l),
(560,0,l),
(558,60,o),
(558,120,o),
(560,180,c),
(500,180,l)
);
}
);
width = 620;
}
);
unicode = 69;
},
{
glyphname = F;
kernLeft = H;
kernRight = F;
lastChange = "2026-02-07 20:18:56 +0000";
layers = (
{
anchors = (
{
name = bottom;
pos = (340,0);
},
{
name = top;
pos = (340,740);
}
);
background = {
shapes = (
{
closed = 1;
nodes = (
(280,0,l),
(280,40,l),
(192,40,l),
(192,700,l),
(10,700,l),
(10,660,l),
(108,660,l),
(108,40,l),
(10,40,l),
(10,0,l)
);
},
{
closed = 1;
nodes = (
(448,252,l),
(446,332,o),
(446,412,o),
(448,492,c),
(388,492,l),
(388,392,l),
(150,392,l),
(150,352,l),
(388,352,l),
(388,252,l)
);
},
{
closed = 1;
nodes = (
(530,560,l),
(528,607,o),
(528,653,o),
(530,700,c),
(190,700,l),
(190,660,l),
(460,660,l),
(470,560,l)
);
},
{
closed = 1;
nodes = (
(360,40,l),
(360,80,l),
(272,80,l),
(272,740,l),
(90,740,l),
(90,700,l),
(188,700,l),
(188,80,l),
(90,80,l),
(90,40,l)
);
},
{
closed = 1;
nodes = (
(528,292,l),
(526,372,o),
(526,452,o),
(528,532,c),
(468,532,l),
(468,432,l),
(230,432,l),
(230,392,l),
(468,392,l),
(468,292,l)
);
},
{
closed = 1;
nodes = (
(610,600,l),
(608,647,o),
(608,693,o),
(610,740,c),
(270,740,l),
(270,700,l),
(540,700,l),
(550,600,l)
);
}
);
};
layerId = m01;
shapes = (
{
closed = 1;
nodes = (
(360,0,l),
(360,80,l),
(272,80,l),
(272,740,l),
(10,740,l),
(10,660,l),
(108,660,l),
(108,80,l),
(10,80,l),
(10,0,l)
);
},
{
closed = 1;
nodes = (
(568,252,l),
(566,332,o),
(566,412,o),
(568,492,c),
(468,492,l),
(468,412,l),
(230,412,l),
(230,332,l),
(468,332,l),
(468,252,l)
);
},
{
closed = 1;
nodes = (
(650,560,l),
(648,607,o),
(648,693,o),
(650,740,c),
(270,740,l),
(270,660,l),
(540,660,l),
(550,560,l)
);
}
);
width = 680;
},
{
anchors = (
{
name = bottom;
pos = (280,0);
},
{
name = top;
pos = (280,700);
}
);
layerId = m002;
shapes = (
{
closed = 1;
nodes = (
(280,0,l),
(280,40,l),
(192,40,l),
(192,700,l),
(10,700,l),
(10,660,l),
(108,660,l),
(108,40,l),
(10,40,l),
(10,0,l)
);
},
{
closed = 1;
nodes = (
(448,252,l),
(446,332,o),
(446,412,o),
(448,492,c),
(388,492,l),
(388,392,l),
(150,392,l),
(150,352,l),
(388,352,l),
(388,252,l)
);
},
{
closed = 1;
nodes = (
(530,560,l),
(528,607,o),
(528,653,o),
(530,700,c),
(190,700,l),
(190,660,l),
(460,660,l),
(470,560,l)
);
}
);
width = 560;
}
);
unicode = 70;
},
{
glyphname = G;
kernLeft = O;
kernRight = G;
lastChange = "2026-02-07 20:48:33 +0000";
layers = (
{
anchors = (
{
name = bottom;
pos = (430,0);
},
{
name = top;
pos = (430,740);
}
);
background = {
shapes = (
{
closed = 1;
nodes = (
(480,-13,o),
(560,19,o),
(619,75,c),
(564,115,l),
(520,61,o),
(458,29,o),
(387,29,cs),
(241,29,o),
(138,162,o),
(138,351,cs),
(138,540,o),
(241,674,o),
(387,674,cs),
(469,674,o),
(560,617,o),
(560,536,cs),
(560,477,l),
(602,477,l),
(599,542,o),
(599,635,o),
(602,700,c),
(560,700,l),
(560,657,l),
(516,693,o),
(445,716,o),
(387,716,cs),
(186,716,o),
(44,565,o),
(44,351,cs),
(44,138,o),
(186,-13,o),
(387,-13,cs)
);
},
{
closed = 1;
nodes = (
(495,-13,o),
(596,67,o),
(596,180,c),
(556,180,l),
(556,92,o),
(478,29,o),
(378,29,cs),
(233,29,o),
(138,162,o),
(138,347,cs),
(138,540,o),
(241,674,o),
(390,674,cs),
(488,674,o),
(560,617,o),
(560,536,cs),
(560,477,l),
(612,477,l),
(609,542,o),
(609,635,o),
(612,700,c),
(560,700,l),
(560,657,l),
(519,692,o),
(447,716,o),
(373,716,cs),
(186,716,o),
(44,564,o),
(44,345,cs),
(44,137,o),
(172,-13,o),
(359,-13,cs)
);
},
{
closed = 1;
nodes = (
(640,-1,l),
(638,106,o),
(638,213,o),
(640,320,c),
(558,317,o),
(442,317,o),
(360,320,c),
(360,278,l),
(556,278,l),
(556,-1,l)
);
},
{
closed = 1;
nodes = (
(575,27,o),
(676,107,o),
(676,220,c),
(636,220,l),
(636,132,o),
(558,69,o),
(458,69,cs),
(313,69,o),
(218,202,o),
(218,387,cs),
(218,580,o),
(321,714,o),
(470,714,cs),
(568,714,o),
(640,657,o),
(640,576,cs),
(640,517,l),
(692,517,l),
(689,582,o),
(689,675,o),
(692,740,c),
(640,740,l),
(640,697,l),
(599,732,o),
(527,756,o),
(453,756,cs),
(266,756,o),
(124,604,o),
(124,385,cs),
(124,177,o),
(252,27,o),
(439,27,cs)
);
},
{
closed = 1;
nodes = (
(720,39,l),
(718,146,o),
(718,253,o),
(720,360,c),
(638,357,o),
(522,357,o),
(440,360,c),
(440,318,l),
(636,318,l),
(636,39,l)
);
}
);
};
layerId = m01;
shapes = (
{
closed = 1;
nodes = (
(601,-13,o),
(716,84,o),
(716,220,c),
(636,220,l),
(636,132,o),
(562,69,o),
(462,69,cs),
(317,69,o),
(218,201,o),
(218,376,cs),
(218,555,o),
(322,674,o),
(469,674,cs),
(570,674,o),
(640,617,o),
(640,536,cs),
(640,477,l),
(752,477,l),
(748,554,o),
(748,663,o),
(752,740,c),
(640,740,l),
(640,697,l),
(600,732,o),
(522,756,o),
(435,756,cs),
(213,756,o),
(44,602,o),
(44,375,cs),
(44,152,o),
(208,-13,o),
(430,-13,cs)
);
},
{
closed = 1;
nodes = (
(800,-1,l),
(798,135,o),
(798,301,o),
(800,400,c),
(695,396,o),
(545,396,o),
(440,400,c),
(440,318,l),
(636,318,l),
(636,-1,l)
);
}
);
width = 860;
},
{
anchors = (
{
name = bottom;
pos = (350,0);
},
{
name = top;
pos = (350,700);
}
);
background = {
shapes = (
{
closed = 1;
nodes = (
(480,-13,o),
(560,19,o),
(619,75,c),
(564,115,l),
(520,61,o),
(458,29,o),
(387,29,cs),
(241,29,o),
(138,162,o),
(138,351,cs),
(138,540,o),
(241,674,o),
(387,674,cs),
(469,674,o),
(560,617,o),
(560,536,cs),
(560,477,l),
(602,477,l),
(599,542,o),
(599,635,o),
(602,700,c),
(560,700,l),
(560,657,l),
(516,693,o),
(445,716,o),
(387,716,cs),
(186,716,o),
(44,565,o),
(44,351,cs),
(44,138,o),
(186,-13,o),
(387,-13,cs)
);
}
);
};
layerId = m002;
shapes = (
{
closed = 1;
nodes = (
(495,-13,o),
(596,67,o),
(596,180,c),
(556,180,l),
(556,92,o),
(478,29,o),
(378,29,cs),
(233,29,o),
(138,162,o),
(138,347,cs),
(138,540,o),
(241,674,o),
(390,674,cs),
(488,674,o),
(560,617,o),
(560,536,cs),
(560,477,l),
(612,477,l),
(609,542,o),
(609,635,o),
(612,700,c),
(560,700,l),
(560,657,l),
(519,692,o),
(447,716,o),
(373,716,cs),
(186,716,o),
(44,564,o),
(44,345,cs),
(44,137,o),
(172,-13,o),
(359,-13,cs)
);
},
{
closed = 1;
nodes = (
(640,-1,l),
(638,106,o),
(638,233,o),
(640,340,c),
(558,337,o),
(442,337,o),
(360,340,c),
(360,298,l),
(556,298,l),
(556,-1,l)
);
}
);
width = 700;
}
);
unicode = 71;
},
{
glyphname = H;
kernLeft = H;
kernRight = H;
lastChange = "2026-02-07 20:18:56 +0000";
layers = (
{
anchors = (
{
name = bottom;
pos = (460,0);
},
{
name = center;
pos = (460,592);
},
{
name = top;
pos = (460,740);
},
{
name = topleft;
pos = (20,740);
}
);
background = {
shapes = (
{
closed = 1;
nodes = (
(290,0,l),
(290,40,l),
(202,40,l),
(202,660,l),
(300,660,l),
(300,700,l),
(200,700,l),
(20,700,l),
(20,660,l),
(118,660,l),
(118,40,l),
(20,40,l),
(20,0,l)
);
},
{
closed = 1;
nodes = (
(770,0,l),
(770,40,l),
(682,40,l),
(682,660,l),
(780,660,l),
(780,700,l),
(680,700,l),
(500,700,l),
(500,660,l),
(598,660,l),
(598,40,l),
(500,40,l),
(500,0,l)
);
},
{
closed = 1;
nodes = (
(160,350,l),
(670,350,l),
(670,390,l),
(160,390,l)
);
},
{
closed = 1;
nodes = (
(370,40,l),
(370,80,l),
(282,80,l),
(282,700,l),
(380,700,l),
(380,740,l),
(280,740,l),
(100,740,l),
(100,700,l),
(198,700,l),
(198,80,l),
(100,80,l),
(100,40,l)
);
},
{
closed = 1;
nodes = (
(850,40,l),
(850,80,l),
(762,80,l),
(762,700,l),
(860,700,l),
(860,740,l),
(760,740,l),
(580,740,l),
(580,700,l),
(678,700,l),
(678,80,l),
(580,80,l),
(580,40,l)
);
},
{
closed = 1;
nodes = (
(240,390,l),
(750,390,l),
(750,430,l),
(240,430,l)
);
}
);
};
layerId = m01;
shapes = (
{
closed = 1;
nodes = (
(370,0,l),
(370,80,l),
(282,80,l),
(282,660,l),
(380,660,l),
(380,740,l),
(280,740,l),
(20,740,l),
(20,660,l),
(118,660,l),
(118,80,l),
(20,80,l),
(20,0,l)
);
},
{
closed = 1;
nodes = (
(890,0,l),
(890,80,l),
(802,80,l),
(802,660,l),
(900,660,l),
(900,740,l),
(800,740,l),
(540,740,l),
(540,660,l),
(638,660,l),
(638,80,l),
(540,80,l),
(540,0,l)
);
},
{
closed = 1;
nodes = (
(160,350,l),
(790,350,l),
(790,430,l),
(160,430,l)
);
}
);
width = 920;
},
{
anchors = (
{
name = bottom;
pos = (400,0);
},
{
name = center;
pos = (400,560);
},
{
name = top;
pos = (400,700);
},
{
name = topleft;
pos = (20,700);
}
);
layerId = m002;
shapes = (
{
closed = 1;
nodes = (
(290,0,l),
(290,40,l),
(202,40,l),
(202,660,l),
(300,660,l),
(300,700,l),
(200,700,l),
(20,700,l),
(20,660,l),
(118,660,l),
(118,40,l),
(20,40,l),
(20,0,l)
);
},
{
closed = 1;
nodes = (
(770,0,l),
(770,40,l),
(682,40,l),
(682,660,l),
(780,660,l),
(780,700,l),
(680,700,l),
(500,700,l),
(500,660,l),
(598,660,l),
(598,40,l),
(500,40,l),
(500,0,l)
);
},
{
closed = 1;
nodes = (
(160,350,l),
(670,350,l),
(670,390,l),
(160,390,l)
);
}
);
width = 800;
}
);
unicode = 72;
},
{
glyphname = I;
kernLeft = H;
kernRight = H;
lastChange = "2026-02-07 20:18:56 +0000";
layers = (
{
anchors = (
{
name = bottom;
pos = (200,0);
},
{
name = ogonek;
pos = (360,10);
},
{
name = top;
pos = (200,740);
},
{
name = topleft;
pos = (20,740);
}
);
background = {
shapes = (
{
closed = 1;
nodes = (
(290,0,l),
(290,40,l),
(202,40,l),
(202,660,l),
(300,660,l),
(300,700,l),
(200,700,l),
(20,700,l),
(20,660,l),
(118,660,l),
(118,40,l),
(20,40,l),
(20,0,l)
);
},
{
closed = 1;
nodes = (
(370,40,l),
(370,80,l),
(282,80,l),
(282,700,l),
(380,700,l),
(380,740,l),
(280,740,l),
(100,740,l),
(100,700,l),
(198,700,l),
(198,80,l),
(100,80,l),
(100,40,l)
);
}
);
};
layerId = m01;
shapes = (
{
closed = 1;
nodes = (
(370,0,l),
(370,80,l),
(282,80,l),
(282,660,l),
(380,660,l),
(380,740,l),
(280,740,l),
(20,740,l),
(20,660,l),
(118,660,l),
(118,80,l),
(20,80,l),
(20,0,l)
);
}
);
width = 400;
},
{
anchors = (
{
name = bottom;
pos = (160,0);
},
{
name = ogonek;
pos = (288,10);
},
{
name = top;
pos = (160,700);
},
{
name = topleft;
pos = (20,700);
}
);
layerId = m002;
shapes = (
{
closed = 1;
nodes = (
(290,0,l),
(290,40,l),
(202,40,l),
(202,660,l),
(300,660,l),
(300,700,l),
(200,700,l),
(20,700,l),
(20,660,l),
(118,660,l),
(118,40,l),
(20,40,l),
(20,0,l)
);
}
);
width = 320;
}
);
unicode = 73;
},
{
glyphname = J;
kernLeft = J;
kernRight = J;
lastChange = "2026-02-07 20:18:56 +0000";
layers = (
{
anchors = (
{
name = bottom;
pos = (180,0);
},
{
name = top;
pos = (180,740);
}
);
background = {
shapes = (
{
closed = 1;
nodes = (
(118,-66,o),
(106,-176,o),
(30,-183,c),
(30,-216,l),
(153,-216,o),
(202,-93,o),
(202,80,cs),
(202,660,l),
(300,660,l),
(300,700,l),
(20,700,l),
(20,660,l),
(118,660,l),
(118,80,ls)
);
},
{
closed = 1;
nodes = (
(198,-26,o),
(186,-136,o),
(110,-143,c),
(110,-176,l),
(233,-176,o),
(282,-53,o),
(282,120,cs),
(282,700,l),
(380,700,l),
(380,740,l),
(100,740,l),
(100,700,l),
(198,700,l),
(198,120,ls)
);
}
);
};
layerId = m01;
shapes = (
{
closed = 1;
nodes = (
(118,-66,o),
(106,-176,o),
(30,-183,c),
(30,-256,l),
(153,-256,o),
(282,-93,o),
(282,80,cs),
(282,660,l),
(380,660,l),
(380,740,l),
(20,740,l),
(20,660,l),
(118,660,l),
(118,80,ls)
);
}
);
width = 360;
},
{
anchors = (
{
name = bottom;
pos = (140,0);
},
{
name = top;
pos = (140,700);
}
);
layerId = m002;
shapes = (
{
closed = 1;
nodes = (
(118,-66,o),
(106,-176,o),
(30,-183,c),
(30,-216,l),
(153,-216,o),
(202,-93,o),
(202,80,cs),
(202,660,l),
(300,660,l),
(300,700,l),
(20,700,l),
(20,660,l),
(118,660,l),
(118,80,ls)
);
}
);
width = 280;
}
);
unicode = 74;
},
{
glyphname = K;
kernLeft = H;
kernRight = K;
lastChange = "2026-02-08 09:00:54 +0000";
layers = (
{
anchors = (
{
name = bottom;
pos = (405,0);
},
{
name = top;
pos = (405,740);
}
);
background = {
shapes = (
{
closed = 1;
nodes = (
(290,0,l),
(290,40,l),
(202,40,l),
(202,660,l),
(300,660,l),
(300,700,l),
(200,700,l),
(20,700,l),
(20,660,l),
(118,660,l),
(118,40,l),
(20,40,l),
(20,0,l)
);
},
{
closed = 1;
nodes = (
(545,660,l),
(619,660,l),
(619,700,l),
(546,698,o),
(473,698,o),
(400,700,c),
(400,660,l),
(484,660,l),
(141,311,l),
(167,280,l)
);
},
{
closed = 1;
nodes = (
(503,2,o),
(577,2,o),
(650,0,c),
(650,40,l),
(603,40,l),
(280,403,l),
(222,342,l),
(489,40,l),
(430,40,l),
(430,0,l)
);
},
{
closed = 1;
nodes = (
(370,40,l),
(370,80,l),
(282,80,l),
(282,700,l),
(380,700,l),
(380,740,l),
(280,740,l),
(100,740,l),
(100,700,l),
(198,700,l),
(198,80,l),
(100,80,l),
(100,40,l)
);
},
{
closed = 1;
nodes = (
(625,700,l),
(699,700,l),
(699,740,l),
(626,738,o),
(553,738,o),
(480,740,c),
(480,700,l),
(564,700,l),
(221,351,l),
(247,320,l)
);
},
{
closed = 1;
nodes = (
(583,42,o),
(657,42,o),
(730,40,c),
(730,80,l),
(683,80,l),
(360,443,l),
(302,382,l),
(569,80,l),
(510,80,l),
(510,40,l)
);
}
);
};
layerId = m01;
shapes = (
{
closed = 1;
nodes = (
(360,0,l),
(360,80,l),
(282,80,l),
(282,660,l),
(360,660,l),
(360,740,l),
(280,740,l),
(20,740,l),
(20,660,l),
(118,660,l),
(118,80,l),
(20,80,l),
(20,0,l)
);
},
{
closed = 1;
nodes = (
(705,660,l),
(779,660,l),
(779,740,l),
(706,738,o),
(533,738,o),
(460,740,c),
(460,660,l),
(564,660,l),
(221,311,l),
(246,246,l)
);
},
{
closed = 1;
nodes = (
(553,2,o),
(747,2,o),
(820,0,c),
(820,80,l),
(758,80,l),
(405,443,l),
(302,342,l),
(539,80,l),
(480,80,l),
(480,0,l)
);
}
);
width = 810;
},
{
anchors = (
{
name = bottom;
pos = (325,0);
},
{
name = top;
pos = (325,700);
}
);
background = {
shapes = (
{
closed = 1;
nodes = (
(290,0,l),
(290,40,l),
(202,40,l),
(202,660,l),
(300,660,l),
(300,700,l),
(200,700,l),
(20,700,l),
(20,660,l),
(118,660,l),
(118,40,l),
(20,40,l),
(20,0,l)
);
},
{
closed = 1;
nodes = (
(545,660,l),
(619,660,l),
(619,700,l),
(546,698,o),
(473,698,o),
(400,700,c),
(400,660,l),
(484,660,l),
(224,410,l),
(250,379,l)
);
},
{
closed = 1;
nodes = (
(483,2,o),
(557,2,o),
(630,0,c),
(630,40,l),
(576,40,l),
(327,338,l),
(269,282,l),
(472,40,l),
(410,40,l),
(410,0,l)
);
}
);
};
layerId = m002;
shapes = (
{
closed = 1;
nodes = (
(270,0,l),
(270,40,l),
(202,40,l),
(202,660,l),
(280,660,l),
(280,700,l),
(200,700,l),
(20,700,l),
(20,660,l),
(118,660,l),
(118,40,l),
(20,40,l),
(20,0,l)
);
},
{
closed = 1;
nodes = (
(545,660,l),
(619,660,l),
(619,700,l),
(546,698,o),
(453,698,o),
(380,700,c),
(380,660,l),
(484,660,l),
(141,311,l),
(167,280,l)
);
},
{
closed = 1;
nodes = (
(483,2,o),
(567,2,o),
(640,0,c),
(640,40,l),
(586,40,l),
(280,423,l),
(222,362,l),
(484,40,l),
(410,40,l),
(410,0,l)
);
}
);
width = 650;
}
);
unicode = 75;
},
{
glyphname = L;
kernLeft = H;
kernRight = L;
lastChange = "2026-02-07 20:18:56 +0000";
layers = (
{
anchors = (
{
name = bottom;
pos = (332,0);
},
{
name = center;
pos = (332,370);
},
{
name = top;
pos = (332,740);
},
{
name = topright;
pos = (644,740);
}
);
background = {
shapes = (
{
closed = 1;
nodes = (
(290,0,l),
(290,40,l),
(202,40,l),
(202,660,l),
(302,660,l),
(302,700,l),
(20,700,l),
(20,660,l),
(118,660,l),
(118,40,l),
(20,40,l),
(20,0,l)
);
},
{
closed = 1;
nodes = (
(490,40,l),
(200,40,l),
(200,0,l),
(560,0,l),
(558,60,o),
(558,120,o),
(560,180,c),
(500,180,l)
);
},
{
closed = 1;
nodes = (
(370,40,l),
(370,80,l),
(282,80,l),
(282,700,l),
(382,700,l),
(382,740,l),
(100,740,l),
(100,700,l),
(198,700,l),
(198,80,l),
(100,80,l),
(100,40,l)
);
},
{
closed = 1;
nodes = (
(570,80,l),
(280,80,l),
(280,40,l),
(640,40,l),
(638,100,o),
(638,160,o),
(640,220,c),
(580,220,l)
);
}
);
};
layerId = m01;
shapes = (
{
closed = 1;
nodes = (
(370,0,l),
(370,80,l),
(282,80,l),
(282,660,l),
(382,660,l),
(382,740,l),
(20,740,l),
(20,660,l),
(118,660,l),
(118,80,l),
(20,80,l),
(20,0,l)
);
},
{
closed = 1;
nodes = (
(530,80,l),
(280,80,l),
(280,0,l),
(640,0,l),
(638,100,o),
(638,160,o),
(640,220,c),
(540,220,l)
);
}
);
width = 664;
},
{
anchors = (
{
name = bottom;
pos = (292,0);
},
{
name = center;
pos = (292,350);
},
{
name = top;
pos = (292,700);
},
{
name = topright;
pos = (564,700);
}
);
layerId = m002;
shapes = (
{
closed = 1;
nodes = (
(290,0,l),
(290,40,l),
(202,40,l),
(202,660,l),
(302,660,l),
(302,700,l),
(20,700,l),
(20,660,l),
(118,660,l),
(118,40,l),
(20,40,l),
(20,0,l)
);
},
{
closed = 1;
nodes = (
(490,40,l),
(200,40,l),
(200,0,l),
(560,0,l),
(558,60,o),
(558,120,o),
(560,180,c),
(500,180,l)
);
}
);
width = 584;
}
);
unicode = 76;
},
{
glyphname = M;
kernLeft = M;
kernRight = M;
lastChange = "2026-02-08 08:55:20 +0000";
layers = (
{
anchors = (
{
name = bottom;
pos = (567,0);
},
{
name = top;
pos = (578,740);
}
);
background = {
shapes = (
{
closed = 1;
nodes = (
(20,0,l),
(300,0,l),
(300,40,l),
(180,40,l),
(180,700,l),
(140,700,l),
(140,40,l),
(20,40,l)
);
},
{
closed = 1;
nodes = (
(544,62,l),
(213,701,l),
(20,701,l),
(20,661,l),
(139,661,l),
(500,-36,l)
);
},
{
closed = 1;
nodes = (
(842,660,l),
(995,660,l),
(995,700,l),
(817,700,l),
(491,34,l),
(500,-36,l)
);
},
{
closed = 1;
nodes = (
(697,0,l),
(1021,0,l),
(1021,40,l),
(901,40,l),
(901,700,l),
(817,700,l),
(817,40,l),
(697,40,l)
);
},
{
closed = 1;
nodes = (
(100,40,l),
(380,40,l),
(380,80,l),
(260,80,l),
(260,740,l),
(220,740,l),
(220,80,l),
(100,80,l)
);
},
{
closed = 1;
nodes = (
(624,102,l),
(293,741,l),
(100,741,l),
(100,701,l),
(219,701,l),
(580,4,l)
);
},
{
closed = 1;
nodes = (
(922,700,l),
(1075,700,l),
(1075,740,l),
(897,740,l),
(571,74,l),
(580,4,l)
);
},
{
closed = 1;
nodes = (
(777,40,l),
(1101,40,l),
(1101,80,l),
(981,80,l),
(981,740,l),
(897,740,l),
(897,80,l),
(777,80,l)
);
}
);
};
layerId = m01;
shapes = (
{
closed = 1;
nodes = (
(20,0,l),
(340,0,l),
(340,80,l),
(220,80,l),
(220,740,l),
(140,740,l),
(140,80,l),
(20,80,l)
);
},
{
closed = 1;
nodes = (
(592,116,l),
(279,741,l),
(20,741,l),
(20,661,l),
(139,661,l),
(480,-16,l)
);
},
{
closed = 1;
nodes = (
(908,660,l),
(1130,660,l),
(1130,740,l),
(857,740,l),
(480,-16,l),
(577,0,l)
);
},
{
closed = 1;
nodes = (
(737,0,l),
(1140,0,l),
(1140,80,l),
(1021,80,l),
(1021,740,l),
(857,740,l),
(857,80,l),
(737,80,l)
);
}
);
width = 1150;
},
{
anchors = (
{
name = bottom;
pos = (501,0);
},
{
name = top;
pos = (511,700);
}
);
layerId = m002;
shapes = (
{
closed = 1;
nodes = (
(20,0,l),
(300,0,l),
(300,40,l),
(180,40,l),
(180,700,l),
(140,700,l),
(140,40,l),
(20,40,l)
);
},
{
closed = 1;
nodes = (
(542,59,l),
(213,701,l),
(20,701,l),
(20,661,l),
(139,661,l),
(485,-16,l)
);
},
{
closed = 1;
nodes = (
(842,660,l),
(995,660,l),
(995,700,l),
(817,700,l),
(484,-15,l),
(535,0,l)
);
},
{
closed = 1;
nodes = (
(697,0,l),
(1021,0,l),
(1021,40,l),
(901,40,l),
(901,700,l),
(817,700,l),
(817,40,l),
(697,40,l)
);
}
);
width = 1021;
}
);
unicode = 77;
},
{
glyphname = N;
kernLeft = H;
kernRight = H;
lastChange = "2026-02-08 08:59:38 +0000";
layers = (
{
anchors = (
{
name = bottom;
pos = (440,0);
},
{
name = top;
pos = (440,740);
}
);
background = {
shapes = (
{
closed = 1;
nodes = (
(20,0,l),
(300,0,l),
(300,40,l),
(180,40,l),
(180,700,l),
(140,700,l),
(140,40,l),
(20,40,l)
);
},
{
closed = 1;
nodes = (
(680,100,l),
(212,701,l),
(20,701,l),
(20,661,l),
(136,661,l),
(680,-36,l)
);
},
{
closed = 1;
nodes = (
(640,660,l),
(640,50,l),
(680,-20,l),
(680,660,l),
(800,660,l),
(800,700,l),
(520,700,l),
(520,660,l)
);
},
{
closed = 1;
nodes = (
(100,40,l),
(380,40,l),
(380,80,l),
(260,80,l),
(260,740,l),
(220,740,l),
(220,80,l),
(100,80,l)
);
},
{
closed = 1;
nodes = (
(760,140,l),
(292,741,l),
(100,741,l),
(100,701,l),
(216,701,l),
(760,4,l)
);
},
{
closed = 1;
nodes = (
(720,700,l),
(720,90,l),
(760,20,l),
(760,700,l),
(880,700,l),
(880,740,l),
(600,740,l),
(600,700,l)
);
}
);
};
layerId = m01;
shapes = (
{
closed = 1;
nodes = (
(20,0,l),
(340,0,l),
(340,80,l),
(220,80,l),
(220,740,l),
(140,740,l),
(140,80,l),
(20,80,l)
);
},
{
closed = 1;
nodes = (
(734,160,l),
(282,741,l),
(20,741,l),
(20,661,l),
(136,661,l),
(672,-26,l)
);
},
{
closed = 1;
nodes = (
(672,660,l),
(672,-26,l),
(751,0,l),
(752,660,l),
(872,660,l),
(872,740,l),
(552,740,l),
(552,660,l)
);
}
);
width = 880;
},
{
anchors = (
{
name = bottom;
pos = (400,0);
},
{
name = top;
pos = (400,700);
}
);
layerId = m002;
shapes = (
{
closed = 1;
nodes = (
(20,0,l),
(300,0,l),
(300,40,l),
(180,40,l),
(180,700,l),
(140,700,l),
(140,40,l),
(20,40,l)
);
},
{
closed = 1;
nodes = (
(666,95,l),
(212,701,l),
(20,701,l),
(20,661,l),
(136,661,l),
(640,-15,l)
);
},
{
closed = 1;
nodes = (
(640,660,l),
(640,-15,l),
(680,0,l),
(680,660,l),
(800,660,l),
(800,700,l),
(520,700,l),
(520,660,l)
);
}
);
width = 800;
}
);
unicode = 78;
},
{
glyphname = O;
kernLeft = O;
kernRight = O;
lastChange = "2026-02-07 20:18:56 +0000";
layers = (
{
anchors = (
{
name = bottom;
pos = (447,0);
},
{
name = center;
pos = (447,370);
},
{
name = ogonek;
pos = (805,10);
},
{
name = top;
pos = (447,740);
},
{
name = topleft;
pos = (20,740);
},
{
name = topright;
pos = (874,740);
}
);
background = {
shapes = (
{
closed = 1;
nodes = (
(588,-13,o),
(730,140,o),
(730,353,cs),
(730,567,o),
(588,716,o),
(387,716,cs),
(186,716,o),
(44,567,o),
(44,353,cs),
(44,140,o),
(186,-13,o),
(387,-13,cs)
);
},
{
closed = 1;
nodes = (
(241,29,o),
(138,164,o),
(138,353,cs),
(138,542,o),
(241,674,o),
(387,674,cs),
(533,674,o),
(637,542,o),
(637,353,cs),
(637,164,o),
(533,29,o),
(387,29,cs)
);
},
{
closed = 1;
nodes = (
(668,27,o),
(810,180,o),
(810,393,cs),
(810,607,o),
(668,756,o),
(467,756,cs),
(266,756,o),
(124,607,o),
(124,393,cs),
(124,180,o),
(266,27,o),
(467,27,cs)
);
},
{
closed = 1;
nodes = (
(321,69,o),
(218,204,o),
(218,393,cs),
(218,582,o),
(321,714,o),
(467,714,cs),
(613,714,o),
(717,582,o),
(717,393,cs),
(717,204,o),
(613,69,o),
(467,69,cs)
);
}
);
};
layerId = m01;
shapes = (
{
closed = 1;
nodes = (
(683,-13,o),
(850,155,o),
(850,381,cs),
(850,606,o),
(683,756,o),
(453,756,cs),
(211,756,o),
(44,589,o),
(44,364,cs),
(44,139,o),
(211,-13,o),
(441,-13,cs)
);
},
{
closed = 1;
nodes = (
(314,69,o),
(220,203,o),
(220,381,cs),
(220,558,o),
(314,674,o),
(443,674,cs),
(582,674,o),
(677,541,o),
(677,364,cs),
(677,187,o),
(582,69,o),
(452,69,cs)
);
}
);
width = 894;
},
{
anchors = (
{
name = bottom;
pos = (387,0);
},
{
name = center;
pos = (387,350);
},
{
name = ogonek;
pos = (697,10);
},
{
name = top;
pos = (387,700);
},
{
name = topleft;
pos = (20,700);
},
{
name = topright;
pos = (754,700);
}
);
layerId = m002;
shapes = (
{
closed = 1;
nodes = (
(588,-13,o),
(730,140,o),
(730,353,cs),
(730,567,o),
(588,716,o),
(387,716,cs),
(186,716,o),
(44,567,o),
(44,353,cs),
(44,140,o),
(186,-13,o),
(387,-13,cs)
);
},
{
closed = 1;
nodes = (
(241,29,o),
(138,164,o),
(138,353,cs),
(138,542,o),
(241,674,o),
(387,674,cs),
(533,674,o),
(637,542,o),
(637,353,cs),
(637,164,o),
(533,29,o),
(387,29,cs)
);
}
);
width = 774;
}
);
unicode = 79;
},
{
color = 3;
glyphname = Oslash;
kernLeft = O;
kernRight = O;
lastChange = "2026-02-07 20:49:41 +0000";
layers = (
{
layerId = m01;
shapes = (
{
ref = O;
},
{
closed = 1;
nodes = (
(40,0,l),
(134,0,l),
(814,740,l),
(720,740,l)
);
}
);
width = 894;
},
{
layerId = m002;
shapes = (
{
ref = O;
},
{
closed = 1;
nodes = (
(40,0,l),
(94,0,l),
(734,700,l),
(680,700,l)
);
}
);
width = 774;
}
);
unicode = 216;
},
{
color = 3;
glyphname = OE;
kernLeft = O;
kernRight = E;
lastChange = "2026-02-07 21:08:23 +0000";
layers = (
{
layerId = m01;
shapes = (
{
closed = 1;
nodes = (
(621,-13,o),
(770,145,o),
(770,369,cs),
(770,596,o),
(621,756,o),
(411,756,cs),
(196,756,o),
(44,596,o),
(44,369,cs),
(44,145,o),
(196,-13,o),
(411,-13,cs)
);
},
{
closed = 1;
nodes = (
(305,69,o),
(218,193,o),
(218,369,cs),
(218,548,o),
(305,674,o),
(428,674,cs),
(550,674,o),
(637,548,o),
(637,369,cs),
(637,193,o),
(550,69,o),
(428,69,cs)
);
},
{
closed = 1;
nodes = (
(1168,0,l),
(1166,53,o),
(1166,127,o),
(1168,180,c),
(1068,180,l),
(1058,80,l),
(808,80,l),
(808,0,l)
);
},
{
closed = 1;
nodes = (
(898,0,l),
(898,80,l),
(810,80,l),
(810,740,l),
(646,740,l),
(646,0,l)
);
},
{
closed = 1;
nodes = (
(1066,252,l),
(1064,322,o),
(1064,422,o),
(1066,492,c),
(966,492,l),
(966,412,l),
(768,412,l),
(768,332,l),
(966,332,l),
(966,252,l)
);
},
{
closed = 1;
nodes = (
(1148,560,l),
(1146,613,o),
(1146,687,o),
(1148,740,c),
(808,740,l),
(808,660,l),
(1038,660,l),
(1048,560,l)
);
}
);
width = 1223;
},
{
layerId = m002;
shapes = (
{
closed = 1;
nodes = (
(524,-13,o),
(610,139,o),
(610,353,cs),
(610,566,o),
(524,716,o),
(347,716,cs),
(170,716,o),
(44,566,o),
(44,353,cs),
(44,139,o),
(170,-13,o),
(347,-13,cs)
);
},
{
closed = 1;
nodes = (
(225,29,o),
(138,163,o),
(138,353,cs),
(138,541,o),
(225,674,o),
(347,674,cs),
(470,674,o),
(557,541,o),
(557,353,cs),
(557,163,o),
(470,29,o),
(347,29,cs)
);
},
{
closed = 1;
nodes = (
(968,0,l),
(966,60,o),
(966,120,o),
(968,180,c),
(908,180,l),
(898,40,l),
(648,40,l),
(648,0,l)
);
},
{
closed = 1;
nodes = (
(738,0,l),
(738,40,l),
(650,40,l),
(650,700,l),
(566,700,l),
(566,0,l)
);
},
{
closed = 1;
nodes = (
(866,252,l),
(864,332,o),
(864,412,o),
(866,492,c),
(806,492,l),
(806,392,l),
(608,392,l),
(608,352,l),
(806,352,l),
(806,252,l)
);
},
{
closed = 1;
nodes = (
(948,560,l),
(946,607,o),
(946,653,o),
(948,700,c),
(648,700,l),
(648,660,l),
(878,660,l),
(888,560,l)
);
}
);
width = 1028;
}
);
unicode = 338;
},
{
glyphname = P;
kernLeft = H;
kernRight = P;
lastChange = "2026-02-07 20:18:56 +0000";
layers = (
{
anchors = (
{
name = bottom;
pos = (370,0);
},
{
name = top;
pos = (370,740);
}
);
background = {
shapes = (
{
closed = 1;
nodes = (
(290,0,l),
(290,40,l),
(202,40,l),
(202,700,l),
(20,700,l),
(20,650,l),
(118,650,l),
(118,40,l),
(20,40,l),
(20,0,l)
);
},
{
closed = 1;
nodes = (
(231,310,o),
(295,310,o),
(320,310,cs),
(444,310,o),
(532,393,o),
(532,510,cs),
(532,621,o),
(444,700,o),
(320,700,cs),
(190,700,l),
(190,663,l),
(233,663,o),
(288,663,o),
(320,663,cs),
(391,663,o),
(442,600,o),
(442,510,cs),
(442,415,o),
(391,348,o),
(320,348,cs),
(186,348,l),
(186,310,l)
);
},
{
closed = 1;
nodes = (
(370,40,l),
(370,80,l),
(282,80,l),
(282,740,l),
(100,740,l),
(100,690,l),
(198,690,l),
(198,80,l),
(100,80,l),
(100,40,l)
);
},
{
closed = 1;
nodes = (
(311,350,o),
(375,350,o),
(400,350,cs),
(524,350,o),
(612,433,o),
(612,550,cs),
(612,661,o),
(524,740,o),
(400,740,cs),
(270,740,l),
(270,703,l),
(313,703,o),
(368,703,o),
(400,703,cs),
(471,703,o),
(522,640,o),
(522,550,cs),
(522,455,o),
(471,388,o),
(400,388,cs),
(266,388,l),
(266,350,l)
);
}
);
};
layerId = m01;
shapes = (
{
closed = 1;
nodes = (
(370,0,l),
(370,80,l),
(282,80,l),
(282,740,l),
(20,740,l),
(20,650,l),
(118,650,l),
(118,80,l),
(20,80,l),
(20,0,l)
);
},
{
closed = 1;
nodes = (
(311,310,o),
(375,310,o),
(400,310,cs),
(579,310,o),
(692,387,o),
(692,510,cs),
(692,651,o),
(579,740,o),
(400,740,cs),
(270,740,l),
(270,663,l),
(313,663,o),
(368,663,o),
(400,663,cs),
(475,663,o),
(522,604,o),
(522,510,cs),
(522,435,o),
(475,388,o),
(400,388,cs),
(266,388,l),
(266,310,l)
);
}
);
width = 740;
},
{
anchors = (
{
name = bottom;
pos = (290,0);
},
{
name = top;
pos = (290,700);
}
);
layerId = m002;
shapes = (
{
closed = 1;
nodes = (
(290,0,l),
(290,40,l),
(202,40,l),
(202,700,l),
(20,700,l),
(20,650,l),
(118,650,l),
(118,40,l),
(20,40,l),
(20,0,l)
);
},
{
closed = 1;
nodes = (
(231,310,o),
(295,310,o),
(320,310,cs),
(444,310,o),
(532,393,o),
(532,510,cs),
(532,621,o),
(444,700,o),
(320,700,cs),
(190,700,l),
(190,663,l),
(233,663,o),
(288,663,o),
(320,663,cs),
(391,663,o),
(442,600,o),
(442,510,cs),
(442,415,o),
(391,348,o),
(320,348,cs),
(186,348,l),
(186,310,l)
);
}
);
width = 580;
}
);
unicode = 80;
},
{
color = 3;
glyphname = Thorn;
kernLeft = H;
kernRight = Thorn;
lastChange = "2026-02-07 21:07:06 +0000";
layers = (
{
layerId = m01;
shapes = (
{
closed = 1;
nodes = (
(370,0,l),
(370,80,l),
(282,80,l),
(282,740,l),
(20,740,l),
(20,650,l),
(118,650,l),
(118,80,l),
(20,80,l),
(20,0,l)
);
},
{
closed = 1;
nodes = (
(311,190,o),
(375,190,o),
(400,190,cs),
(565,190,o),
(682,281,o),
(682,410,cs),
(682,533,o),
(565,620,o),
(400,620,cs),
(270,620,l),
(270,543,l),
(313,543,o),
(368,543,o),
(400,543,cs),
(471,543,o),
(522,488,o),
(522,410,cs),
(522,327,o),
(471,268,o),
(400,268,cs),
(266,268,l),
(266,190,l)
);
}
);
width = 726;
},
{
layerId = m002;
shapes = (
{
closed = 1;
nodes = (
(290,0,l),
(290,40,l),
(202,40,l),
(202,700,l),
(20,700,l),
(20,650,l),
(118,650,l),
(118,40,l),
(20,40,l),
(20,0,l)
);
},
{
closed = 1;
nodes = (
(231,190,o),
(295,190,o),
(320,190,cs),
(444,190,o),
(532,273,o),
(532,390,cs),
(532,501,o),
(444,580,o),
(320,580,cs),
(190,580,l),
(190,543,l),
(233,543,o),
(288,543,o),
(320,543,cs),
(391,543,o),
(442,480,o),
(442,390,cs),
(442,295,o),
(391,228,o),
(320,228,cs),
(186,228,l),
(186,190,l)
);
}
);
width = 580;
}
);
unicode = 222;
},
{
glyphname = Q;
kernLeft = O;
kernRight = Q;
lastChange = "2026-02-07 20:18:56 +0000";
layers = (
{
anchors = (
{
name = bottom;
pos = (447,0);
},
{
name = top;
pos = (447,740);
}
);
background = {
shapes = (
{
closed = 1;
nodes = (
(337,-107,o),
(447,-197,o),
(602,-197,cs),
(673,-197,o),
(757,-178,o),
(806,-152,c),
(792,-114,l),
(755,-136,o),
(686,-152,o),
(627,-152,cs),
(506,-152,o),
(421,-81,o),
(421,20,c),
(337,20,l)
);
},
{
closed = 1;
nodes = (
(417,-67,o),
(527,-157,o),
(682,-157,cs),
(753,-157,o),
(837,-138,o),
(886,-112,c),
(872,-74,l),
(835,-96,o),
(766,-112,o),
(707,-112,cs),
(586,-112,o),
(501,-41,o),
(501,60,c),
(417,60,l)
);
}
);
};
layerId = m01;
shapes = (
{
closed = 1;
nodes = (
(683,-13,o),
(850,155,o),
(850,393,cs),
(850,606,o),
(683,756,o),
(447,756,cs),
(211,756,o),
(44,589,o),
(44,353,cs),
(44,139,o),
(211,-13,o),
(447,-13,cs)
);
},
{
closed = 1;
nodes = (
(313,69,o),
(218,203,o),
(218,393,cs),
(218,558,o),
(313,674,o),
(447,674,cs),
(582,674,o),
(677,541,o),
(677,353,cs),
(677,187,o),
(582,69,o),
(447,69,cs)
);
},
{
closed = 1;
nodes = (
(337,-107,o),
(447,-197,o),
(602,-197,cs),
(690,-197,o),
(809,-167,o),
(890,-124,c),
(872,-74,l),
(835,-96,o),
(766,-112,o),
(707,-112,cs),
(586,-112,o),
(501,-41,o),
(501,60,c),
(337,20,l)
);
}
);
width = 894;
},
{
anchors = (
{
name = bottom;
pos = (387,0);
},
{
name = top;
pos = (387,700);
}
);
layerId = m002;
shapes = (
{
closed = 1;
nodes = (
(588,-13,o),
(730,138,o),
(730,351,cs),
(730,565,o),
(588,716,o),
(387,716,cs),
(186,716,o),
(44,565,o),
(44,351,cs),
(44,138,o),
(186,-13,o),
(387,-13,cs)
);
},
{
closed = 1;
nodes = (
(241,29,o),
(138,162,o),
(138,351,cs),
(138,540,o),
(241,674,o),
(387,674,cs),
(533,674,o),
(637,540,o),
(637,351,cs),
(637,162,o),
(533,29,o),
(387,29,cs)
);
},
{
closed = 1;
nodes = (
(337,-107,o),
(447,-197,o),
(602,-197,cs),
(673,-197,o),
(757,-178,o),
(806,-152,c),
(792,-114,l),
(755,-136,o),
(686,-152,o),
(627,-152,cs),
(506,-152,o),
(421,-81,o),
(421,20,c),
(337,20,l)
);
}
);
width = 774;
}
);
unicode = 81;
},
{
glyphname = R;
kernLeft = H;
kernRight = R;
lastChange = "2026-02-08 08:57:26 +0000";
layers = (
{
anchors = (
{
name = bottom;
pos = (400,0);
},
{
name = top;
pos = (400,740);
}
);
background = {
shapes = (
{
closed = 1;
nodes = (
(573,2,o),
(737,2,o),
(810,0,c),
(810,80,l),
(763,80,l),
(440,403,l),
(302,342,l),
(569,80,l),
(500,80,l),
(500,0,l)
);
}
);
};
layerId = m01;
shapes = (
{
closed = 1;
nodes = (
(370,0,l),
(370,80,l),
(282,80,l),
(282,740,l),
(20,740,l),
(20,660,l),
(118,660,l),
(118,80,l),
(20,80,l),
(20,0,l)
);
},
{
closed = 1;
nodes = (
(311,310,o),
(395,310,o),
(420,310,cs),
(579,310,o),
(692,402,o),
(692,528,cs),
(692,654,o),
(579,740,o),
(420,740,cs),
(270,740,l),
(270,663,l),
(313,663,o),
(388,663,o),
(420,663,cs),
(480,663,o),
(522,610,o),
(522,530,cs),
(522,449,o),
(480,388,o),
(420,388,cs),
(266,388,l),
(266,310,l)
);
},
{
closed = 1;
nodes = (
(780,0,l),
(780,80,l),
(730,80,l),
(470,353,l),
(290,353,l),
(585,0,l)
);
}
);
width = 770;
},
{
anchors = (
{
name = bottom;
pos = (320,0);
},
{
name = top;
pos = (320,700);
}
);
layerId = m002;
shapes = (
{
closed = 1;
nodes = (
(290,0,l),
(290,40,l),
(202,40,l),
(202,700,l),
(20,700,l),
(20,660,l),
(118,660,l),
(118,40,l),
(20,40,l),
(20,0,l)
);
},
{
closed = 1;
nodes = (
(231,330,o),
(295,330,o),
(320,330,cs),
(444,330,o),
(532,409,o),
(532,520,cs),
(532,625,o),
(444,700,o),
(320,700,cs),
(190,700,l),
(190,663,l),
(233,663,o),
(288,663,o),
(320,663,cs),
(391,663,o),
(442,604,o),
(442,520,cs),
(442,431,o),
(391,368,o),
(320,368,cs),
(186,368,l),
(186,330,l)
);
},
{
closed = 1;
nodes = (
(620,0,l),
(620,40,l),
(570,40,l),
(350,353,l),
(250,353,l),
(495,0,l)
);
}
);
width = 640;
}
);
unicode = 82;
},
{
glyphname = S;
kernLeft = S;
kernRight = S;
lastChange = "2026-02-07 20:18:56 +0000";
layers = (
{
anchors = (
{
name = bottom;
pos = (310,0);
},
{
name = top;
pos = (310,740);
}
);
background = {
shapes = (
{
closed = 1;
nodes = (
(403,-16,o),
(492,66,o),
(492,181,cs),
(492,420,o),
(132,370,o),
(132,562,cs),
(132,623,o),
(179,674,o),
(270,674,cs),
(352,674,o),
(420,617,o),
(420,536,cs),
(420,477,l),
(472,477,l),
(469,542,o),
(469,635,o),
(472,700,c),
(420,700,l),
(420,630,l),
(449,626,l),
(415,679,o),
(339,716,o),
(265,716,cs),
(148,716,o),
(65,637,o),
(65,525,cs),
(65,292,o),
(425,344,o),
(425,145,cs),
(425,79,o),
(373,26,o),
(274,26,cs),
(179,26,o),
(102,88,o),
(102,176,cs),
(102,220,l),
(50,220,l),
(53,156,o),
(53,64,o),
(50,0,c),
(102,0,l),
(102,83,l),
(77,83,l),
(109,25,o),
(192,-16,o),
(278,-16,cs)
);
},
{
closed = 1;
nodes = (
(483,24,o),
(572,106,o),
(572,221,cs),
(572,460,o),
(212,410,o),
(212,602,cs),
(212,663,o),
(259,714,o),
(350,714,cs),
(432,714,o),
(500,657,o),
(500,576,cs),
(500,517,l),
(552,517,l),
(549,582,o),
(549,675,o),
(552,740,c),
(500,740,l),
(500,670,l),
(529,666,l),
(495,719,o),
(419,756,o),
(345,756,cs),
(228,756,o),
(145,677,o),
(145,565,cs),
(145,332,o),
(505,384,o),
(505,185,cs),
(505,119,o),
(453,66,o),
(354,66,cs),
(259,66,o),
(182,128,o),
(182,216,cs),
(182,260,l),
(130,260,l),
(133,196,o),
(133,104,o),
(130,40,c),
(182,40,l),
(182,123,l),
(157,123,l),
(189,65,o),
(272,24,o),
(358,24,cs)
);
}
);
};
layerId = m01;
shapes = (
{
closed = 1;
nodes = (
(467,-16,o),
(572,90,o),
(572,223,cs),
(572,468,o),
(212,418,o),
(212,589,cs),
(212,652,o),
(261,674,o),
(322,674,cs),
(406,674,o),
(460,617,o),
(460,536,cs),
(460,477,l),
(552,477,l),
(548,554,o),
(548,663,o),
(552,740,c),
(460,740,l),
(460,630,l),
(489,666,l),
(455,719,o),
(379,756,o),
(297,756,cs),
(164,756,o),
(65,652,o),
(65,525,cs),
(65,284,o),
(425,336,o),
(425,159,cs),
(425,91,o),
(371,66,o),
(301,66,cs),
(205,66,o),
(142,128,o),
(142,216,cs),
(142,260,l),
(50,260,l),
(54,184,o),
(54,76,o),
(50,0,c),
(142,0,l),
(142,83,l),
(117,83,l),
(149,25,o),
(232,-16,o),
(324,-16,cs)
);
}
);
width = 620;
},
{
anchors = (
{
name = bottom;
pos = (270,0);
},
{
name = top;
pos = (270,700);
}
);
layerId = m002;
shapes = (
{
closed = 1;
nodes = (
(403,-16,o),
(492,66,o),
(492,181,cs),
(492,420,o),
(132,370,o),
(132,562,cs),
(132,623,o),
(179,674,o),
(270,674,cs),
(352,674,o),
(420,617,o),
(420,536,cs),
(420,477,l),
(472,477,l),
(469,542,o),
(469,635,o),
(472,700,c),
(420,700,l),
(420,630,l),
(449,626,l),
(415,679,o),
(339,716,o),
(265,716,cs),
(148,716,o),
(65,637,o),
(65,525,cs),
(65,292,o),
(425,344,o),
(425,145,cs),
(425,79,o),
(373,26,o),
(274,26,cs),
(179,26,o),
(102,88,o),
(102,176,cs),
(102,220,l),
(50,220,l),
(53,156,o),
(53,64,o),
(50,0,c),
(102,0,l),
(102,83,l),
(77,83,l),
(109,25,o),
(192,-16,o),
(278,-16,cs)
);
}
);
width = 540;
}
);
unicode = 83;
},
{
color = 3;
glyphname = Germandbls;
kernLeft = Germandbls;
kernRight = Germandbls;
lastChange = "2026-02-07 21:06:11 +0000";
layers = (
{
layerId = m01;
shapes = (
{
closed = 1;
nodes = (
(280,0,l),
(280,167,o),
(280,611,o),
(280,660,c),
(412,660,l),
(452,660,o),
(480,623,o),
(480,570,cs),
(480,467,o),
(380,493,o),
(380,369,cs),
(380,205,o),
(555,211,o),
(555,95,cs),
(555,53,o),
(531,24,o),
(497,24,cs),
(448,24,o),
(428,64,o),
(448,120,c),
(360,120,l),
(359,40,o),
(425,-16,o),
(520,-16,cs),
(618,-16,o),
(688,47,o),
(688,137,cs),
(688,284,o),
(514,279,o),
(514,388,cs),
(514,482,o),
(644,471,o),
(644,585,cs),
(644,676,o),
(548,740,o),
(412,740,c),
(20,740,l),
(20,660,l),
(117,659,l),
(117,458,l),
(117,458,l),
(117,81,l),
(21,81,l),
(21,0,l)
);
}
);
width = 721;
},
{
layerId = m002;
shapes = (
{
closed = 1;
nodes = (
(200,0,l),
(200,167,o),
(200,611,o),
(200,660,c),
(332,660,l),
(372,660,o),
(400,627,o),
(400,572,cs),
(400,467,o),
(300,493,o),
(300,369,cs),
(300,205,o),
(475,211,o),
(475,104,cs),
(475,57,o),
(441,24,o),
(390,24,cs),
(334,24,o),
(308,64,o),
(328,120,c),
(280,120,l),
(279,40,o),
(330,-16,o),
(400,-16,cs),
(473,-16,o),
(528,44,o),
(528,130,cs),
(528,284,o),
(354,279,o),
(354,388,cs),
(354,482,o),
(484,471,o),
(484,602,cs),
(484,695,o),
(419,700,o),
(332,700,c),
(20,700,l),
(20,660,l),
(117,659,l),
(117,458,l),
(117,458,l),
(117,41,l),
(21,41,l),
(21,0,l)
);
}
);
width = 560;
}
);
unicode = 7838;
},
{
glyphname = T;
kernLeft = T;
kernRight = T;
lastChange = "2026-02-07 20:18:56 +0000";
layers = (
{
anchors = (
{
name = bottom;
pos = (352,0);
},
{
name = center;
pos = (352,370);
},
{
name = top;
pos = (352,740);
}
);
background = {
shapes = (
{
closed = 1;
nodes = (
(442,0,l),
(442,40,l),
(354,40,l),
(354,700,l),
(152,700,l),
(152,660,l),
(270,660,l),
(270,40,l),
(172,40,l),
(172,0,l)
);
},
{
closed = 1;
nodes = (
(612,540,l),
(610,587,o),
(610,653,o),
(612,700,c),
(292,700,l),
(292,660,l),
(542,660,l),
(552,540,l)
);
},
{
closed = 1;
nodes = (
(81,660,l),
(331,660,l),
(331,700,l),
(11,700,l),
(13,653,o),
(13,587,o),
(11,540,c),
(71,540,l)
);
},
{
closed = 1;
nodes = (
(522,40,l),
(522,80,l),
(434,80,l),
(434,740,l),
(232,740,l),
(232,700,l),
(350,700,l),
(350,80,l),
(252,80,l),
(252,40,l)
);
},
{
closed = 1;
nodes = (
(692,580,l),
(690,627,o),
(690,693,o),
(692,740,c),
(372,740,l),
(372,700,l),
(622,700,l),
(632,580,l)
);
},
{
closed = 1;
nodes = (
(161,700,l),
(411,700,l),
(411,740,l),
(91,740,l),
(93,693,o),
(93,627,o),
(91,580,c),
(151,580,l)
);
}
);
};
layerId = m01;
shapes = (
{
closed = 1;
nodes = (
(522,0,l),
(522,80,l),
(434,80,l),
(434,740,l),
(192,740,l),
(192,660,l),
(270,660,l),
(270,80,l),
(172,80,l),
(172,0,l)
);
},
{
closed = 1;
nodes = (
(692,540,l),
(690,587,o),
(690,693,o),
(692,740,c),
(292,740,l),
(292,660,l),
(582,660,l),
(592,540,l)
);
},
{
closed = 1;
nodes = (
(121,660,l),
(411,660,l),
(411,740,l),
(11,740,l),
(13,693,o),
(13,587,o),
(11,540,c),
(111,540,l)
);
}
);
width = 703;
},
{
anchors = (
{
name = bottom;
pos = (312,0);
},
{
name = center;
pos = (312,350);
},
{
name = top;
pos = (312,700);
}
);
background = {
shapes = (
{
closed = 1;
nodes = (
(202,0,l),
(202,40,l),
(114,40,l),
(114,660,l),
(212,660,l),
(212,700,l),
(112,700,l),
(-68,700,l),
(-68,660,l),
(30,660,l),
(30,40,l),
(-68,40,l),
(-68,0,l)
);
},
{
closed = 1;
nodes = (
(682,0,l),
(682,40,l),
(594,40,l),
(594,660,l),
(692,660,l),
(692,700,l),
(592,700,l),
(412,700,l),
(412,660,l),
(510,660,l),
(510,40,l),
(412,40,l),
(412,0,l)
);
},
{
closed = 1;
nodes = (
(72,350,l),
(582,350,l),
(582,390,l),
(72,390,l)
);
}
);
};
layerId = m002;
shapes = (
{
closed = 1;
nodes = (
(442,0,l),
(442,40,l),
(354,40,l),
(354,700,l),
(152,700,l),
(152,660,l),
(270,660,l),
(270,40,l),
(172,40,l),
(172,0,l)
);
},
{
closed = 1;
nodes = (
(612,540,l),
(610,587,o),
(610,653,o),
(612,700,c),
(292,700,l),
(292,660,l),
(542,660,l),
(552,540,l)
);
},
{
closed = 1;
nodes = (
(81,660,l),
(331,660,l),
(331,700,l),
(11,700,l),
(13,653,o),
(13,587,o),
(11,540,c),
(71,540,l)
);
}
);
width = 623;
}
);
unicode = 84;
},
{
glyphname = U;
kernLeft = U;
kernRight = U;
lastChange = "2026-02-07 20:18:56 +0000";
layers = (
{
anchors = (
{
name = bottom;
pos = (450,0);
},
{
name = ogonek;
pos = (810,10);
},
{
name = top;
pos = (450,740);
},
{
name = topright;
pos = (880,740);
}
);
background = {
shapes = (
{
closed = 1;
nodes = (
(202,235,l),
(202,660,l),
(300,660,l),
(300,700,l),
(200,700,l),
(20,700,l),
(20,660,l),
(118,660,l),
(118,235,l)
);
},
{
closed = 1;
nodes = (
(620,660,l),
(620,235,l),
(660,235,l),
(660,660,l),
(780,660,l),
(780,700,l),
(500,700,l),
(500,660,l)
);
},
{
closed = 1;
nodes = (
(572,-14,o),
(660,89,o),
(660,235,c),
(620,235,l),
(620,113,o),
(550,29,o),
(416,29,cs),
(281,29,o),
(202,113,o),
(202,235,c),
(118,235,l),
(118,89,o),
(231,-14,o),
(402,-14,cs)
);
},
{
closed = 1;
nodes = (
(282,275,l),
(282,700,l),
(380,700,l),
(380,740,l),
(280,740,l),
(100,740,l),
(100,700,l),
(198,700,l),
(198,275,l)
);
},
{
closed = 1;
nodes = (
(700,700,l),
(700,275,l),
(740,275,l),
(740,700,l),
(860,700,l),
(860,740,l),
(580,740,l),
(580,700,l)
);
},
{
closed = 1;
nodes = (
(652,26,o),
(740,129,o),
(740,275,c),
(700,275,l),
(700,153,o),
(630,69,o),
(496,69,cs),
(361,69,o),
(282,153,o),
(282,275,c),
(198,275,l),
(198,129,o),
(311,26,o),
(482,26,cs)
);
}
);
};
layerId = m01;
shapes = (
{
closed = 1;
nodes = (
(282,275,l),
(282,660,l),
(380,660,l),
(380,740,l),
(280,740,l),
(20,740,l),
(20,660,l),
(118,660,l),
(118,275,l)
);
},
{
closed = 1;
nodes = (
(700,660,l),
(700,275,l),
(780,275,l),
(780,660,l),
(900,660,l),
(900,740,l),
(580,740,l),
(580,660,l)
);
},
{
closed = 1;
nodes = (
(649,-14,o),
(780,106,o),
(780,275,c),
(700,275,l),
(700,154,o),
(614,69,o),
(492,69,cs),
(369,69,o),
(282,154,o),
(282,275,c),
(118,275,l),
(118,106,o),
(261,-14,o),
(455,-14,cs)
);
}
);
width = 900;
},
{
anchors = (
{
name = bottom;
pos = (390,0);
},
{
name = ogonek;
pos = (702,10);
},
{
name = top;
pos = (390,700);
},
{
name = topright;
pos = (760,700);
}
);
background = {
shapes = (
{
closed = 1;
nodes = (
(202,235,l),
(202,660,l),
(300,660,l),
(300,700,l),
(200,700,l),
(20,700,l),
(20,660,l),
(118,660,l),
(118,235,l)
);
},
{
closed = 1;
nodes = (
(660,660,l),
(660,235,l),
(700,235,l),
(700,660,l),
(820,660,l),
(820,700,l),
(540,700,l),
(540,660,l)
);
},
{
closed = 1;
nodes = (
(592,-14,o),
(700,89,o),
(700,235,c),
(660,235,l),
(660,113,o),
(570,26,o),
(436,26,cs),
(301,26,o),
(202,113,o),
(202,235,c),
(118,235,l),
(118,89,o),
(251,-14,o),
(422,-14,cs)
);
}
);
};
layerId = m002;
shapes = (
{
closed = 1;
nodes = (
(202,235,l),
(202,660,l),
(300,660,l),
(300,700,l),
(200,700,l),
(20,700,l),
(20,660,l),
(118,660,l),
(118,235,l)
);
},
{
closed = 1;
nodes = (
(620,660,l),
(620,235,l),
(660,235,l),
(660,660,l),
(780,660,l),
(780,700,l),
(500,700,l),
(500,660,l)
);
},
{
closed = 1;
nodes = (
(572,-14,o),
(660,89,o),
(660,235,c),
(620,235,l),
(620,113,o),
(550,29,o),
(416,29,cs),
(281,29,o),
(202,113,o),
(202,235,c),
(118,235,l),
(118,89,o),
(231,-14,o),
(402,-14,cs)
);
}
);
width = 780;
}
);
unicode = 85;
},
{
glyphname = V;
kernLeft = V;
kernRight = V;
lastChange = "2026-02-08 08:59:53 +0000";
layers = (
{
anchors = (
{
name = bottom;
pos = (397,0);
},
{
name = top;
pos = (397,740);
}
);
background = {
shapes = (
{
closed = 1;
nodes = (
(642,659,l),
(749,659,l),
(749,700,l),
(657,697,o),
(581,697,o),
(489,700,c),
(489,659,l),
(597,659,l),
(372,93,l),
(361,-36,l)
);
},
{
closed = 1;
nodes = (
(176,697,o),
(101,697,o),
(0,700,c),
(0,659,l),
(100,659,l),
(361,-36,l),
(396,103,l),
(191,659,l),
(277,659,l),
(277,700,l)
);
},
{
closed = 1;
nodes = (
(722,699,l),
(829,699,l),
(829,740,l),
(737,737,o),
(661,737,o),
(569,740,c),
(569,699,l),
(677,699,l),
(452,133,l),
(441,4,l)
);
},
{
closed = 1;
nodes = (
(256,737,o),
(181,737,o),
(80,740,c),
(80,699,l),
(180,699,l),
(441,4,l),
(476,143,l),
(271,699,l),
(357,699,l),
(357,740,l)
);
}
);
};
layerId = m01;
shapes = (
{
closed = 1;
nodes = (
(747,659,l),
(834,659,l),
(834,740,l),
(742,737,o),
(654,737,o),
(562,740,c),
(562,659,l),
(660,659,l),
(366,-23,l),
(459,0,l)
);
},
{
closed = 1;
nodes = (
(270,737,o),
(111,737,o),
(10,740,c),
(10,659,l),
(100,659,l),
(366,-23,l),
(488,109,l),
(276,659,l),
(371,659,l),
(371,740,l)
);
}
);
width = 834;
},
{
anchors = (
{
name = bottom;
pos = (365,0);
},
{
name = top;
pos = (365,700);
}
);
background = {
shapes = (
{
closed = 1;
nodes = (
(182,235,l),
(182,660,l),
(280,660,l),
(280,700,l),
(180,700,l),
(0,700,l),
(0,660,l),
(98,660,l),
(98,235,l)
);
},
{
closed = 1;
nodes = (
(600,660,l),
(600,235,l),
(640,235,l),
(640,660,l),
(760,660,l),
(760,700,l),
(480,700,l),
(480,660,l)
);
},
{
closed = 1;
nodes = (
(552,-14,o),
(640,89,o),
(640,235,c),
(600,235,l),
(600,113,o),
(530,26,o),
(396,26,cs),
(261,26,o),
(182,113,o),
(182,235,c),
(98,235,l),
(98,89,o),
(211,-14,o),
(382,-14,cs)
);
}
);
};
layerId = m002;
shapes = (
{
closed = 1;
nodes = (
(642,659,l),
(749,659,l),
(749,700,l),
(657,697,o),
(581,697,o),
(489,700,c),
(489,659,l),
(597,659,l),
(351,-36,l),
(405,0,l)
);
},
{
closed = 1;
nodes = (
(176,697,o),
(101,697,o),
(0,700,c),
(0,659,l),
(100,659,l),
(351,-36,l),
(408,53,l),
(191,659,l),
(277,659,l),
(277,700,l)
);
}
);
width = 729;
}
);
unicode = 86;
},
{
glyphname = W;
kernLeft = W;
kernRight = W;
lastChange = "2026-02-08 08:58:16 +0000";
layers = (
{
anchors = (
{
name = bottom;
pos = (615,0);
},
{
name = top;
pos = (615,740);
}
);
background = {
shapes = (
{
closed = 1;
nodes = (
(747,659,l),
(834,659,l),
(834,740,l),
(742,737,o),
(654,737,o),
(562,740,c),
(562,659,l),
(660,659,l),
(376,-23,l),
(459,0,l)
);
},
{
closed = 1;
nodes = (
(270,737,o),
(111,737,o),
(10,740,c),
(10,659,l),
(100,659,l),
(376,-23,l),
(488,109,l),
(275,659,l),
(371,659,l),
(371,740,l)
);
},
{
closed = 1;
nodes = (
(1142,659,l),
(1229,659,l),
(1229,740,l),
(1137,737,o),
(1049,737,o),
(957,740,c),
(957,659,l),
(1055,659,l),
(771,-23,l),
(854,0,l)
);
},
{
closed = 1;
nodes = (
(665,737,o),
(506,737,o),
(405,740,c),
(405,659,l),
(495,659,l),
(771,-23,l),
(883,109,l),
(670,659,l),
(766,659,l),
(766,740,l)
);
}
);
};
layerId = m01;
shapes = (
{
closed = 1;
nodes = (
(682,659,l),
(800,659,l),
(800,740,l),
(708,737,o),
(641,737,o),
(549,740,c),
(549,659,l),
(617,659,l),
(366,-23,l),
(459,0,l)
);
},
{
closed = 1;
nodes = (
(264,737,o),
(191,737,o),
(10,740,c),
(10,659,l),
(100,659,l),
(366,-23,l),
(488,109,l),
(271,659,l),
(365,659,l),
(365,740,l)
);
},
{
closed = 1;
nodes = (
(1142,659,l),
(1229,659,l),
(1229,740,l),
(1137,737,o),
(992,737,o),
(940,740,c),
(940,659,l),
(1057,659,l),
(761,-23,l),
(854,0,l)
);
},
{
closed = 1;
nodes = (
(676,737,o),
(572,737,o),
(471,740,c),
(471,659,l),
(540,659,l),
(761,-23,l),
(883,109,l),
(691,659,l),
(777,659,l),
(777,740,l)
);
}
);
width = 1229;
},
{
anchors = (
{
name = bottom;
pos = (515,0);
},
{
name = top;
pos = (515,700);
}
);
layerId = m002;
shapes = (
{
closed = 1;
nodes = (
(642,659,l),
(709,659,l),
(709,700,l),
(617,697,o),
(581,697,o),
(489,700,c),
(489,659,l),
(597,659,l),
(359,-36,l),
(413,-1,l)
);
},
{
closed = 1;
nodes = (
(176,697,o),
(101,697,o),
(0,700,c),
(0,659,l),
(100,659,l),
(359,-36,l),
(417,48,l),
(191,659,l),
(277,659,l),
(277,700,l)
);
},
{
closed = 1;
nodes = (
(942,659,l),
(1049,659,l),
(1049,700,l),
(957,697,o),
(881,697,o),
(789,700,c),
(789,659,l),
(897,659,l),
(659,-36,l),
(713,-1,l)
);
},
{
closed = 1;
nodes = (
(476,697,o),
(441,697,o),
(340,700,c),
(340,659,l),
(400,659,l),
(659,-36,l),
(717,48,l),
(491,659,l),
(577,659,l),
(577,700,l)
);
}
);
width = 1029;
}
);
unicode = 87;
},
{
glyphname = X;
kernLeft = X;
kernRight = X;
lastChange = "2026-02-08 08:58:56 +0000";
layers = (
{
anchors = (
{
name = bottom;
pos = (410,0);
},
{
name = top;
pos = (410,740);
}
);
background = {
shapes = (
{
closed = 1;
nodes = (
(589,3,o),
(685,3,o),
(779,0,c),
(779,41,l),
(711,41,l),
(441,408,l),
(266,662,l),
(365,662,l),
(365,700,l),
(271,703,o),
(174,703,o),
(80,700,c),
(80,662,l),
(165,662,l),
(407,321,l),
(608,41,l),
(494,41,l),
(494,0,l)
);
},
{
closed = 1;
nodes = (
(165,3,o),
(252,3,o),
(338,0,c),
(338,41,l),
(220,41,l),
(429,329,l),
(417,377,l),
(170,41,l),
(80,41,l),
(80,0,l)
);
},
{
closed = 1;
nodes = (
(673,662,l),
(779,662,l),
(779,700,l),
(694,703,o),
(607,703,o),
(521,700,c),
(521,662,l),
(623,662,l),
(433,403,l),
(445,356,l)
);
},
{
closed = 1;
nodes = (
(669,43,o),
(765,43,o),
(859,40,c),
(859,81,l),
(791,81,l),
(521,448,l),
(346,702,l),
(445,702,l),
(445,740,l),
(351,743,o),
(254,743,o),
(160,740,c),
(160,702,l),
(245,702,l),
(487,361,l),
(688,81,l),
(574,81,l),
(574,40,l)
);
},
{
closed = 1;
nodes = (
(245,43,o),
(332,43,o),
(418,40,c),
(418,81,l),
(300,81,l),
(509,369,l),
(497,417,l),
(250,81,l),
(160,81,l),
(160,40,l)
);
},
{
closed = 1;
nodes = (
(753,702,l),
(859,702,l),
(859,740,l),
(774,743,o),
(687,743,o),
(601,740,c),
(601,702,l),
(703,702,l),
(513,443,l),
(525,396,l)
);
}
);
};
layerId = m01;
shapes = (
{
closed = 1;
nodes = (
(549,3,o),
(726,3,o),
(820,0,c),
(820,81,l),
(751,81,l),
(481,428,l),
(311,662,l),
(405,662,l),
(405,740,l),
(311,743,o),
(134,743,o),
(40,740,c),
(40,662,l),
(120,662,l),
(367,341,l),
(568,81,l),
(454,81,l),
(454,0,l)
);
},
{
closed = 1;
nodes = (
(125,3,o),
(252,3,o),
(338,0,c),
(338,81,l),
(240,81,l),
(449,329,l),
(397,377,l),
(150,81,l),
(40,81,l),
(40,0,l)
);
},
{
closed = 1;
nodes = (
(713,662,l),
(800,662,l),
(800,740,l),
(715,743,o),
(607,743,o),
(521,740,c),
(521,662,l),
(623,662,l),
(433,423,l),
(485,376,l)
);
}
);
width = 820;
},
{
anchors = (
{
name = bottom;
pos = (350,0);
},
{
name = top;
pos = (350,700);
}
);
layerId = m002;
shapes = (
{
closed = 1;
nodes = (
(509,3,o),
(605,3,o),
(699,0,c),
(699,41,l),
(631,41,l),
(361,408,l),
(186,662,l),
(285,662,l),
(285,700,l),
(191,703,o),
(94,703,o),
(0,700,c),
(0,662,l),
(85,662,l),
(327,321,l),
(528,41,l),
(414,41,l),
(414,0,l)
);
},
{
closed = 1;
nodes = (
(85,3,o),
(172,3,o),
(258,0,c),
(258,41,l),
(140,41,l),
(349,329,l),
(337,377,l),
(90,41,l),
(0,41,l),
(0,0,l)
);
},
{
closed = 1;
nodes = (
(593,662,l),
(699,662,l),
(699,700,l),
(614,703,o),
(527,703,o),
(441,700,c),
(441,662,l),
(543,662,l),
(353,403,l),
(365,356,l)
);
}
);
width = 700;
}
);
unicode = 88;
},
{
glyphname = Y;
kernLeft = Y;
kernRight = Y;
lastChange = "2026-02-08 08:59:07 +0000";
layers = (
{
anchors = (
{
name = bottom;
pos = (380,0);
},
{
name = top;
pos = (380,740);
},
{
name = topleft;
pos = (20,740);
}
);
background = {
shapes = (
{
closed = 1;
nodes = (
(563,659,l),
(640,659,l),
(640,700,l),
(548,697,o),
(532,697,o),
(440,700,c),
(440,659,l),
(519,659,l),
(330,323,l),
(321,204,l)
);
},
{
closed = 1;
nodes = (
(119,697,o),
(61,697,o),
(0,700,c),
(0,659,l),
(56,659,l),
(321,204,l),
(354,323,l),
(151,659,l),
(220,659,l),
(220,700,l)
);
},
{
closed = 1;
nodes = (
(458,0,l),
(458,40,l),
(360,40,l),
(360,330,l),
(276,330,l),
(276,40,l),
(178,40,l),
(178,0,l)
);
},
{
closed = 1;
nodes = (
(563,659,l),
(640,659,l),
(640,700,l),
(548,697,o),
(532,697,o),
(440,700,c),
(440,659,l),
(519,659,l),
(330,323,l),
(321,204,l)
);
},
{
closed = 1;
nodes = (
(119,697,o),
(61,697,o),
(0,700,c),
(0,659,l),
(56,659,l),
(321,204,l),
(354,323,l),
(151,659,l),
(220,659,l),
(220,700,l)
);
},
{
closed = 1;
nodes = (
(458,0,l),
(458,40,l),
(360,40,l),
(360,330,l),
(276,330,l),
(276,40,l),
(178,40,l),
(178,0,l)
);
},
{
closed = 1;
nodes = (
(643,699,l),
(720,699,l),
(720,740,l),
(628,737,o),
(612,737,o),
(520,740,c),
(520,699,l),
(599,699,l),
(410,363,l),
(401,244,l)
);
},
{
closed = 1;
nodes = (
(199,737,o),
(141,737,o),
(80,740,c),
(80,699,l),
(136,699,l),
(401,244,l),
(434,363,l),
(231,699,l),
(300,699,l),
(300,740,l)
);
},
{
closed = 1;
nodes = (
(538,40,l),
(538,80,l),
(440,80,l),
(440,370,l),
(356,370,l),
(356,80,l),
(258,80,l),
(258,40,l)
);
}
);
};
layerId = m01;
shapes = (
{
closed = 1;
nodes = (
(683,659,l),
(780,659,l),
(780,740,l),
(688,737,o),
(585,737,o),
(493,740,c),
(493,659,l),
(592,659,l),
(400,351,l),
(431,244,l)
);
},
{
closed = 1;
nodes = (
(234,737,o),
(61,737,o),
(0,740,c),
(0,659,l),
(61,659,l),
(311,244,l),
(425,363,l),
(251,659,l),
(335,659,l),
(335,740,l)
);
},
{
closed = 1;
nodes = (
(568,0,l),
(568,80,l),
(470,80,l),
(470,370,l),
(306,370,l),
(306,80,l),
(208,80,l),
(208,0,l)
);
}
);
width = 760;
},
{
anchors = (
{
name = bottom;
pos = (320,0);
},
{
name = top;
pos = (320,700);
},
{
name = topleft;
pos = (20,700);
}
);
layerId = m002;
shapes = (
{
closed = 1;
nodes = (
(563,659,l),
(640,659,l),
(640,700,l),
(548,697,o),
(507,697,o),
(415,700,c),
(415,659,l),
(518,659,l),
(330,307,l),
(321,204,l)
);
},
{
closed = 1;
nodes = (
(154,697,o),
(61,697,o),
(0,700,c),
(0,659,l),
(56,659,l),
(321,204,l),
(354,309,l),
(151,659,l),
(255,659,l),
(255,700,l)
);
},
{
closed = 1;
nodes = (
(458,0,l),
(458,40,l),
(360,40,l),
(360,310,l),
(276,310,l),
(276,40,l),
(178,40,l),
(178,0,l)
);
}
);
width = 640;
}
);
unicode = 89;
},
{
glyphname = Z;
kernLeft = Z;
kernRight = Z;
lastChange = "2026-02-08 08:49:34 +0000";
layers = (
{
anchors = (
{
name = bottom;
pos = (360,0);
},
{
name = center;
pos = (360,370);
},
{
name = top;
pos = (360,740);
}
);
background = {
shapes = (
{
closed = 1;
nodes = (
(555,0,l),
(552,82,o),
(552,98,o),
(555,180,c),
(500,180,l),
(486,40,l),
(80,40,l),
(98,26,l),
(555,649,l),
(555,700,l),
(32,700,l),
(35,617,o),
(35,643,o),
(32,560,c),
(87,560,l),
(101,660,l),
(482,660,l),
(464,668,l),
(24,65,l),
(24,0,l)
);
},
{
closed = 1;
nodes = (
(635,40,l),
(632,122,o),
(632,138,o),
(635,220,c),
(580,220,l),
(566,80,l),
(160,80,l),
(178,66,l),
(635,689,l),
(635,740,l),
(112,740,l),
(115,657,o),
(115,683,o),
(112,600,c),
(167,600,l),
(181,700,l),
(562,700,l),
(544,708,l),
(104,105,l),
(104,40,l)
);
}
);
};
layerId = m01;
shapes = (
{
closed = 1;
nodes = (
(655,0,l),
(652,122,o),
(652,178,o),
(655,260,c),
(560,260,l),
(546,80,l),
(80,80,l),
(178,66,l),
(655,649,l),
(655,740,l),
(32,740,l),
(35,657,o),
(35,603,o),
(32,520,c),
(127,520,l),
(141,660,l),
(502,660,l),
(484,668,l),
(24,105,l),
(24,0,l)
);
}
);
width = 699;
},
{
anchors = (
{
name = bottom;
pos = (300,0);
},
{
name = center;
pos = (300,350);
},
{
name = top;
pos = (300,700);
}
);
layerId = m002;
shapes = (
{
closed = 1;
nodes = (
(555,0,l),
(552,82,o),
(552,138,o),
(555,220,c),
(500,220,l),
(486,40,l),
(80,40,l),
(98,26,l),
(555,649,l),
(555,700,l),
(32,700,l),
(35,577,o),
(35,583,o),
(32,500,c),
(87,500,l),
(101,660,l),
(482,660,l),
(464,668,l),
(24,65,l),
(24,0,l)
);
}
);
width = 599;
}
);
unicode = 90;
},
{
glyphname = H.alt;
kernLeft = H.alt;
kernRight = H.alt;
lastChange = "2026-02-03 18:57:41 +0000";
layers = (
{
anchors = (
{
name = bottom;
pos = (460,0);
},
{
name = center;
pos = (460,562);
},
{
name = top;
pos = (460,700);
},
{
name = topleft;
pos = (20,700);
}
);
layerId = m01;
shapes = (
{
closed = 1;
nodes = (
(191,-20,o),
(228,26,o),
(235,92,c),
(242,26,o),
(283,-20,o),
(335,-20,c),
(399,-20,o),
(445,45,o),
(445,138,c),
(425,138,l),
(425,92,o),
(406,60,o),
(379,60,cs),
(342,60,o),
(315,152,o),
(315,282,c),
(155,282,l),
(155,152,o),
(131,60,o),
(97,60,cs),
(72,60,o),
(55,89,o),
(55,130,c),
(35,130,l),
(35,42,o),
(81,-20,o),
(145,-20,c)
);
},
{
closed = 1;
nodes = (
(283,702,o),
(242,656,o),
(235,590,c),
(228,656,o),
(191,702,o),
(145,702,c),
(81,702,o),
(35,637,o),
(35,544,c),
(55,544,l),
(55,590,o),
(73,622,o),
(99,622,cs),
(132,622,o),
(155,530,o),
(155,400,c),
(315,400,l),
(315,530,o),
(342,622,o),
(381,622,cs),
(407,622,o),
(425,593,o),
(425,552,c),
(445,552,l),
(445,640,o),
(399,702,o),
(335,702,c)
);
},
{
closed = 1;
nodes = (
(155,282,l),
(315,282,l),
(315,400,l),
(155,400,l)
);
},
{
closed = 1;
nodes = (
(641,-20,o),
(678,26,o),
(685,92,c),
(692,26,o),
(733,-20,o),
(785,-20,c),
(849,-20,o),
(895,45,o),
(895,138,c),
(875,138,l),
(875,92,o),
(856,60,o),
(829,60,cs),
(792,60,o),
(765,152,o),
(765,282,c),
(605,282,l),
(605,152,o),
(581,60,o),
(547,60,cs),
(522,60,o),
(505,89,o),
(505,130,c),
(485,130,l),
(485,42,o),
(531,-20,o),
(595,-20,c)
);
},
{
closed = 1;
nodes = (
(733,702,o),
(692,656,o),
(685,590,c),
(678,656,o),
(641,702,o),
(595,702,c),
(531,702,o),
(485,637,o),
(485,544,c),
(505,544,l),
(505,590,o),
(523,622,o),
(549,622,cs),
(582,622,o),
(605,530,o),
(605,400,c),
(765,400,l),
(765,530,o),
(792,622,o),
(831,622,cs),
(857,622,o),
(875,593,o),
(875,552,c),
(895,552,l),
(895,640,o),
(849,702,o),
(785,702,c)
);
},
{
closed = 1;
nodes = (
(605,282,l),
(765,282,l),
(765,400,l),
(605,400,l)
);
},
{
closed = 1;
nodes = (
(215,271,l),
(725,271,l),
(725,421,l),
(215,421,l)
);
}
);
width = 920;
},
{
anchors = (
{
name = bottom;
pos = (460,0);
},
{
name = center;
pos = (460,562);
},
{
name = top;
pos = (460,700);
},
{
name = topleft;
pos = (20,700);
}
);
layerId = m002;
shapes = (
{
closed = 1;
nodes = (
(191,-20,o),
(228,26,o),
(235,92,c),
(242,26,o),
(283,-20,o),
(335,-20,c),
(399,-20,o),
(445,45,o),
(445,138,c),
(425,138,l),
(425,92,o),
(406,60,o),
(379,60,cs),
(342,60,o),
(315,152,o),
(315,282,c),
(155,282,l),
(155,152,o),
(131,60,o),
(97,60,cs),
(72,60,o),
(55,89,o),
(55,130,c),
(35,130,l),
(35,42,o),
(81,-20,o),
(145,-20,c)
);
},
{
closed = 1;
nodes = (
(283,702,o),
(242,656,o),
(235,590,c),
(228,656,o),
(191,702,o),
(145,702,c),
(81,702,o),
(35,637,o),
(35,544,c),
(55,544,l),
(55,590,o),
(73,622,o),
(99,622,cs),
(132,622,o),
(155,530,o),
(155,400,c),
(315,400,l),
(315,530,o),
(342,622,o),
(381,622,cs),
(407,622,o),
(425,593,o),
(425,552,c),
(445,552,l),
(445,640,o),
(399,702,o),
(335,702,c)
);
},
{
closed = 1;
nodes = (
(155,282,l),
(315,282,l),
(315,400,l),
(155,400,l)
);
},
{
closed = 1;
nodes = (
(641,-20,o),
(678,26,o),
(685,92,c),
(692,26,o),
(733,-20,o),
(785,-20,c),
(849,-20,o),
(895,45,o),
(895,138,c),
(875,138,l),
(875,92,o),
(856,60,o),
(829,60,cs),
(792,60,o),
(765,152,o),
(765,282,c),
(605,282,l),
(605,152,o),
(581,60,o),
(547,60,cs),
(522,60,o),
(505,89,o),
(505,130,c),
(485,130,l),
(485,42,o),
(531,-20,o),
(595,-20,c)
);
},
{
closed = 1;
nodes = (
(733,702,o),
(692,656,o),
(685,590,c),
(678,656,o),
(641,702,o),
(595,702,c),
(531,702,o),
(485,637,o),
(485,544,c),
(505,544,l),
(505,590,o),
(523,622,o),
(549,622,cs),
(582,622,o),
(605,530,o),
(605,400,c),
(765,400,l),
(765,530,o),
(792,622,o),
(831,622,cs),
(857,622,o),
(875,593,o),
(875,552,c),
(895,552,l),
(895,640,o),
(849,702,o),
(785,702,c)
);
},
{
closed = 1;
nodes = (
(605,282,l),
(765,282,l),
(765,400,l),
(605,400,l)
);
},
{
closed = 1;
nodes = (
(215,271,l),
(725,271,l),
(725,421,l),
(215,421,l)
);
}
);
width = 920;
}
);
},
{
glyphname = I.alt;
kernLeft = I.alt;
kernRight = I.alt;
lastChange = "2026-02-03 18:57:41 +0000";
layers = (
{
anchors = (
{
name = bottom;
pos = (235,0);
},
{
name = ogonek;
pos = (423,10);
},
{
name = top;
pos = (235,700);
},
{
name = topleft;
pos = (20,700);
}
);
layerId = m01;
shapes = (
{
closed = 1;
nodes = (
(191,-20,o),
(228,26,o),
(235,92,c),
(242,26,o),
(283,-20,o),
(335,-20,c),
(399,-20,o),
(445,45,o),
(445,138,c),
(425,138,l),
(425,92,o),
(406,60,o),
(379,60,cs),
(342,60,o),
(315,152,o),
(315,282,c),
(155,282,l),
(155,152,o),
(131,60,o),
(97,60,cs),
(72,60,o),
(55,89,o),
(55,130,c),
(35,130,l),
(35,42,o),
(81,-20,o),
(145,-20,c)
);
},
{
closed = 1;
nodes = (
(283,702,o),
(242,656,o),
(235,590,c),
(228,656,o),
(191,702,o),
(145,702,c),
(81,702,o),
(35,637,o),
(35,544,c),
(55,544,l),
(55,590,o),
(73,622,o),
(99,622,cs),
(132,622,o),
(155,530,o),
(155,400,c),
(315,400,l),
(315,530,o),
(342,622,o),
(381,622,cs),
(407,622,o),
(425,593,o),
(425,552,c),
(445,552,l),
(445,640,o),
(399,702,o),
(335,702,c)
);
},
{
closed = 1;
nodes = (
(155,282,l),
(315,282,l),
(315,400,l),
(155,400,l)
);
}
);
width = 470;
},
{
anchors = (
{
name = bottom;
pos = (235,0);
},
{
name = ogonek;
pos = (423,10);
},
{
name = top;
pos = (235,700);
},
{
name = topleft;
pos = (20,700);
}
);
layerId = m002;
shapes = (
{
closed = 1;
nodes = (
(191,-20,o),
(228,26,o),
(235,92,c),
(242,26,o),
(283,-20,o),
(335,-20,c),
(399,-20,o),
(445,45,o),
(445,138,c),
(425,138,l),
(425,92,o),
(406,60,o),
(379,60,cs),
(342,60,o),
(315,152,o),
(315,282,c),
(155,282,l),
(155,152,o),
(131,60,o),
(97,60,cs),
(72,60,o),
(55,89,o),
(55,130,c),
(35,130,l),
(35,42,o),
(81,-20,o),
(145,-20,c)
);
},
{
closed = 1;
nodes = (
(283,702,o),
(242,656,o),
(235,590,c),
(228,656,o),
(191,702,o),
(145,702,c),
(81,702,o),
(35,637,o),
(35,544,c),
(55,544,l),
(55,590,o),
(73,622,o),
(99,622,cs),
(132,622,o),
(155,530,o),
(155,400,c),
(315,400,l),
(315,530,o),
(342,622,o),
(381,622,cs),
(407,622,o),
(425,593,o),
(425,552,c),
(445,552,l),
(445,640,o),
(399,702,o),
(335,702,c)
);
},
{
closed = 1;
nodes = (
(155,282,l),
(315,282,l),
(315,400,l),
(155,400,l)
);
}
);
width = 470;
}
);
},
{
glyphname = R.alt;
kernLeft = R.alt;
kernRight = R.alt;
lastChange = "2026-02-03 18:57:41 +0000";
layers = (
{
anchors = (
{
name = bottom;
pos = (468,0);
},
{
name = top;
pos = (468,700);
}
);
layerId = m01;
shapes = (
{
closed = 1;
nodes = (
(191,-20,o),
(228,26,o),
(235,92,c),
(242,26,o),
(283,-20,o),
(335,-20,c),
(399,-20,o),
(445,45,o),
(445,138,c),
(425,138,l),
(425,92,o),
(406,60,o),
(379,60,cs),
(342,60,o),
(315,152,o),
(315,282,c),
(155,282,l),
(155,152,o),
(131,60,o),
(97,60,cs),
(72,60,o),
(55,89,o),
(55,130,c),
(35,130,l),
(35,42,o),
(81,-20,o),
(145,-20,c)
);
},
{
closed = 1;
nodes = (
(283,582,o),
(242,536,o),
(235,470,c),
(228,536,o),
(191,582,o),
(145,582,c),
(81,582,o),
(35,517,o),
(35,424,c),
(55,424,l),
(55,470,o),
(73,502,o),
(99,502,cs),
(132,502,o),
(155,410,o),
(155,280,c),
(315,280,l),
(315,410,o),
(342,502,o),
(381,502,cs),
(407,502,o),
(425,473,o),
(425,432,c),
(445,432,l),
(445,520,o),
(399,582,o),
(335,582,c)
);
},
{
closed = 1;
nodes = (
(671,-20,o),
(708,26,o),
(715,92,c),
(722,26,o),
(763,-20,o),
(815,-20,c),
(879,-20,o),
(925,45,o),
(925,138,c),
(905,138,l),
(905,92,o),
(886,60,o),
(859,60,cs),
(822,60,o),
(795,152,o),
(795,282,c),
(635,282,l),
(635,152,o),
(611,60,o),
(577,60,cs),
(552,60,o),
(535,89,o),
(535,130,c),
(515,130,l),
(515,42,o),
(561,-20,o),
(625,-20,c)
);
},
{
closed = 1;
nodes = (
(795,470,l),
(788,536,o),
(734,582,o),
(665,582,c),
(577,582,o),
(515,517,o),
(515,424,c),
(535,424,l),
(535,470,o),
(553,502,o),
(579,502,cs),
(612,502,o),
(635,410,o),
(635,280,c),
(795,280,l)
);
}
);
width = 936;
},
{
anchors = (
{
name = bottom;
pos = (468,0);
},
{
name = top;
pos = (468,700);
}
);
layerId = m002;
shapes = (
{
closed = 1;
nodes = (
(191,-20,o),
(228,26,o),
(235,92,c),
(242,26,o),
(283,-20,o),
(335,-20,c),
(399,-20,o),
(445,45,o),
(445,138,c),
(425,138,l),
(425,92,o),
(406,60,o),
(379,60,cs),
(342,60,o),
(315,152,o),
(315,282,c),
(155,282,l),
(155,152,o),
(131,60,o),
(97,60,cs),
(72,60,o),
(55,89,o),
(55,130,c),
(35,130,l),
(35,42,o),
(81,-20,o),
(145,-20,c)
);
},
{
closed = 1;
nodes = (
(283,582,o),
(242,536,o),
(235,470,c),
(228,536,o),
(191,582,o),
(145,582,c),
(81,582,o),
(35,517,o),
(35,424,c),
(55,424,l),
(55,470,o),
(73,502,o),
(99,502,cs),
(132,502,o),
(155,410,o),
(155,280,c),
(315,280,l),
(315,410,o),
(342,502,o),
(381,502,cs),
(407,502,o),
(425,473,o),
(425,432,c),
(445,432,l),
(445,520,o),
(399,582,o),
(335,582,c)
);
},
{
closed = 1;
nodes = (
(671,-20,o),
(708,26,o),
(715,92,c),
(722,26,o),
(763,-20,o),
(815,-20,c),
(879,-20,o),
(925,45,o),
(925,138,c),
(905,138,l),
(905,92,o),
(886,60,o),
(859,60,cs),
(822,60,o),
(795,152,o),
(795,282,c),
(635,282,l),
(635,152,o),
(611,60,o),
(577,60,cs),
(552,60,o),
(535,89,o),
(535,130,c),
(515,130,l),
(515,42,o),
(561,-20,o),
(625,-20,c)
);
},
{
closed = 1;
nodes = (
(795,470,l),
(788,536,o),
(734,582,o),
(665,582,c),
(577,582,o),
(515,517,o),
(515,424,c),
(535,424,l),
(535,470,o),
(553,502,o),
(579,502,cs),
(612,502,o),
(635,410,o),
(635,280,c),
(795,280,l)
);
}
);
width = 936;
}
);
},
{
glyphname = a;
kernLeft = a;
kernRight = n;
lastChange = "2026-02-08 08:29:53 +0000";
layers = (
{
anchors = (
{
name = bottom;
pos = (333,0);
},
{
name = ogonek;
pos = (599,10);
},
{
name = top;
pos = (333,540);
}
);
background = {
shapes = (
{
closed = 1;
nodes = (
(35,160,l),
(35,52,o),
(104,-16,o),
(215,-16,cs),
(326,-16,o),
(395,52,o),
(395,160,c),
(355,158,l),
(355,71,o),
(308,16,o),
(234,16,cs),
(161,16,o),
(115,71,o),
(115,158,c)
);
},
{
closed = 1;
nodes = (
(412,2,o),
(468,2,o),
(525,0,c),
(525,40,l),
(435,40,l),
(435,152,o),
(435,276,o),
(435,340,cs),
(435,448,o),
(366,516,o),
(255,516,cs),
(144,516,o),
(65,448,o),
(65,380,c),
(92,382,o),
(118,382,o),
(145,382,c),
(145,429,o),
(162,484,o),
(236,484,cs),
(309,484,o),
(355,429,o),
(355,342,cs),
(355,40,l),
(355,40,l),
(355,0,l)
);
},
{
closed = 1;
nodes = (
(322,-13,o),
(395,47,o),
(395,143,cs),
(395,238,o),
(322,298,o),
(206,298,cs),
(101,298,o),
(35,238,o),
(35,143,cs),
(35,47,o),
(101,-13,o),
(206,-13,cs)
);
},
{
closed = 1;
nodes = (
(162,22,o),
(125,68,o),
(125,142,cs),
(125,216,o),
(162,263,o),
(222,263,cs),
(304,263,o),
(355,216,o),
(355,142,cs),
(355,68,o),
(304,22,o),
(222,22,cs)
);
},
{
closed = 1;
nodes = (
(492,42,o),
(548,42,o),
(605,40,c),
(605,80,l),
(515,80,l),
(515,192,o),
(515,316,o),
(515,380,cs),
(515,488,o),
(446,556,o),
(335,556,cs),
(224,556,o),
(145,488,o),
(145,420,c),
(172,422,o),
(198,422,o),
(225,422,c),
(225,469,o),
(242,524,o),
(316,524,cs),
(389,524,o),
(435,469,o),
(435,382,cs),
(435,80,l),
(435,80,l),
(435,40,l)
);
},
{
closed = 1;
nodes = (
(402,27,o),
(475,87,o),
(475,183,cs),
(475,278,o),
(402,338,o),
(286,338,cs),
(181,338,o),
(115,278,o),
(115,183,cs),
(115,87,o),
(181,27,o),
(286,27,cs)
);
},
{
closed = 1;
nodes = (
(242,62,o),
(205,108,o),
(205,182,cs),
(205,256,o),
(242,303,o),
(302,303,cs),
(384,303,o),
(435,256,o),
(435,182,cs),
(435,108,o),
(384,62,o),
(302,62,cs)
);
}
);
};
layerId = m01;
shapes = (
{
closed = 1;
nodes = (
(497,2,o),
(591,2,o),
(645,0,c),
(645,80,l),
(555,80,l),
(555,192,o),
(555,296,o),
(555,360,cs),
(555,475,o),
(456,556,o),
(315,556,cs),
(169,556,o),
(65,483,o),
(65,380,c),
(87,381,o),
(154,382,o),
(225,382,c),
(225,442,o),
(254,484,o),
(296,484,cs),
(354,484,o),
(395,433,o),
(395,362,cs),
(395,90,l),
(405,90,l),
(405,0,l)
);
},
{
closed = 1;
nodes = (
(365,-13,o),
(435,56,o),
(435,153,cs),
(435,250,o),
(365,318,o),
(248,318,cs),
(131,318,o),
(35,250,o),
(35,153,cs),
(35,56,o),
(131,-13,o),
(248,-13,cs)
);
},
{
closed = 1;
nodes = (
(247,62,o),
(205,102,o),
(205,153,cs),
(205,203,o),
(247,243,o),
(300,243,cs),
(352,243,o),
(395,203,o),
(395,153,cs),
(395,102,o),
(352,62,o),
(300,62,cs)
);
}
);
width = 665;
},
{
anchors = (
{
name = bottom;
pos = (263,0);
},
{
name = ogonek;
pos = (489,10);
},
{
name = top;
pos = (263,500);
}
);
background = {
shapes = (
{
closed = 1;
nodes = (
(35,160,l),
(35,52,o),
(104,-16,o),
(215,-16,cs),
(326,-16,o),
(395,52,o),
(395,160,c),
(355,158,l),
(355,71,o),
(308,16,o),
(234,16,cs),
(161,16,o),
(115,71,o),
(115,158,c)
);
}
);
};
layerId = m002;
shapes = (
{
closed = 1;
nodes = (
(417,2,o),
(468,2,o),
(525,0,c),
(525,40,l),
(435,40,l),
(435,152,o),
(435,276,o),
(435,340,cs),
(435,448,o),
(366,516,o),
(255,516,cs),
(144,516,o),
(65,448,o),
(65,380,c),
(92,382,o),
(118,382,o),
(145,382,c),
(145,429,o),
(162,484,o),
(236,484,cs),
(309,484,o),
(355,429,o),
(355,342,cs),
(355,60,l),
(360,60,l),
(360,0,l)
);
},
{
closed = 1;
nodes = (
(322,-13,o),
(395,47,o),
(395,143,cs),
(395,238,o),
(322,298,o),
(206,298,cs),
(101,298,o),
(35,238,o),
(35,143,cs),
(35,47,o),
(101,-13,o),
(206,-13,cs)
);
},
{
closed = 1;
nodes = (
(162,22,o),
(125,68,o),
(125,142,cs),
(125,216,o),
(162,263,o),
(222,263,cs),
(304,263,o),
(355,216,o),
(355,142,cs),
(355,68,o),
(304,22,o),
(222,22,cs)
);
}
);
width = 545;
}
);
unicode = 97;
},
{
color = 3;
glyphname = ae;
kernLeft = a;
kernRight = e;
lastChange = "2026-02-08 09:05:43 +0000";
layers = (
{
background = {
shapes = (
{
closed = 1;
nodes = (
(619,-13,o),
(688,20,o),
(719,66,c),
(664,100,l),
(646,60,o),
(602,32,o),
(559,32,cs),
(480,32,o),
(425,126,o),
(425,264,cs),
(425,390,o),
(471,483,o),
(537,483,cs),
(604,483,o),
(645,387,o),
(635,252,c),
(635,253,l),
(725,251,l),
(725,252,ls),
(725,408,o),
(645,518,o),
(534,518,cs),
(423,518,o),
(345,409,o),
(345,257,cs),
(345,98,o),
(431,-13,o),
(553,-13,cs)
);
},
{
closed = 1;
nodes = (
(330,-13,o),
(405,52,o),
(405,143,cs),
(405,234,o),
(330,298,o),
(228,298,cs),
(125,298,o),
(55,234,o),
(55,143,cs),
(55,52,o),
(125,-13,o),
(228,-13,cs)
);
},
{
closed = 1;
nodes = (
(184,22,o),
(145,72,o),
(145,143,cs),
(145,213,o),
(184,263,o),
(243,263,cs),
(301,263,o),
(345,213,o),
(345,143,cs),
(345,72,o),
(301,22,o),
(243,22,cs)
);
},
{
closed = 1;
nodes = (
(345,100,l),
(405,140,l),
(405,340,ls),
(405,443,o),
(353,516,o),
(247,516,cs),
(154,516,o),
(85,460,o),
(85,380,c),
(120,381,o),
(153,382,o),
(165,382,c),
(165,442,o),
(198,484,o),
(247,484,cs),
(304,484,o),
(345,425,o),
(345,342,cs),
(345,40,l)
);
},
{
closed = 1;
nodes = (
(482,253,o),
(625,253,o),
(725,251,c),
(676,291,l),
(382,291,l),
(382,251,l)
);
},
{
closed = 1;
nodes = (
(699,27,o),
(768,60,o),
(799,106,c),
(744,140,l),
(726,100,o),
(682,72,o),
(639,72,cs),
(560,72,o),
(505,166,o),
(505,304,cs),
(505,430,o),
(551,523,o),
(617,523,cs),
(684,523,o),
(725,427,o),
(715,292,c),
(715,293,l),
(805,291,l),
(805,292,ls),
(805,448,o),
(725,558,o),
(614,558,cs),
(503,558,o),
(425,449,o),
(425,297,cs),
(425,138,o),
(511,27,o),
(633,27,cs)
);
},
{
closed = 1;
nodes = (
(410,27,o),
(485,92,o),
(485,183,cs),
(485,274,o),
(410,338,o),
(308,338,cs),
(205,338,o),
(135,274,o),
(135,183,cs),
(135,92,o),
(205,27,o),
(308,27,cs)
);
},
{
closed = 1;
nodes = (
(264,62,o),
(225,112,o),
(225,183,cs),
(225,253,o),
(264,303,o),
(323,303,cs),
(381,303,o),
(425,253,o),
(425,183,cs),
(425,112,o),
(381,62,o),
(323,62,cs)
);
},
{
closed = 1;
nodes = (
(425,140,l),
(485,180,l),
(485,380,ls),
(485,483,o),
(433,556,o),
(327,556,cs),
(234,556,o),
(165,500,o),
(165,420,c),
(200,421,o),
(233,422,o),
(245,422,c),
(245,482,o),
(278,524,o),
(327,524,cs),
(384,524,o),
(425,465,o),
(425,382,cs),
(425,80,l)
);
},
{
closed = 1;
nodes = (
(562,293,o),
(705,293,o),
(805,291,c),
(756,331,l),
(462,331,l),
(462,291,l)
);
}
);
};
layerId = m01;
shapes = (
{
closed = 1;
nodes = (
(820,-13,o),
(911,20,o),
(942,66,c),
(867,120,l),
(854,92,o),
(808,72,o),
(755,72,cs),
(645,72,o),
(590,167,o),
(590,301,cs),
(590,408,o),
(635,483,o),
(693,483,cs),
(763,483,o),
(805,387,o),
(795,252,c),
(795,253,l),
(965,249,l),
(975,428,o),
(871,558,o),
(689,558,cs),
(539,558,o),
(430,444,o),
(430,282,cs),
(430,109,o),
(544,-13,o),
(723,-13,cs)
);
},
{
closed = 1;
nodes = (
(464,-13,o),
(570,52,o),
(570,143,cs),
(570,234,o),
(464,298,o),
(310,298,cs),
(161,298,o),
(55,234,o),
(55,143,cs),
(55,52,o),
(161,-13,o),
(310,-13,cs)
);
},
{
closed = 1;
nodes = (
(266,62,o),
(225,99,o),
(225,152,cs),
(225,205,o),
(266,243,o),
(325,243,cs),
(384,243,o),
(430,205,o),
(430,152,cs),
(430,99,o),
(384,62,o),
(325,62,cs)
);
},
{
closed = 1;
nodes = (
(430,100,l),
(570,140,l),
(570,340,ls),
(570,468,o),
(466,556,o),
(314,556,cs),
(180,556,o),
(85,483,o),
(85,380,c),
(162,381,o),
(229,382,o),
(245,382,c),
(245,442,o),
(279,484,o),
(327,484,cs),
(384,484,o),
(430,425,o),
(430,342,cs),
(430,40,l)
);
},
{
closed = 1;
nodes = (
(671,253,o),
(841,251,o),
(965,249,c),
(916,331,l),
(547,331,l),
(547,251,l)
);
}
);
width = 998;
},
{
layerId = m002;
shapes = (
{
closed = 1;
nodes = (
(619,-13,o),
(688,20,o),
(719,66,c),
(664,100,l),
(646,60,o),
(602,32,o),
(559,32,cs),
(480,32,o),
(425,126,o),
(425,264,cs),
(425,390,o),
(471,483,o),
(537,483,cs),
(604,483,o),
(645,387,o),
(635,252,c),
(635,253,l),
(725,249,l),
(735,405,o),
(655,518,o),
(534,518,cs),
(423,518,o),
(345,409,o),
(345,257,cs),
(345,98,o),
(431,-13,o),
(553,-13,cs)
);
},
{
closed = 1;
nodes = (
(330,-13,o),
(405,52,o),
(405,143,cs),
(405,234,o),
(330,298,o),
(228,298,cs),
(125,298,o),
(55,234,o),
(55,143,cs),
(55,52,o),
(125,-13,o),
(228,-13,cs)
);
},
{
closed = 1;
nodes = (
(184,22,o),
(145,72,o),
(145,143,cs),
(145,213,o),
(184,263,o),
(243,263,cs),
(301,263,o),
(345,213,o),
(345,143,cs),
(345,72,o),
(301,22,o),
(243,22,cs)
);
},
{
closed = 1;
nodes = (
(345,100,l),
(405,140,l),
(405,340,ls),
(405,443,o),
(353,516,o),
(247,516,cs),
(154,516,o),
(85,460,o),
(85,380,c),
(120,381,o),
(153,382,o),
(165,382,c),
(165,442,o),
(198,484,o),
(247,484,cs),
(304,484,o),
(345,425,o),
(345,342,cs),
(345,40,l)
);
},
{
closed = 1;
nodes = (
(482,253,o),
(625,251,o),
(725,249,c),
(676,291,l),
(382,291,l),
(382,251,l)
);
}
);
width = 760;
}
);
unicode = 230;
},
{
glyphname = b;
kernLeft = h;
kernRight = o;
lastChange = "2026-02-07 20:18:56 +0000";
layers = (
{
anchors = (
{
name = bottom;
pos = (361,0);
},
{
name = center;
pos = (181,592);
},
{
name = top;
pos = (361,540);
}
);
background = {
shapes = (
{
closed = 1;
nodes = (
(196,513,o),
(139,418,o),
(139,247,cs),
(139,77,o),
(196,-18,o),
(328,-18,cs),
(460,-18,o),
(549,77,o),
(549,247,cs),
(549,418,o),
(460,513,o),
(328,513,cs)
);
},
{
closed = 1;
nodes = (
(402,478,o),
(459,396,o),
(459,248,cs),
(459,100,o),
(402,17,o),
(312,17,cs),
(222,17,o),
(179,100,o),
(179,248,cs),
(179,396,o),
(222,478,o),
(312,478,cs)
);
},
{
closed = 1;
nodes = (
(-1,660,l),
(99,660,l),
(99,40,l),
(-1,40,l),
(-1,0,l),
(59,2,o),
(119,2,o),
(179,0,c),
(179,700,l),
(119,698,o),
(59,698,o),
(-1,700,c)
);
}
);
};
layerId = m01;
shapes = (
{
closed = 1;
nodes = (
(86,3,o),
(194,3,o),
(270,0,c),
(270,780,l),
(165,778,o),
(115,778,o),
(10,780,c),
(10,700,l),
(110,700,l),
(110,80,l),
(10,80,l),
(10,0,l)
);
},
{
closed = 1;
nodes = (
(609,-18,o),
(720,100,o),
(720,267,cs),
(720,435,o),
(609,553,o),
(454,553,cs),
(299,553,o),
(190,435,o),
(190,267,cs),
(190,100,o),
(299,-18,o),
(454,-18,cs)
);
},
{
closed = 1;
nodes = (
(327,57,o),
(270,144,o),
(270,267,cs),
(270,391,o),
(327,478,o),
(409,478,cs),
(491,478,o),
(550,391,o),
(550,267,cs),
(550,144,o),
(491,57,o),
(409,57,cs)
);
}
);
width = 722;
},
{
anchors = (
{
name = bottom;
pos = (297,0);
},
{
name = center;
pos = (148,640);
},
{
name = top;
pos = (297,500);
}
);
layerId = m002;
shapes = (
{
closed = 1;
nodes = (
(59,2,o),
(119,2,o),
(179,0,c),
(179,700,l),
(119,698,o),
(59,698,o),
(-1,700,c),
(-1,660,l),
(99,660,l),
(99,40,l),
(-1,40,l),
(-1,0,l)
);
},
{
closed = 1;
nodes = (
(460,-18,o),
(549,77,o),
(549,247,cs),
(549,418,o),
(460,513,o),
(328,513,cs),
(196,513,o),
(139,418,o),
(139,247,cs),
(139,77,o),
(196,-18,o),
(328,-18,cs)
);
},
{
closed = 1;
nodes = (
(222,17,o),
(179,100,o),
(179,248,cs),
(179,396,o),
(222,478,o),
(312,478,cs),
(402,478,o),
(459,396,o),
(459,248,cs),
(459,100,o),
(402,17,o),
(312,17,cs)
);
}
);
width = 593;
}
);
unicode = 98;
},
{
glyphname = c;
kernLeft = o;
kernRight = c;
lastChange = "2026-02-07 21:17:30 +0000";
layers = (
{
anchors = (
{
name = bottom;
pos = (320,0);
},
{
name = top;
pos = (320,540);
}
);
background = {
shapes = (
{
closed = 1;
nodes = (
(369,-13,o),
(449,28,o),
(488,86,c),
(431,118,l),
(409,68,o),
(352,32,o),
(294,32,cs),
(200,32,o),
(134,123,o),
(134,252,cs),
(134,387,o),
(196,483,o),
(284,483,cs),
(362,483,o),
(417,432,o),
(417,361,cs),
(417,318,l),
(457,318,l),
(456,371,o),
(456,447,o),
(457,500,c),
(417,500,l),
(417,471,l),
(388,499,o),
(333,518,o),
(284,518,cs),
(143,518,o),
(44,408,o),
(44,252,cs),
(44,97,o),
(148,-13,o),
(294,-13,cs)
);
},
{
closed = 1;
nodes = (
(449,27,o),
(529,68,o),
(568,126,c),
(511,158,l),
(489,108,o),
(432,72,o),
(374,72,cs),
(280,72,o),
(214,163,o),
(214,292,cs),
(214,427,o),
(276,523,o),
(364,523,cs),
(442,523,o),
(497,472,o),
(497,401,cs),
(497,358,l),
(537,358,l),
(536,411,o),
(536,487,o),
(537,540,c),
(497,540,l),
(497,511,l),
(468,539,o),
(413,558,o),
(364,558,cs),
(223,558,o),
(124,448,o),
(124,292,cs),
(124,137,o),
(228,27,o),
(374,27,cs)
);
}
);
};
layerId = m01;
shapes = (
{
closed = 1;
nodes = (
(468,-13,o),
(569,28,o),
(608,86,c),
(511,158,l),
(489,108,o),
(427,72,o),
(367,72,cs),
(275,72,o),
(214,157,o),
(214,275,cs),
(214,398,o),
(260,483,o),
(357,483,cs),
(426,483,o),
(477,441,o),
(477,381,cs),
(477,318,l),
(577,318,l),
(576,383,o),
(576,475,o),
(577,540,c),
(477,540,l),
(477,511,l),
(448,539,o),
(386,558,o),
(318,558,cs),
(149,558,o),
(44,440,o),
(44,276,cs),
(44,106,o),
(177,-13,o),
(360,-13,cs)
);
}
);
width = 619;
},
{
anchors = (
{
name = bottom;
pos = (260,0);
},
{
name = top;
pos = (260,500);
}
);
background = {
shapes = (
{
closed = 1;
nodes = (
(504,251,l),
(504,252,o),
(504,252,o),
(504,252,cs),
(504,408,o),
(409,518,o),
(274,518,cs),
(139,518,o),
(44,408,o),
(44,252,cs),
(44,97,o),
(148,-13,o),
(294,-13,cs),
(369,-13,o),
(449,28,o),
(488,86,c),
(431,118,l),
(409,68,o),
(352,32,o),
(294,32,cs),
(200,32,o),
(134,123,o),
(134,252,cs),
(134,387,o),
(192,483,o),
(274,483,cs),
(356,483,o),
(414,387,o),
(414,252,cs),
(414,252,o),
(414,252,o),
(414,251,c)
);
},
{
closed = 1;
nodes = (
(91,251,l),
(455,251,l),
(455,291,l),
(91,291,l)
);
}
);
};
layerId = m002;
shapes = (
{
closed = 1;
nodes = (
(369,-13,o),
(449,28,o),
(488,86,c),
(431,118,l),
(409,68,o),
(352,32,o),
(294,32,cs),
(200,32,o),
(134,123,o),
(134,252,cs),
(134,387,o),
(196,483,o),
(284,483,cs),
(362,483,o),
(417,432,o),
(417,361,cs),
(417,318,l),
(457,318,l),
(456,371,o),
(456,447,o),
(457,500,c),
(417,500,l),
(417,471,l),
(388,499,o),
(333,518,o),
(284,518,cs),
(143,518,o),
(44,408,o),
(44,252,cs),
(44,97,o),
(148,-13,o),
(294,-13,cs)
);
}
);
width = 499;
}
);
unicode = 99;
},
{
glyphname = d;
kernLeft = o;
kernRight = l;
lastChange = "2026-02-07 20:18:56 +0000";
layers = (
{
anchors = (
{
name = bottom;
pos = (371,0);
},
{
name = center;
pos = (557,592);
},
{
name = top;
pos = (371,540);
},
{
name = topright;
pos = (732,740);
}
);
background = {
shapes = (
{
closed = 1;
nodes = (
(131,513,o),
(42,418,o),
(42,247,cs),
(42,77,o),
(131,-18,o),
(263,-18,cs),
(395,-18,o),
(452,77,o),
(452,247,cs),
(452,418,o),
(395,513,o),
(263,513,cs)
);
},
{
closed = 1;
nodes = (
(369,478,o),
(412,396,o),
(412,248,cs),
(412,100,o),
(369,17,o),
(279,17,cs),
(189,17,o),
(132,100,o),
(132,248,cs),
(132,396,o),
(189,478,o),
(279,478,cs)
);
},
{
closed = 1;
nodes = (
(432,698,o),
(372,698,o),
(312,700,c),
(312,660,l),
(412,660,l),
(412,0,l),
(472,2,o),
(532,2,o),
(592,0,c),
(592,40,l),
(492,40,l),
(492,700,l)
);
}
);
};
layerId = m01;
shapes = (
{
closed = 1;
nodes = (
(133,555,o),
(22,437,o),
(22,269,cs),
(22,102,o),
(133,-16,o),
(288,-16,cs),
(443,-16,o),
(552,102,o),
(552,269,cs),
(552,437,o),
(443,555,o),
(288,555,cs)
);
},
{
closed = 1;
nodes = (
(415,480,o),
(472,393,o),
(472,269,cs),
(472,146,o),
(415,59,o),
(333,59,cs),
(251,59,o),
(192,146,o),
(192,269,cs),
(192,393,o),
(251,480,o),
(333,480,cs)
);
},
{
closed = 1;
nodes = (
(527,780,o),
(477,780,o),
(372,782,c),
(372,702,l),
(472,702,l),
(472,2,l),
(548,5,o),
(656,5,o),
(732,2,c),
(732,82,l),
(632,82,l),
(632,782,l)
);
}
);
width = 742;
},
{
anchors = (
{
name = bottom;
pos = (302,0);
},
{
name = center;
pos = (453,640);
},
{
name = top;
pos = (302,500);
},
{
name = topright;
pos = (594,800);
}
);
layerId = m002;
shapes = (
{
closed = 1;
nodes = (
(133,513,o),
(44,418,o),
(44,247,cs),
(44,77,o),
(133,-18,o),
(265,-18,cs),
(397,-18,o),
(454,77,o),
(454,247,cs),
(454,418,o),
(397,513,o),
(265,513,cs)
);
},
{
closed = 1;
nodes = (
(371,478,o),
(414,396,o),
(414,248,cs),
(414,100,o),
(371,17,o),
(281,17,cs),
(191,17,o),
(134,100,o),
(134,248,cs),
(134,396,o),
(191,478,o),
(281,478,cs)
);
},
{
closed = 1;
nodes = (
(434,698,o),
(374,698,o),
(314,700,c),
(314,660,l),
(414,660,l),
(414,0,l),
(474,2,o),
(534,2,o),
(594,0,c),
(594,40,l),
(494,40,l),
(494,700,l)
);
}
);
width = 604;
}
);
unicode = 100;
},
{
color = 3;
glyphname = eth;
kernLeft = eth;
kernRight = eth;
lastChange = "2026-02-07 21:03:32 +0000";
layers = (
{
background = {
shapes = (
{
closed = 1;
nodes = (
(149,513,o),
(64,410,o),
(64,247,cs),
(64,84,o),
(149,-18,o),
(285,-18,cs),
(401,-18,o),
(484,84,o),
(484,247,cs),
(484,410,o),
(401,513,o),
(285,513,cs)
);
},
{
closed = 1;
nodes = (
(383,478,o),
(444,389,o),
(444,248,cs),
(444,106,o),
(383,17,o),
(301,17,cs),
(211,17,o),
(154,106,o),
(154,248,cs),
(154,389,o),
(211,478,o),
(301,478,cs)
);
},
{
closed = 1;
nodes = (
(423,-17,o),
(519,102,o),
(519,290,cs),
(519,542,o),
(419,713,o),
(291,713,c),
(272,681,l),
(363,681,o),
(437,533,o),
(437,278,cs),
(437,118,o),
(378,17,o),
(301,17,c),
(285,-18,l)
);
},
{
closed = 1;
nodes = (
(530,646,l),
(489,683,l),
(261,594,l),
(304,557,l)
);
},
{
closed = 1;
nodes = (
(229,553,o),
(144,450,o),
(144,287,cs),
(144,124,o),
(229,22,o),
(365,22,cs),
(481,22,o),
(564,124,o),
(564,287,cs),
(564,450,o),
(481,553,o),
(365,553,cs)
);
},
{
closed = 1;
nodes = (
(463,518,o),
(524,429,o),
(524,288,cs),
(524,146,o),
(463,57,o),
(381,57,cs),
(291,57,o),
(234,146,o),
(234,288,cs),
(234,429,o),
(291,518,o),
(381,518,cs)
);
},
{
closed = 1;
nodes = (
(503,23,o),
(599,142,o),
(599,330,cs),
(599,582,o),
(499,753,o),
(371,753,c),
(352,721,l),
(443,721,o),
(517,573,o),
(517,318,cs),
(517,158,o),
(458,57,o),
(381,57,c),
(365,22,l)
);
},
{
closed = 1;
nodes = (
(610,686,l),
(569,723,l),
(341,634,l),
(384,597,l)
);
}
);
};
layerId = m01;
shapes = (
{
closed = 1;
nodes = (
(189,513,o),
(64,403,o),
(64,247,cs),
(64,92,o),
(189,-18,o),
(365,-18,cs),
(482,-18,o),
(564,92,o),
(564,247,cs),
(564,403,o),
(482,513,o),
(365,513,cs)
);
},
{
closed = 1;
nodes = (
(465,438,o),
(524,359,o),
(524,248,cs),
(524,136,o),
(465,57,o),
(381,57,cs),
(295,57,o),
(234,136,o),
(234,248,cs),
(234,359,o),
(295,438,o),
(381,438,cs)
);
},
{
closed = 1;
nodes = (
(549,-17,o),
(679,127,o),
(679,330,cs),
(679,578,o),
(576,753,o),
(431,753,c),
(332,721,l),
(440,721,o),
(517,537,o),
(517,278,cs),
(517,149,o),
(461,57,o),
(381,57,c),
(365,-18,l)
);
},
{
closed = 1;
nodes = (
(690,646,l),
(649,723,l),
(341,634,l),
(384,557,l)
);
}
);
width = 724;
},
{
layerId = m002;
shapes = (
{
closed = 1;
nodes = (
(149,513,o),
(64,410,o),
(64,247,cs),
(64,84,o),
(149,-18,o),
(285,-18,cs),
(401,-18,o),
(484,84,o),
(484,247,cs),
(484,410,o),
(401,513,o),
(285,513,cs)
);
},
{
closed = 1;
nodes = (
(383,478,o),
(444,389,o),
(444,248,cs),
(444,106,o),
(383,17,o),
(301,17,cs),
(211,17,o),
(154,106,o),
(154,248,cs),
(154,389,o),
(211,478,o),
(301,478,cs)
);
},
{
closed = 1;
nodes = (
(423,-17,o),
(519,102,o),
(519,290,cs),
(519,542,o),
(419,713,o),
(291,713,c),
(272,681,l),
(363,681,o),
(437,533,o),
(437,278,cs),
(437,118,o),
(378,17,o),
(301,17,c),
(285,-18,l)
);
},
{
closed = 1;
nodes = (
(530,646,l),
(489,683,l),
(261,594,l),
(304,557,l)
);
}
);
width = 564;
}
);
unicode = 240;
},
{
glyphname = e;
kernLeft = o;
kernRight = e;
lastChange = "2026-02-07 20:18:56 +0000";
layers = (
{
anchors = (
{
name = bottom;
pos = (319,0);
},
{
name = ogonek;
pos = (573,10);
},
{
name = top;
pos = (319,540);
}
);
background = {
shapes = (
{
closed = 1;
nodes = (
(484,251,l),
(484,252,o),
(484,252,o),
(484,252,cs),
(484,408,o),
(389,518,o),
(254,518,cs),
(119,518,o),
(24,408,o),
(24,252,cs),
(24,97,o),
(128,-13,o),
(274,-13,cs),
(349,-13,o),
(429,28,o),
(468,86,c),
(413,120,l),
(391,70,o),
(332,32,o),
(274,32,cs),
(180,32,o),
(114,123,o),
(114,252,cs),
(114,387,o),
(172,483,o),
(254,483,cs),
(336,483,o),
(394,387,o),
(394,252,cs),
(394,252,o),
(394,254,o),
(394,253,c)
);
},
{
closed = 1;
nodes = (
(71,251,l),
(192,253,o),
(363,253,o),
(484,251,c),
(435,291,l),
(71,291,l)
);
},
{
closed = 1;
nodes = (
(564,291,l),
(564,292,o),
(564,292,o),
(564,292,cs),
(564,448,o),
(469,558,o),
(334,558,cs),
(199,558,o),
(104,448,o),
(104,292,cs),
(104,137,o),
(208,27,o),
(354,27,cs),
(429,27,o),
(509,68,o),
(548,126,c),
(493,160,l),
(471,110,o),
(412,72,o),
(354,72,cs),
(260,72,o),
(194,163,o),
(194,292,cs),
(194,427,o),
(252,523,o),
(334,523,cs),
(416,523,o),
(474,427,o),
(474,292,cs),
(474,292,o),
(474,294,o),
(474,293,c)
);
},
{
closed = 1;
nodes = (
(151,291,l),
(272,293,o),
(443,293,o),
(564,291,c),
(515,331,l),
(151,331,l)
);
}
);
};
layerId = m01;
shapes = (
{
closed = 1;
nodes = (
(604,251,l),
(604,251,o),
(604,253,o),
(605,256,cs),
(623,433,o),
(506,558,o),
(323,558,cs),
(148,558,o),
(24,437,o),
(24,267,cs),
(24,103,o),
(153,-13,o),
(336,-13,cs),
(445,-13,o),
(549,28,o),
(588,86,c),
(493,160,l),
(470,108,o),
(408,72,o),
(344,72,cs),
(256,72,o),
(194,154,o),
(194,271,cs),
(194,395,o),
(245,483,o),
(317,483,cs),
(396,483,o),
(445,387,o),
(435,251,cs),
(434,232,o),
(434,254,o),
(434,253,c)
);
},
{
closed = 1;
nodes = (
(111,251,l),
(267,253,o),
(471,253,o),
(604,251,c),
(515,331,l),
(111,331,l)
);
}
);
width = 637;
},
{
anchors = (
{
name = bottom;
pos = (269,0);
},
{
name = ogonek;
pos = (483,10);
},
{
name = top;
pos = (269,500);
}
);
background = {
shapes = (
{
closed = 1;
nodes = (
(440,-13,o),
(544,97,o),
(544,252,cs),
(544,408,o),
(440,518,o),
(294,518,cs),
(148,518,o),
(44,408,o),
(44,252,cs),
(44,97,o),
(148,-13,o),
(294,-13,cs)
);
},
{
closed = 1;
nodes = (
(200,22,o),
(134,117,o),
(134,252,cs),
(134,387,o),
(200,483,o),
(294,483,cs),
(388,483,o),
(454,387,o),
(454,252,cs),
(454,117,o),
(388,22,o),
(294,22,cs)
);
}
);
};
layerId = m002;
shapes = (
{
closed = 1;
nodes = (
(504,251,l),
(504,252,o),
(504,252,o),
(504,252,cs),
(504,408,o),
(409,518,o),
(274,518,cs),
(139,518,o),
(44,408,o),
(44,252,cs),
(44,97,o),
(148,-13,o),
(294,-13,cs),
(369,-13,o),
(449,28,o),
(488,86,c),
(433,120,l),
(411,70,o),
(352,32,o),
(294,32,cs),
(200,32,o),
(134,123,o),
(134,252,cs),
(134,387,o),
(192,483,o),
(274,483,cs),
(356,483,o),
(414,387,o),
(414,252,cs),
(414,252,o),
(414,254,o),
(414,253,c)
);
},
{
closed = 1;
nodes = (
(91,251,l),
(212,253,o),
(383,253,o),
(504,251,c),
(455,291,l),
(91,291,l)
);
}
);
width = 537;
}
);
unicode = 101;
},
{
glyphname = f;
kernLeft = f;
kernRight = f;
lastChange = "2026-02-08 08:33:49 +0000";
layers = (
{
anchors = (
{
name = bottom;
pos = (216,0);
},
{
name = top;
pos = (216,740);
}
);
background = {
shapes = (
{
closed = 1;
nodes = (
(111,2,o),
(201,2,o),
(291,0,c),
(291,40,l),
(201,40,l),
(201,500,ls),
(201,595,o),
(161,675,o),
(341,614,c),
(342,647,o),
(342,681,o),
(341,714,c),
(212,714,o),
(121,625,o),
(121,500,cs),
(121,40,l),
(21,40,l),
(21,0,l)
);
},
{
closed = 1;
nodes = (
(21,458,l),
(140,461,l),
(321,458,l),
(321,502,l),
(140,499,l),
(21,502,l)
);
},
{
closed = 1;
nodes = (
(191,42,o),
(281,42,o),
(371,40,c),
(371,80,l),
(281,80,l),
(281,540,ls),
(281,635,o),
(241,715,o),
(421,654,c),
(422,687,o),
(422,721,o),
(421,754,c),
(292,754,o),
(201,665,o),
(201,540,cs),
(201,80,l),
(101,80,l),
(101,40,l)
);
},
{
closed = 1;
nodes = (
(101,498,l),
(220,501,l),
(401,498,l),
(401,542,l),
(220,539,l),
(101,542,l)
);
}
);
};
layerId = m01;
shapes = (
{
closed = 1;
nodes = (
(111,2,o),
(281,2,o),
(371,0,c),
(371,80,l),
(281,80,l),
(281,500,ls),
(281,635,o),
(241,715,o),
(441,634,c),
(443,681,o),
(443,747,o),
(441,794,c),
(292,794,o),
(121,705,o),
(121,540,cs),
(121,80,l),
(21,80,l),
(21,0,l)
);
},
{
closed = 1;
nodes = (
(21,458,l),
(140,461,l),
(401,458,l),
(401,542,l),
(140,539,l),
(21,542,l)
);
}
);
width = 432;
},
{
anchors = (
{
name = bottom;
pos = (176,0);
},
{
name = top;
pos = (176,800);
}
);
background = {
shapes = (
{
closed = 1;
nodes = (
(141,558,o),
(224,654,o),
(341,614,c),
(341,714,l),
(212,714,o),
(121,605,o),
(121,450,c),
(141,450,l)
);
}
);
};
layerId = m002;
shapes = (
{
closed = 1;
nodes = (
(111,2,o),
(201,2,o),
(291,0,c),
(291,40,l),
(201,40,l),
(201,500,ls),
(201,595,o),
(161,675,o),
(341,614,c),
(342,647,o),
(342,681,o),
(341,714,c),
(212,714,o),
(121,625,o),
(121,500,cs),
(121,40,l),
(21,40,l),
(21,0,l)
);
},
{
closed = 1;
nodes = (
(21,458,l),
(140,461,l),
(321,458,l),
(321,502,l),
(140,499,l),
(21,502,l)
);
}
);
width = 352;
}
);
unicode = 102;
},
{
glyphname = g;
kernLeft = g;
kernRight = g;
lastChange = "2026-02-07 20:18:56 +0000";
layers = (
{
anchors = (
{
name = bottom;
pos = (358,-340);
},
{
name = top;
pos = (358,540);
}
);
background = {
shapes = (
{
closed = 1;
nodes = (
(397,-13,o),
(454,82,o),
(454,253,cs),
(454,423,o),
(397,518,o),
(265,518,cs),
(133,518,o),
(44,423,o),
(44,253,cs),
(44,82,o),
(133,-13,o),
(265,-13,cs)
);
},
{
closed = 1;
nodes = (
(191,22,o),
(134,104,o),
(134,252,cs),
(134,400,o),
(191,483,o),
(281,483,cs),
(371,483,o),
(414,400,o),
(414,252,cs),
(414,104,o),
(371,22,o),
(281,22,cs)
);
},
{
closed = 1;
nodes = (
(414,260,l),
(414,260,l),
(414,-42,ls),
(414,-125,o),
(352,-184,o),
(265,-184,cs),
(194,-184,o),
(144,-125,o),
(144,-41,c),
(64,-41,l),
(64,-143,o),
(147,-216,o),
(264,-216,cs),
(399,-216,o),
(494,-143,o),
(494,-40,cs),
(494,24,o),
(494,348,o),
(494,460,c),
(584,460,l),
(584,500,l),
(534,498,o),
(464,498,o),
(414,500,c)
);
},
{
closed = 1;
nodes = (
(477,27,o),
(534,122,o),
(534,293,cs),
(534,463,o),
(477,558,o),
(345,558,cs),
(213,558,o),
(124,463,o),
(124,293,cs),
(124,122,o),
(213,27,o),
(345,27,cs)
);
},
{
closed = 1;
nodes = (
(271,62,o),
(214,144,o),
(214,292,cs),
(214,440,o),
(271,523,o),
(361,523,cs),
(451,523,o),
(494,440,o),
(494,292,cs),
(494,144,o),
(451,62,o),
(361,62,cs)
);
},
{
closed = 1;
nodes = (
(494,300,l),
(494,300,l),
(494,-2,ls),
(494,-85,o),
(432,-144,o),
(345,-144,cs),
(274,-144,o),
(224,-85,o),
(224,-1,c),
(144,-1,l),
(144,-103,o),
(227,-176,o),
(344,-176,cs),
(479,-176,o),
(574,-103,o),
(574,0,cs),
(574,64,o),
(574,388,o),
(574,500,c),
(664,500,l),
(664,540,l),
(614,538,o),
(544,538,o),
(494,540,c)
);
}
);
};
layerId = m01;
shapes = (
{
closed = 1;
nodes = (
(479,-13,o),
(574,105,o),
(574,273,cs),
(574,440,o),
(479,558,o),
(324,558,cs),
(169,558,o),
(44,440,o),
(44,273,cs),
(44,105,o),
(169,-13,o),
(324,-13,cs)
);
},
{
closed = 1;
nodes = (
(275,62,o),
(214,149,o),
(214,273,cs),
(214,396,o),
(275,483,o),
(357,483,cs),
(439,483,o),
(494,396,o),
(494,273,cs),
(494,149,o),
(439,62,o),
(357,62,cs)
);
},
{
closed = 1;
nodes = (
(494,280,l),
(494,280,l),
(494,-42,ls),
(494,-102,o),
(432,-144,o),
(353,-144,cs),
(274,-144,o),
(224,-101,o),
(224,-41,c),
(64,-41,l),
(64,-143,o),
(180,-216,o),
(353,-216,cs),
(526,-216,o),
(654,-143,o),
(654,24,cs),
(654,24,o),
(654,348,o),
(654,460,c),
(744,460,l),
(744,540,l),
(703,538,o),
(600,538,o),
(494,540,c)
);
}
);
width = 715;
},
{
anchors = (
{
name = bottom;
pos = (288,-200);
},
{
name = top;
pos = (288,500);
}
);
background = {
shapes = (
{
closed = 1;
nodes = (
(594,-160,l),
(494,-160,l),
(494,460,l),
(594,460,l),
(594,500,l),
(414,500,l),
(414,-160,l),
(314,-160,l),
(314,-200,l),
(594,-200,l)
);
}
);
};
layerId = m002;
shapes = (
{
closed = 1;
nodes = (
(397,-13,o),
(454,82,o),
(454,253,cs),
(454,423,o),
(397,518,o),
(265,518,cs),
(133,518,o),
(44,423,o),
(44,253,cs),
(44,82,o),
(133,-13,o),
(265,-13,cs)
);
},
{
closed = 1;
nodes = (
(191,22,o),
(134,104,o),
(134,252,cs),
(134,400,o),
(191,483,o),
(281,483,cs),
(371,483,o),
(414,400,o),
(414,252,cs),
(414,104,o),
(371,22,o),
(281,22,cs)
);
},
{
closed = 1;
nodes = (
(414,260,l),
(414,260,l),
(414,-42,ls),
(414,-125,o),
(352,-184,o),
(265,-184,cs),
(194,-184,o),
(144,-125,o),
(144,-41,c),
(64,-41,l),
(64,-143,o),
(147,-216,o),
(264,-216,cs),
(399,-216,o),
(494,-143,o),
(494,-40,cs),
(494,24,o),
(494,348,o),
(494,460,c),
(584,460,l),
(584,500,l),
(534,498,o),
(464,498,o),
(414,500,c)
);
}
);
width = 575;
}
);
unicode = 103;
},
{
glyphname = h;
kernLeft = h;
kernRight = n;
lastChange = "2026-02-07 20:18:56 +0000";
layers = (
{
anchors = (
{
name = bottom;
pos = (390,0);
},
{
name = center;
pos = (195,592);
},
{
name = top;
pos = (390,740);
}
);
background = {
shapes = (
{
closed = 1;
nodes = (
(103,2,o),
(197,2,o),
(290,0,c),
(290,40,l),
(190,40,l),
(190,700,l),
(130,698,o),
(70,698,o),
(10,700,c),
(10,660,l),
(110,660,l),
(110,40,l),
(10,40,l),
(10,0,l)
);
},
{
closed = 1;
nodes = (
(417,2,o),
(503,2,o),
(590,0,c),
(590,40,l),
(510,40,l),
(510,152,o),
(510,276,o),
(510,340,cs),
(510,448,o),
(441,516,o),
(330,516,cs),
(219,516,o),
(150,448,o),
(150,340,c),
(190,342,l),
(190,429,o),
(237,484,o),
(311,484,cs),
(384,484,o),
(430,429,o),
(430,342,cs),
(430,40,l),
(330,40,l),
(330,0,l)
);
}
);
};
layerId = m01;
shapes = (
{
closed = 1;
nodes = (
(126,2,o),
(276,2,o),
(381,0,c),
(381,80,l),
(281,80,l),
(281,740,l),
(205,737,o),
(97,737,o),
(21,740,c),
(21,660,l),
(121,660,l),
(123,549,o),
(123,191,o),
(121,80,c),
(21,80,l),
(21,0,l)
);
},
{
closed = 1;
nodes = (
(521,2,o),
(661,2,o),
(761,0,c),
(761,80,l),
(681,80,l),
(681,192,o),
(681,316,o),
(681,380,cs),
(681,483,o),
(606,556,o),
(501,556,cs),
(349,556,o),
(241,467,o),
(241,340,c),
(281,342,l),
(281,402,o),
(331,444,o),
(402,444,cs),
(471,444,o),
(520,402,o),
(521,342,cs),
(523,265,o),
(523,157,o),
(521,80,c),
(421,80,l),
(421,0,l)
);
}
);
width = 779;
},
{
anchors = (
{
name = bottom;
pos = (300,0);
},
{
name = center;
pos = (150,640);
},
{
name = top;
pos = (300,800);
}
);
layerId = m002;
shapes = (
{
closed = 1;
nodes = (
(103,2,o),
(197,2,o),
(290,0,c),
(290,40,l),
(190,40,l),
(190,700,l),
(130,698,o),
(70,698,o),
(10,700,c),
(10,660,l),
(110,660,l),
(110,453,o),
(110,247,o),
(110,40,c),
(10,40,l),
(10,0,l)
);
},
{
closed = 1;
nodes = (
(417,2,o),
(503,2,o),
(590,0,c),
(590,40,l),
(510,40,l),
(510,152,o),
(510,276,o),
(510,340,cs),
(510,448,o),
(441,516,o),
(330,516,cs),
(219,516,o),
(150,448,o),
(150,340,c),
(190,342,l),
(190,429,o),
(237,484,o),
(311,484,cs),
(384,484,o),
(430,429,o),
(430,342,cs),
(430,241,o),
(430,141,o),
(430,40,c),
(330,40,l),
(330,0,l)
);
}
);
width = 600;
}
);
unicode = 104;
},
{
glyphname = i;
kernLeft = i;
kernRight = i;
lastChange = "2026-02-08 08:36:16 +0000";
layers = (
{
anchors = (
{
name = bottom;
pos = (196,0);
}
);
annotations = (
{
pos = (406.243,805.594);
type = Minus;
}
);
background = {
shapes = (
{
closed = 1;
nodes = (
(111,2,o),
(201,2,o),
(291,0,c),
(291,40,l),
(201,40,l),
(201,500,l),
(141,498,o),
(81,498,o),
(21,500,c),
(21,460,l),
(121,460,l),
(121,40,l),
(21,40,l),
(21,0,l)
);
},
{
closed = 1;
nodes = (
(182,629,o),
(207,654,o),
(234,677,c),
(207,700,o),
(182,725,o),
(159,752,c),
(136,725,o),
(111,700,o),
(84,677,c),
(111,654,o),
(136,629,o),
(159,602,c)
);
},
{
closed = 1;
nodes = (
(191,42,o),
(281,42,o),
(371,40,c),
(371,80,l),
(281,80,l),
(281,540,l),
(221,538,o),
(161,538,o),
(101,540,c),
(101,500,l),
(201,500,l),
(201,80,l),
(101,80,l),
(101,40,l)
);
},
{
closed = 1;
nodes = (
(262,669,o),
(287,694,o),
(314,717,c),
(287,740,o),
(262,765,o),
(239,792,c),
(216,765,o),
(191,740,o),
(164,717,c),
(191,694,o),
(216,669,o),
(239,642,c)
);
}
);
};
layerId = m01;
shapes = (
{
closed = 1;
nodes = (
(123,2,o),
(269,2,o),
(371,0,c),
(371,80,l),
(281,80,l),
(281,540,l),
(205,537,o),
(97,537,o),
(21,540,c),
(21,460,l),
(121,460,l),
(121,80,l),
(21,80,l),
(21,0,l)
);
},
{
closed = 1;
nodes = (
(194,631,o),
(243,672,o),
(320,737,c),
(275,775,o),
(225,817,o),
(199,837,c),
(173,817,o),
(123,775,o),
(78,737,c),
(155,672,o),
(204,631,o),
(199,637,c)
);
}
);
width = 391;
},
{
anchors = (
{
name = bottom;
pos = (156,0);
}
);
layerId = m002;
shapes = (
{
closed = 1;
nodes = (
(111,2,o),
(201,2,o),
(291,0,c),
(291,40,l),
(201,40,l),
(201,500,l),
(141,498,o),
(81,498,o),
(21,500,c),
(21,460,l),
(121,460,l),
(121,40,l),
(21,40,l),
(21,0,l)
);
},
{
closed = 1;
nodes = (
(182,629,o),
(207,654,o),
(234,677,c),
(207,700,o),
(182,725,o),
(159,752,c),
(136,725,o),
(111,700,o),
(84,677,c),
(111,654,o),
(136,629,o),
(159,602,c)
);
}
);
width = 311;
}
);
unicode = 105;
},
{
glyphname = idotless;
kernLeft = i;
kernRight = i;
lastChange = "2026-02-07 17:17:10 +0000";
layers = (
{
anchors = (
{
name = bottom;
pos = (156,0);
},
{
name = ogonek;
pos = (291,0);
},
{
name = top;
pos = (156,500);
}
);
layerId = m01;
shapes = (
{
closed = 1;
nodes = (
(123,2,o),
(269,2,o),
(371,0,c),
(371,80,l),
(281,80,l),
(281,540,l),
(205,537,o),
(97,537,o),
(21,540,c),
(21,460,l),
(121,460,l),
(121,80,l),
(21,80,l),
(21,0,l)
);
}
);
width = 391;
},
{
anchors = (
{
name = bottom;
pos = (156,0);
},
{
name = ogonek;
pos = (291,0);
},
{
name = top;
pos = (156,500);
}
);
layerId = m002;
shapes = (
{
closed = 1;
nodes = (
(111,2,o),
(201,2,o),
(291,0,c),
(291,40,l),
(201,40,l),
(201,500,l),
(141,498,o),
(81,498,o),
(21,500,c),
(21,460,l),
(121,460,l),
(121,40,l),
(21,40,l),
(21,0,l)
);
}
);
width = 311;
}
);
unicode = 305;
},
{
glyphname = j;
kernLeft = j;
kernRight = j;
lastChange = "2026-02-08 08:36:20 +0000";
layers = (
{
background = {
shapes = (
{
closed = 1;
nodes = (
(110,-68,o),
(96,-176,o),
(20,-183,c),
(20,-216,l),
(143,-216,o),
(190,-93,o),
(190,80,cs),
(190,500,l),
(130,498,o),
(70,498,o),
(10,500,c),
(10,460,l),
(110,460,l),
(110,78,ls)
);
},
{
closed = 1;
nodes = (
(172,629,o),
(197,654,o),
(224,677,c),
(197,700,o),
(172,725,o),
(149,752,c),
(126,725,o),
(101,700,o),
(74,677,c),
(101,654,o),
(126,629,o),
(149,602,c)
);
},
{
closed = 1;
nodes = (
(190,-28,o),
(176,-136,o),
(100,-143,c),
(100,-176,l),
(223,-176,o),
(270,-53,o),
(270,120,cs),
(270,540,l),
(210,538,o),
(150,538,o),
(90,540,c),
(90,500,l),
(190,500,l),
(190,118,ls)
);
},
{
closed = 1;
nodes = (
(252,669,o),
(277,694,o),
(304,717,c),
(277,740,o),
(252,765,o),
(229,792,c),
(206,765,o),
(181,740,o),
(154,717,c),
(181,694,o),
(206,669,o),
(229,642,c)
);
}
);
};
layerId = m01;
shapes = (
{
closed = 1;
nodes = (
(110,-70,o),
(73,-178,o),
(20,-183,c),
(20,-216,l),
(166,-216,o),
(270,-93,o),
(270,80,cs),
(270,540,l),
(194,537,o),
(86,537,o),
(10,540,c),
(10,460,l),
(110,460,l),
(110,78,ls)
);
},
{
closed = 1;
nodes = (
(184,631,o),
(233,672,o),
(310,737,c),
(233,802,o),
(184,843,o),
(189,837,c),
(194,843,o),
(145,802,o),
(68,737,c),
(145,672,o),
(194,631,o),
(189,637,c)
);
}
);
width = 369;
},
{
layerId = m002;
shapes = (
{
closed = 1;
nodes = (
(110,-68,o),
(96,-176,o),
(20,-183,c),
(20,-216,l),
(143,-216,o),
(190,-93,o),
(190,80,cs),
(190,500,l),
(130,498,o),
(70,498,o),
(10,500,c),
(10,460,l),
(110,460,l),
(110,78,ls)
);
},
{
closed = 1;
nodes = (
(172,629,o),
(197,654,o),
(224,677,c),
(197,700,o),
(172,725,o),
(149,752,c),
(126,725,o),
(101,700,o),
(74,677,c),
(101,654,o),
(126,629,o),
(149,602,c)
);
}
);
width = 289;
}
);
unicode = 106;
},
{
glyphname = jdotless;
kernLeft = j;
kernRight = j;
lastChange = "2026-02-07 17:17:35 +0000";
layers = (
{
anchors = (
{
name = bottom;
pos = (145,-200);
},
{
name = top;
pos = (145,500);
}
);
layerId = m01;
shapes = (
{
closed = 1;
nodes = (
(110,-70,o),
(73,-178,o),
(20,-183,c),
(20,-216,l),
(166,-216,o),
(270,-93,o),
(270,80,cs),
(270,540,l),
(194,537,o),
(86,537,o),
(10,540,c),
(10,460,l),
(110,460,l),
(110,78,ls)
);
}
);
width = 369;
},
{
anchors = (
{
name = bottom;
pos = (145,-200);
},
{
name = top;
pos = (145,500);
}
);
layerId = m002;
shapes = (
{
closed = 1;
nodes = (
(110,-68,o),
(96,-176,o),
(20,-183,c),
(20,-216,l),
(143,-216,o),
(190,-93,o),
(190,80,cs),
(190,500,l),
(130,498,o),
(70,498,o),
(10,500,c),
(10,460,l),
(110,460,l),
(110,78,ls)
);
}
);
width = 289;
}
);
unicode = 567;
},
{
glyphname = k;
kernLeft = h;
kernRight = k;
lastChange = "2026-02-08 08:34:25 +0000";
layers = (
{
anchors = (
{
name = bottom;
pos = (375,0);
},
{
name = top;
pos = (375,740);
}
);
background = {
shapes = (
{
closed = 1;
nodes = (
(103,-2,o),
(197,-2,o),
(290,0,c),
(290,40,l),
(190,40,l),
(190,700,l),
(130,698,o),
(70,698,o),
(10,700,c),
(10,660,l),
(110,660,l),
(110,40,l),
(10,40,l),
(10,0,l)
);
},
{
closed = 1;
nodes = (
(456,460,l),
(530,460,l),
(530,500,l),
(457,498,o),
(384,498,o),
(311,500,c),
(311,460,l),
(395,460,l),
(135,210,l),
(161,179,l)
);
},
{
closed = 1;
nodes = (
(443,2,o),
(517,2,o),
(590,0,c),
(590,40,l),
(536,40,l),
(287,338,l),
(229,282,l),
(432,40,l),
(370,40,l),
(370,0,l)
);
},
{
closed = 1;
nodes = (
(183,38,o),
(277,38,o),
(370,40,c),
(370,80,l),
(270,80,l),
(270,740,l),
(210,738,o),
(150,738,o),
(90,740,c),
(90,700,l),
(190,700,l),
(190,80,l),
(90,80,l),
(90,40,l)
);
},
{
closed = 1;
nodes = (
(536,500,l),
(610,500,l),
(610,540,l),
(537,538,o),
(464,538,o),
(391,540,c),
(391,500,l),
(475,500,l),
(215,250,l),
(241,219,l)
);
},
{
closed = 1;
nodes = (
(523,42,o),
(597,42,o),
(670,40,c),
(670,80,l),
(616,80,l),
(367,378,l),
(309,322,l),
(512,80,l),
(450,80,l),
(450,40,l)
);
}
);
};
layerId = m01;
shapes = (
{
closed = 1;
nodes = (
(115,-2,o),
(265,-2,o),
(370,0,c),
(370,80,l),
(270,80,l),
(270,740,l),
(194,737,o),
(86,737,o),
(10,740,c),
(10,660,l),
(110,660,l),
(110,80,l),
(10,80,l),
(10,0,l)
);
},
{
closed = 1;
nodes = (
(616,460,l),
(700,460,l),
(700,540,l),
(612,538,o),
(479,538,o),
(391,540,c),
(391,460,l),
(475,460,l),
(135,210,l),
(241,179,l)
);
},
{
closed = 1;
nodes = (
(538,2,o),
(662,2,o),
(750,0,c),
(750,80,l),
(696,80,l),
(407,338,l),
(309,282,l),
(512,80,l),
(450,80,l),
(450,0,l)
);
}
);
width = 750;
},
{
anchors = (
{
name = bottom;
pos = (295,0);
},
{
name = top;
pos = (295,800);
}
);
layerId = m002;
shapes = (
{
closed = 1;
nodes = (
(103,-2,o),
(197,-2,o),
(290,0,c),
(290,40,l),
(190,40,l),
(190,700,l),
(130,698,o),
(70,698,o),
(10,700,c),
(10,660,l),
(110,660,l),
(110,40,l),
(10,40,l),
(10,0,l)
);
},
{
closed = 1;
nodes = (
(456,460,l),
(530,460,l),
(530,500,l),
(457,498,o),
(384,498,o),
(311,500,c),
(311,460,l),
(395,460,l),
(135,210,l),
(161,179,l)
);
},
{
closed = 1;
nodes = (
(443,2,o),
(517,2,o),
(590,0,c),
(590,40,l),
(536,40,l),
(287,338,l),
(229,282,l),
(432,40,l),
(370,40,l),
(370,0,l)
);
}
);
width = 590;
}
);
unicode = 107;
},
{
glyphname = l;
kernLeft = h;
kernRight = l;
lastChange = "2026-02-07 20:18:56 +0000";
layers = (
{
anchors = (
{
name = bottom;
pos = (190,0);
},
{
name = center;
pos = (190,370);
},
{
name = top;
pos = (190,740);
},
{
name = topright;
pos = (360,740);
}
);
background = {
shapes = (
{
closed = 1;
nodes = (
(100,2,o),
(190,2,o),
(280,0,c),
(280,40,l),
(190,40,l),
(190,700,l),
(130,698,o),
(70,698,o),
(10,700,c),
(10,660,l),
(110,660,l),
(110,40,l),
(10,40,l),
(10,0,l)
);
},
{
closed = 1;
nodes = (
(180,42,o),
(270,42,o),
(360,40,c),
(360,80,l),
(270,80,l),
(270,740,l),
(210,738,o),
(150,738,o),
(90,740,c),
(90,700,l),
(190,700,l),
(190,80,l),
(90,80,l),
(90,40,l)
);
}
);
};
layerId = m01;
shapes = (
{
closed = 1;
nodes = (
(100,2,o),
(270,2,o),
(360,0,c),
(360,80,l),
(270,80,l),
(270,740,l),
(210,738,o),
(70,738,o),
(10,740,c),
(10,660,l),
(110,660,l),
(110,80,l),
(10,80,l),
(10,0,l)
);
}
);
width = 380;
},
{
anchors = (
{
name = bottom;
pos = (150,0);
},
{
name = center;
pos = (150,400);
},
{
name = top;
pos = (150,800);
},
{
name = topright;
pos = (280,800);
}
);
layerId = m002;
shapes = (
{
closed = 1;
nodes = (
(100,2,o),
(190,2,o),
(280,0,c),
(280,40,l),
(190,40,l),
(190,700,l),
(130,698,o),
(70,698,o),
(10,700,c),
(10,660,l),
(110,660,l),
(110,40,l),
(10,40,l),
(10,0,l)
);
}
);
width = 300;
}
);
unicode = 108;
},
{
glyphname = m;
kernLeft = n;
kernRight = n;
lastChange = "2026-02-07 20:18:56 +0000";
layers = (
{
anchors = (
{
name = bottom;
pos = (586,0);
},
{
name = top;
pos = (586,540);
}
);
background = {
shapes = (
{
closed = 1;
nodes = (
(114,2,o),
(208,2,o),
(301,0,c),
(301,40,l),
(201,40,l),
(201,500,l),
(141,498,o),
(81,498,o),
(21,500,c),
(21,460,l),
(121,460,l),
(121,40,l),
(21,40,l),
(21,0,l)
);
},
{
closed = 1;
nodes = (
(431,2,o),
(521,2,o),
(611,0,c),
(611,40,l),
(521,40,l),
(521,152,o),
(521,276,o),
(521,340,cs),
(521,448,o),
(452,516,o),
(341,516,cs),
(230,516,o),
(161,448,o),
(161,340,c),
(201,342,l),
(201,429,o),
(248,484,o),
(322,484,cs),
(395,484,o),
(441,429,o),
(441,342,cs),
(441,40,l),
(341,40,l),
(341,0,l)
);
},
{
closed = 1;
nodes = (
(748,2,o),
(834,2,o),
(921,0,c),
(921,40,l),
(841,40,l),
(841,152,o),
(841,276,o),
(841,340,cs),
(841,448,o),
(772,516,o),
(661,516,cs),
(550,516,o),
(481,448,o),
(481,340,c),
(521,342,l),
(521,429,o),
(568,484,o),
(642,484,cs),
(715,484,o),
(761,429,o),
(761,342,cs),
(761,40,l),
(661,40,l),
(661,0,l)
);
}
);
};
layerId = m01;
shapes = (
{
closed = 1;
nodes = (
(126,2,o),
(276,2,o),
(381,0,c),
(381,80,l),
(281,80,l),
(281,540,l),
(205,537,o),
(97,537,o),
(21,540,c),
(21,460,l),
(121,460,l),
(123,349,o),
(123,191,o),
(121,80,c),
(21,80,l),
(21,0,l)
);
},
{
closed = 1;
nodes = (
(521,2,o),
(681,2,o),
(781,0,c),
(781,80,l),
(681,80,l),
(681,192,o),
(681,316,o),
(681,380,cs),
(681,483,o),
(606,556,o),
(501,556,cs),
(349,556,o),
(241,467,o),
(241,340,c),
(281,342,l),
(281,402,o),
(331,444,o),
(402,444,cs),
(471,444,o),
(520,402,o),
(521,342,cs),
(523,265,o),
(523,157,o),
(521,80,c),
(421,80,l),
(421,0,l)
);
},
{
closed = 1;
nodes = (
(921,2,o),
(1061,2,o),
(1161,0,c),
(1161,80,l),
(1081,80,l),
(1081,192,o),
(1081,316,o),
(1081,380,cs),
(1081,483,o),
(1006,556,o),
(901,556,cs),
(749,556,o),
(641,467,o),
(641,340,c),
(681,342,l),
(681,402,o),
(731,444,o),
(802,444,cs),
(871,444,o),
(920,402,o),
(921,342,cs),
(923,265,o),
(923,157,o),
(921,80,c),
(821,80,l),
(821,0,l)
);
}
);
width = 1171;
},
{
anchors = (
{
name = bottom;
pos = (466,0);
},
{
name = top;
pos = (466,500);
}
);
layerId = m002;
shapes = (
{
closed = 1;
nodes = (
(114,2,o),
(208,2,o),
(301,0,c),
(301,40,l),
(201,40,l),
(201,500,l),
(141,498,o),
(81,498,o),
(21,500,c),
(21,460,l),
(121,460,l),
(121,320,o),
(121,180,o),
(121,40,c),
(21,40,l),
(21,0,l)
);
},
{
closed = 1;
nodes = (
(431,2,o),
(521,2,o),
(611,0,c),
(611,40,l),
(521,40,l),
(521,152,o),
(521,276,o),
(521,340,cs),
(521,448,o),
(452,516,o),
(341,516,cs),
(230,516,o),
(161,448,o),
(161,340,c),
(201,342,l),
(201,429,o),
(248,484,o),
(322,484,cs),
(395,484,o),
(441,429,o),
(441,342,cs),
(441,241,o),
(441,141,o),
(441,40,c),
(341,40,l),
(341,0,l)
);
},
{
closed = 1;
nodes = (
(748,2,o),
(834,2,o),
(921,0,c),
(921,40,l),
(841,40,l),
(841,152,o),
(841,276,o),
(841,340,cs),
(841,448,o),
(772,516,o),
(661,516,cs),
(550,516,o),
(481,448,o),
(481,340,c),
(521,342,l),
(521,429,o),
(568,484,o),
(642,484,cs),
(715,484,o),
(761,429,o),
(761,342,cs),
(761,241,o),
(761,141,o),
(761,40,c),
(661,40,l),
(661,0,l)
);
}
);
width = 931;
}
);
unicode = 109;
},
{
glyphname = n;
kernLeft = n;
kernRight = n;
lastChange = "2026-02-07 20:18:56 +0000";
layers = (
{
anchors = (
{
name = bottom;
pos = (390,0);
},
{
name = top;
pos = (390,540);
}
);
annotations = (
{
pos = (809.532,-177.422);
type = Minus;
}
);
background = {
shapes = (
{
closed = 1;
nodes = (
(114,2,o),
(208,2,o),
(301,0,c),
(301,40,l),
(201,40,l),
(201,500,l),
(141,498,o),
(81,498,o),
(21,500,c),
(21,460,l),
(121,460,l),
(123,320,o),
(123,180,o),
(121,40,c),
(21,40,l),
(21,0,l)
);
},
{
closed = 1;
nodes = (
(428,2,o),
(514,2,o),
(601,0,c),
(601,40,l),
(521,40,l),
(521,152,o),
(521,276,o),
(521,340,cs),
(521,448,o),
(452,516,o),
(341,516,cs),
(230,516,o),
(161,448,o),
(161,340,c),
(201,342,l),
(201,429,o),
(248,484,o),
(322,484,cs),
(395,484,o),
(439,429,o),
(441,342,cs),
(443,241,o),
(443,141,o),
(441,40,c),
(341,40,l),
(341,0,l)
);
},
{
closed = 1;
nodes = (
(194,42,o),
(288,42,o),
(381,40,c),
(381,80,l),
(281,80,l),
(281,540,l),
(221,538,o),
(161,538,o),
(101,540,c),
(101,500,l),
(201,500,l),
(203,360,o),
(203,220,o),
(201,80,c),
(101,80,l),
(101,40,l)
);
},
{
closed = 1;
nodes = (
(508,42,o),
(594,42,o),
(681,40,c),
(681,80,l),
(601,80,l),
(601,192,o),
(601,316,o),
(601,380,cs),
(601,488,o),
(532,556,o),
(421,556,cs),
(310,556,o),
(241,488,o),
(241,380,c),
(281,382,l),
(281,469,o),
(328,524,o),
(402,524,cs),
(475,524,o),
(519,469,o),
(521,382,cs),
(523,281,o),
(523,181,o),
(521,80,c),
(421,80,l),
(421,40,l)
);
}
);
};
layerId = m01;
shapes = (
{
closed = 1;
nodes = (
(126,2,o),
(276,2,o),
(381,0,c),
(381,80,l),
(281,80,l),
(281,540,l),
(205,537,o),
(97,537,o),
(21,540,c),
(21,460,l),
(121,460,l),
(123,349,o),
(123,191,o),
(121,80,c),
(21,80,l),
(21,0,l)
);
},
{
closed = 1;
nodes = (
(521,2,o),
(661,2,o),
(761,0,c),
(761,80,l),
(681,80,l),
(681,192,o),
(681,316,o),
(681,380,cs),
(681,483,o),
(606,556,o),
(501,556,cs),
(349,556,o),
(241,467,o),
(241,340,c),
(281,342,l),
(281,402,o),
(331,444,o),
(402,444,cs),
(471,444,o),
(520,402,o),
(521,342,cs),
(523,265,o),
(523,157,o),
(521,80,c),
(421,80,l),
(421,0,l)
);
}
);
width = 779;
},
{
anchors = (
{
name = bottom;
pos = (306,0);
},
{
name = top;
pos = (306,500);
}
);
annotations = (
{
pos = (809.532,-177.422);
type = Minus;
}
);
layerId = m002;
shapes = (
{
closed = 1;
nodes = (
(114,2,o),
(208,2,o),
(301,0,c),
(301,40,l),
(201,40,l),
(201,500,l),
(141,498,o),
(81,498,o),
(21,500,c),
(21,460,l),
(121,460,l),
(123,320,o),
(123,180,o),
(121,40,c),
(21,40,l),
(21,0,l)
);
},
{
closed = 1;
nodes = (
(428,2,o),
(514,2,o),
(601,0,c),
(601,40,l),
(521,40,l),
(521,152,o),
(521,276,o),
(521,340,cs),
(521,448,o),
(452,516,o),
(341,516,cs),
(230,516,o),
(161,448,o),
(161,340,c),
(201,342,l),
(201,429,o),
(248,484,o),
(322,484,cs),
(395,484,o),
(439,429,o),
(441,342,cs),
(443,241,o),
(443,141,o),
(441,40,c),
(341,40,l),
(341,0,l)
);
}
);
width = 611;
}
);
unicode = 110;
},
{
glyphname = o;
kernLeft = o;
kernRight = o;
lastChange = "2026-02-07 20:18:56 +0000";
layers = (
{
anchors = (
{
name = bottom;
pos = (352,0);
},
{
name = center;
pos = (352,270);
},
{
name = ogonek;
pos = (633,10);
},
{
name = top;
pos = (352,540);
},
{
name = topright;
pos = (683,540);
}
);
background = {
shapes = (
{
closed = 1;
nodes = (
(235,0,l),
(235,40,l),
(155,40,l),
(155,500,l),
(-5,500,l),
(-5,460,l),
(75,460,l),
(75,40,l),
(-5,40,l),
(-5,0,l)
);
},
{
closed = 1;
nodes = (
(555,0,l),
(555,40,l),
(475,40,l),
(475,152,o),
(475,276,o),
(475,340,cs),
(475,448,o),
(406,516,o),
(295,516,cs),
(184,516,o),
(115,448,o),
(115,340,c),
(155,342,l),
(155,429,o),
(202,484,o),
(276,484,cs),
(349,484,o),
(395,429,o),
(395,342,cs),
(395,40,l),
(315,40,l),
(315,0,l)
);
},
{
closed = 1;
nodes = (
(421,-13,o),
(525,97,o),
(525,252,cs),
(525,408,o),
(421,518,o),
(275,518,cs),
(129,518,o),
(25,408,o),
(25,252,cs),
(25,97,o),
(129,-13,o),
(275,-13,cs)
);
},
{
closed = 1;
nodes = (
(181,22,o),
(115,117,o),
(115,252,cs),
(115,387,o),
(181,483,o),
(275,483,cs),
(369,483,o),
(435,387,o),
(435,252,cs),
(435,117,o),
(369,22,o),
(275,22,cs)
);
},
{
closed = 1;
nodes = (
(501,27,o),
(605,137,o),
(605,292,cs),
(605,448,o),
(501,558,o),
(355,558,cs),
(209,558,o),
(105,448,o),
(105,292,cs),
(105,137,o),
(209,27,o),
(355,27,cs)
);
},
{
closed = 1;
nodes = (
(261,62,o),
(195,157,o),
(195,292,cs),
(195,427,o),
(261,523,o),
(355,523,cs),
(449,523,o),
(515,427,o),
(515,292,cs),
(515,157,o),
(449,62,o),
(355,62,cs)
);
}
);
};
layerId = m01;
shapes = (
{
closed = 1;
nodes = (
(544,-13,o),
(681,105,o),
(681,272,cs),
(681,440,o),
(544,558,o),
(351,558,cs),
(158,558,o),
(21,440,o),
(21,272,cs),
(21,105,o),
(158,-13,o),
(351,-13,cs)
);
},
{
closed = 1;
nodes = (
(257,62,o),
(191,149,o),
(191,272,cs),
(191,396,o),
(257,483,o),
(351,483,cs),
(445,483,o),
(511,396,o),
(511,272,cs),
(511,149,o),
(445,62,o),
(351,62,cs)
);
}
);
width = 703;
},
{
anchors = (
{
name = bottom;
pos = (294,0);
},
{
name = center;
pos = (294,250);
},
{
name = ogonek;
pos = (529,10);
},
{
name = top;
pos = (294,500);
},
{
name = topright;
pos = (568,500);
}
);
background = {
shapes = (
{
closed = 1;
nodes = (
(254,0,l),
(254,40,l),
(174,40,l),
(174,500,l),
(14,500,l),
(14,460,l),
(94,460,l),
(94,40,l),
(14,40,l),
(14,0,l)
);
},
{
closed = 1;
nodes = (
(574,0,l),
(574,40,l),
(494,40,l),
(494,152,o),
(494,276,o),
(494,340,cs),
(494,448,o),
(425,516,o),
(314,516,cs),
(203,516,o),
(134,448,o),
(134,340,c),
(174,342,l),
(174,429,o),
(221,484,o),
(295,484,cs),
(368,484,o),
(414,429,o),
(414,342,cs),
(414,40,l),
(334,40,l),
(334,0,l)
);
}
);
};
layerId = m002;
shapes = (
{
closed = 1;
nodes = (
(440,-13,o),
(544,97,o),
(544,252,cs),
(544,408,o),
(440,518,o),
(294,518,cs),
(148,518,o),
(44,408,o),
(44,252,cs),
(44,97,o),
(148,-13,o),
(294,-13,cs)
);
},
{
closed = 1;
nodes = (
(200,22,o),
(134,117,o),
(134,252,cs),
(134,387,o),
(200,483,o),
(294,483,cs),
(388,483,o),
(454,387,o),
(454,252,cs),
(454,117,o),
(388,22,o),
(294,22,cs)
);
}
);
width = 589;
}
);
unicode = 111;
},
{
color = 3;
glyphname = oslash;
kernLeft = o;
kernRight = o;
lastChange = "2026-02-07 21:02:03 +0000";
layers = (
{
layerId = m01;
shapes = (
{
ref = o;
},
{
closed = 1;
nodes = (
(40,-16,l),
(133,-36,l),
(656,540,l),
(563,560,l)
);
}
);
width = 703;
},
{
layerId = m002;
shapes = (
{
ref = o;
},
{
closed = 1;
nodes = (
(40,-16,l),
(93,-16,l),
(536,500,l),
(483,500,l)
);
}
);
width = 588;
}
);
unicode = 248;
},
{
color = 3;
glyphname = oe;
kernLeft = o;
kernRight = e;
lastChange = "2026-02-08 09:05:54 +0000";
layers = (
{
background = {
shapes = (
{
closed = 1;
nodes = (
(401,-13,o),
(494,97,o),
(494,253,cs),
(494,408,o),
(401,518,o),
(269,518,cs),
(137,518,o),
(44,408,o),
(44,253,cs),
(44,97,o),
(137,-13,o),
(269,-13,cs)
);
},
{
closed = 1;
nodes = (
(190,22,o),
(134,117,o),
(134,252,cs),
(134,387,o),
(190,483,o),
(269,483,cs),
(348,483,o),
(404,387,o),
(404,252,cs),
(404,117,o),
(348,22,o),
(269,22,cs)
);
},
{
closed = 1;
nodes = (
(698,-13,o),
(773,24,o),
(808,76,c),
(753,110,l),
(733,64,o),
(685,32,o),
(637,32,cs),
(553,32,o),
(494,128,o),
(494,265,cs),
(494,392,o),
(544,483,o),
(615,483,cs),
(688,483,o),
(734,387,o),
(724,252,c),
(724,253,l),
(814,251,l),
(814,252,ls),
(814,408,o),
(729,518,o),
(608,518,cs),
(489,518,o),
(404,410,o),
(404,258,cs),
(404,99,o),
(497,-13,o),
(625,-13,cs)
);
},
{
closed = 1;
nodes = (
(567,253,o),
(713,253,o),
(814,251,c),
(775,291,l),
(461,291,l),
(461,251,l)
);
},
{
closed = 1;
nodes = (
(481,27,o),
(574,137,o),
(574,293,cs),
(574,448,o),
(481,558,o),
(349,558,cs),
(217,558,o),
(124,448,o),
(124,293,cs),
(124,137,o),
(217,27,o),
(349,27,cs)
);
},
{
closed = 1;
nodes = (
(270,62,o),
(214,157,o),
(214,292,cs),
(214,427,o),
(270,523,o),
(349,523,cs),
(428,523,o),
(484,427,o),
(484,292,cs),
(484,157,o),
(428,62,o),
(349,62,cs)
);
},
{
closed = 1;
nodes = (
(778,27,o),
(853,64,o),
(888,116,c),
(833,150,l),
(813,104,o),
(765,72,o),
(717,72,cs),
(633,72,o),
(574,168,o),
(574,305,cs),
(574,432,o),
(624,523,o),
(695,523,cs),
(768,523,o),
(814,427,o),
(804,292,c),
(804,293,l),
(894,291,l),
(894,292,ls),
(894,448,o),
(809,558,o),
(688,558,cs),
(569,558,o),
(484,450,o),
(484,298,cs),
(484,139,o),
(577,27,o),
(705,27,cs)
);
},
{
closed = 1;
nodes = (
(647,293,o),
(793,293,o),
(894,291,c),
(855,331,l),
(541,331,l),
(541,291,l)
);
}
);
};
layerId = m01;
shapes = (
{
closed = 1;
nodes = (
(512,-13,o),
(638,102,o),
(638,265,cs),
(638,437,o),
(512,558,o),
(349,558,cs),
(170,558,o),
(44,437,o),
(44,265,cs),
(44,102,o),
(170,-13,o),
(349,-13,cs)
);
},
{
closed = 1;
nodes = (
(270,62,o),
(214,146,o),
(214,264,cs),
(214,392,o),
(270,483,o),
(349,483,cs),
(412,483,o),
(468,392,o),
(468,264,cs),
(468,146,o),
(412,62,o),
(349,62,cs)
);
},
{
closed = 1;
nodes = (
(895,-13,o),
(998,24,o),
(1033,76,c),
(978,150,l),
(958,104,o),
(889,72,o),
(812,72,cs),
(711,72,o),
(638,158,o),
(638,279,cs),
(638,398,o),
(704,483,o),
(775,483,cs),
(849,483,o),
(894,387,o),
(884,252,c),
(884,253,l),
(1054,251,l),
(1054,252,ls),
(1054,431,o),
(956,558,o),
(768,558,cs),
(586,558,o),
(468,439,o),
(468,270,cs),
(468,104,o),
(584,-13,o),
(785,-13,cs)
);
},
{
closed = 1;
nodes = (
(735,253,o),
(930,253,o),
(1054,251,c),
(1015,331,l),
(605,331,l),
(605,251,l)
);
}
);
width = 1087;
},
{
layerId = m002;
shapes = (
{
closed = 1;
nodes = (
(401,-13,o),
(494,97,o),
(494,253,cs),
(494,408,o),
(401,518,o),
(269,518,cs),
(137,518,o),
(44,408,o),
(44,253,cs),
(44,97,o),
(137,-13,o),
(269,-13,cs)
);
},
{
closed = 1;
nodes = (
(190,22,o),
(134,117,o),
(134,252,cs),
(134,387,o),
(190,483,o),
(269,483,cs),
(348,483,o),
(404,387,o),
(404,252,cs),
(404,117,o),
(348,22,o),
(269,22,cs)
);
},
{
closed = 1;
nodes = (
(698,-13,o),
(773,24,o),
(808,76,c),
(753,110,l),
(733,64,o),
(685,32,o),
(637,32,cs),
(553,32,o),
(494,128,o),
(494,265,cs),
(494,392,o),
(544,483,o),
(615,483,cs),
(688,483,o),
(734,387,o),
(724,252,c),
(724,253,l),
(814,251,l),
(814,252,ls),
(814,408,o),
(739,518,o),
(608,518,cs),
(489,518,o),
(404,410,o),
(404,258,cs),
(404,99,o),
(497,-13,o),
(625,-13,cs)
);
},
{
closed = 1;
nodes = (
(567,253,o),
(713,253,o),
(814,251,c),
(775,291,l),
(461,291,l),
(461,251,l)
);
}
);
width = 848;
}
);
unicode = 339;
},
{
glyphname = p;
kernLeft = p;
kernRight = o;
lastChange = "2026-02-07 20:18:56 +0000";
layers = (
{
anchors = (
{
name = bottom;
pos = (371,0);
},
{
name = top;
pos = (371,540);
}
);
background = {
shapes = (
{
closed = 1;
nodes = (
(471,-13,o),
(560,82,o),
(560,253,cs),
(560,423,o),
(471,518,o),
(339,518,cs),
(207,518,o),
(150,423,o),
(150,253,cs),
(150,82,o),
(207,-13,o),
(339,-13,cs)
);
},
{
closed = 1;
nodes = (
(233,22,o),
(190,104,o),
(190,252,cs),
(190,400,o),
(233,483,o),
(323,483,cs),
(413,483,o),
(470,400,o),
(470,252,cs),
(470,104,o),
(413,22,o),
(323,22,cs)
);
},
{
closed = 1;
nodes = (
(103,-198,o),
(197,-198,o),
(290,-200,c),
(290,-160,l),
(190,-160,l),
(190,500,l),
(130,498,o),
(70,498,o),
(10,500,c),
(10,460,l),
(110,460,l),
(110,-160,l),
(10,-160,l),
(10,-200,l)
);
},
{
closed = 1;
nodes = (
(551,27,o),
(640,122,o),
(640,293,cs),
(640,463,o),
(551,558,o),
(419,558,cs),
(287,558,o),
(230,463,o),
(230,293,cs),
(230,122,o),
(287,27,o),
(419,27,cs)
);
},
{
closed = 1;
nodes = (
(313,62,o),
(270,144,o),
(270,292,cs),
(270,440,o),
(313,523,o),
(403,523,cs),
(493,523,o),
(550,440,o),
(550,292,cs),
(550,144,o),
(493,62,o),
(403,62,cs)
);
},
{
closed = 1;
nodes = (
(183,-158,o),
(277,-158,o),
(370,-160,c),
(370,-120,l),
(270,-120,l),
(270,540,l),
(210,538,o),
(150,538,o),
(90,540,c),
(90,500,l),
(190,500,l),
(190,-120,l),
(90,-120,l),
(90,-160,l)
);
}
);
};
layerId = m01;
shapes = (
{
closed = 1;
nodes = (
(609,-13,o),
(720,105,o),
(720,273,cs),
(720,440,o),
(609,558,o),
(454,558,cs),
(299,558,o),
(190,440,o),
(190,273,cs),
(190,105,o),
(299,-13,o),
(454,-13,cs)
);
},
{
closed = 1;
nodes = (
(327,62,o),
(270,149,o),
(270,273,cs),
(270,396,o),
(327,483,o),
(409,483,cs),
(491,483,o),
(550,396,o),
(550,273,cs),
(550,149,o),
(491,62,o),
(409,62,cs)
);
},
{
closed = 1;
nodes = (
(115,-198,o),
(265,-198,o),
(370,-200,c),
(370,-120,l),
(270,-120,l),
(270,540,l),
(194,537,o),
(86,537,o),
(10,540,c),
(10,460,l),
(110,460,l),
(110,-120,l),
(10,-120,l),
(10,-200,l)
);
}
);
width = 742;
},
{
anchors = (
{
name = bottom;
pos = (302,0);
},
{
name = top;
pos = (302,500);
}
);
layerId = m002;
shapes = (
{
closed = 1;
nodes = (
(471,-13,o),
(560,82,o),
(560,253,cs),
(560,423,o),
(471,518,o),
(339,518,cs),
(207,518,o),
(150,423,o),
(150,253,cs),
(150,82,o),
(207,-13,o),
(339,-13,cs)
);
},
{
closed = 1;
nodes = (
(233,22,o),
(190,104,o),
(190,252,cs),
(190,400,o),
(233,483,o),
(323,483,cs),
(413,483,o),
(470,400,o),
(470,252,cs),
(470,104,o),
(413,22,o),
(323,22,cs)
);
},
{
closed = 1;
nodes = (
(103,-198,o),
(197,-198,o),
(290,-200,c),
(290,-160,l),
(190,-160,l),
(190,500,l),
(130,498,o),
(70,498,o),
(10,500,c),
(10,460,l),
(110,460,l),
(110,-160,l),
(10,-160,l),
(10,-200,l)
);
}
);
width = 604;
}
);
unicode = 112;
},
{
color = 3;
glyphname = thorn;
kernLeft = h;
kernRight = o;
lastChange = "2026-02-07 21:00:00 +0000";
layers = (
{
layerId = m01;
shapes = (
{
closed = 1;
nodes = (
(595,-13,o),
(720,97,o),
(720,265,cs),
(720,432,o),
(595,558,o),
(428,558,cs),
(261,558,o),
(150,432,o),
(150,265,cs),
(150,97,o),
(261,-13,o),
(428,-13,cs)
);
},
{
closed = 1;
nodes = (
(325,62,o),
(270,141,o),
(270,264,cs),
(270,387,o),
(325,483,o),
(407,483,cs),
(489,483,o),
(550,387,o),
(550,264,cs),
(550,141,o),
(489,62,o),
(407,62,cs)
);
},
{
closed = 1;
nodes = (
(115,-238,o),
(265,-238,o),
(370,-240,c),
(370,-160,l),
(270,-160,l),
(270,740,l),
(194,737,o),
(86,737,o),
(10,740,c),
(10,660,l),
(110,660,l),
(110,-160,l),
(10,-160,l),
(10,-240,l)
);
}
);
width = 764;
},
{
layerId = m002;
shapes = (
{
closed = 1;
nodes = (
(471,-13,o),
(560,82,o),
(560,253,cs),
(560,423,o),
(471,518,o),
(339,518,cs),
(207,518,o),
(150,423,o),
(150,253,cs),
(150,82,o),
(207,-13,o),
(339,-13,cs)
);
},
{
closed = 1;
nodes = (
(233,22,o),
(190,104,o),
(190,252,cs),
(190,400,o),
(233,483,o),
(323,483,cs),
(413,483,o),
(470,400,o),
(470,252,cs),
(470,104,o),
(413,22,o),
(323,22,cs)
);
},
{
closed = 1;
nodes = (
(103,-198,o),
(197,-198,o),
(290,-200,c),
(290,-160,l),
(190,-160,l),
(190,700,l),
(130,698,o),
(70,698,o),
(10,700,c),
(10,660,l),
(110,660,l),
(110,-160,l),
(10,-160,l),
(10,-200,l)
);
}
);
width = 604;
}
);
unicode = 254;
},
{
glyphname = q;
kernLeft = o;
kernRight = q;
lastChange = "2026-02-07 20:18:56 +0000";
layers = (
{
anchors = (
{
name = bottom;
pos = (371,0);
},
{
name = top;
pos = (371,540);
}
);
background = {
shapes = (
{
closed = 1;
nodes = (
(409,-13,o),
(466,82,o),
(466,253,cs),
(466,423,o),
(409,518,o),
(277,518,cs),
(145,518,o),
(56,423,o),
(56,253,cs),
(56,82,o),
(145,-13,o),
(277,-13,cs)
);
},
{
closed = 1;
nodes = (
(203,22,o),
(146,104,o),
(146,252,cs),
(146,400,o),
(203,483,o),
(293,483,cs),
(383,483,o),
(426,400,o),
(426,252,cs),
(426,104,o),
(383,22,o),
(293,22,cs)
);
},
{
closed = 1;
nodes = (
(606,-160,l),
(506,-160,l),
(506,460,l),
(606,460,l),
(606,500,l),
(546,498,o),
(486,498,o),
(426,500,c),
(426,-160,l),
(326,-160,l),
(326,-200,l),
(419,-198,o),
(513,-198,o),
(606,-200,c)
);
}
);
};
layerId = m01;
shapes = (
{
closed = 1;
nodes = (
(443,-13,o),
(552,105,o),
(552,273,cs),
(552,440,o),
(443,558,o),
(288,558,cs),
(133,558,o),
(22,440,o),
(22,273,cs),
(22,105,o),
(133,-13,o),
(288,-13,cs)
);
},
{
closed = 1;
nodes = (
(251,62,o),
(192,149,o),
(192,273,cs),
(192,396,o),
(251,483,o),
(333,483,cs),
(415,483,o),
(472,396,o),
(472,273,cs),
(472,149,o),
(415,62,o),
(333,62,cs)
);
},
{
closed = 1;
nodes = (
(732,-120,l),
(632,-120,l),
(632,460,l),
(732,460,l),
(732,540,l),
(656,537,o),
(548,537,o),
(472,540,c),
(472,-120,l),
(372,-120,l),
(372,-200,l),
(477,-198,o),
(627,-198,o),
(732,-200,c)
);
}
);
width = 742;
},
{
anchors = (
{
name = bottom;
pos = (297,0);
},
{
name = top;
pos = (297,500);
}
);
layerId = m002;
shapes = (
{
closed = 1;
nodes = (
(397,-13,o),
(454,82,o),
(454,253,cs),
(454,423,o),
(397,518,o),
(265,518,cs),
(133,518,o),
(44,423,o),
(44,253,cs),
(44,82,o),
(133,-13,o),
(265,-13,cs)
);
},
{
closed = 1;
nodes = (
(191,22,o),
(134,104,o),
(134,252,cs),
(134,400,o),
(191,483,o),
(281,483,cs),
(371,483,o),
(414,400,o),
(414,252,cs),
(414,104,o),
(371,22,o),
(281,22,cs)
);
},
{
closed = 1;
nodes = (
(594,-160,l),
(494,-160,l),
(494,460,l),
(594,460,l),
(594,500,l),
(534,498,o),
(474,498,o),
(414,500,c),
(414,-160,l),
(314,-160,l),
(314,-200,l),
(407,-198,o),
(501,-198,o),
(594,-200,c)
);
}
);
width = 593;
}
);
unicode = 113;
},
{
glyphname = r;
kernLeft = n;
kernRight = r;
lastChange = "2026-02-07 20:18:56 +0000";
layers = (
{
anchors = (
{
name = bottom;
pos = (256,0);
},
{
name = top;
pos = (256,540);
}
);
background = {
shapes = (
{
closed = 1;
nodes = (
(114,2,o),
(208,2,o),
(301,0,c),
(301,40,l),
(201,40,l),
(201,500,l),
(141,498,o),
(81,498,o),
(21,500,c),
(21,460,l),
(121,460,l),
(121,40,l),
(21,40,l),
(21,0,l)
);
},
{
closed = 1;
nodes = (
(201,360,o),
(264,456,o),
(381,432,c),
(381,516,l),
(252,516,o),
(181,407,o),
(181,252,c),
(201,252,l)
);
},
{
closed = 1;
nodes = (
(194,42,o),
(288,42,o),
(381,40,c),
(381,80,l),
(281,80,l),
(281,540,l),
(221,538,o),
(161,538,o),
(101,540,c),
(101,500,l),
(201,500,l),
(201,80,l),
(101,80,l),
(101,40,l)
);
},
{
closed = 1;
nodes = (
(281,400,o),
(344,496,o),
(461,472,c),
(461,556,l),
(332,556,o),
(261,447,o),
(261,292,c),
(281,292,l)
);
}
);
};
layerId = m01;
shapes = (
{
closed = 1;
nodes = (
(126,2,o),
(276,2,o),
(381,0,c),
(381,80,l),
(281,80,l),
(281,540,l),
(205,537,o),
(97,537,o),
(21,540,c),
(21,460,l),
(121,460,l),
(121,80,l),
(21,80,l),
(21,0,l)
);
},
{
closed = 1;
nodes = (
(281,331,o),
(356,414,o),
(501,392,c),
(501,556,l),
(320,556,o),
(261,358,o),
(261,192,c),
(281,192,l)
);
}
);
width = 511;
},
{
anchors = (
{
name = bottom;
pos = (201,0);
},
{
name = top;
pos = (201,500);
}
);
layerId = m002;
shapes = (
{
closed = 1;
nodes = (
(114,2,o),
(208,2,o),
(301,0,c),
(301,40,l),
(201,40,l),
(201,500,l),
(141,498,o),
(81,498,o),
(21,500,c),
(21,460,l),
(121,460,l),
(121,40,l),
(21,40,l),
(21,0,l)
);
},
{
closed = 1;
nodes = (
(201,360,o),
(264,456,o),
(381,432,c),
(381,516,l),
(252,516,o),
(181,407,o),
(181,252,c),
(201,252,l)
);
}
);
width = 401;
}
);
unicode = 114;
},
{
glyphname = s;
kernLeft = s;
kernRight = s;
lastChange = "2026-02-07 20:18:56 +0000";
layers = (
{
anchors = (
{
name = bottom;
pos = (274,0);
},
{
name = top;
pos = (274,540);
}
);
background = {
shapes = (
{
closed = 1;
nodes = (
(324,-16,o),
(394,44,o),
(394,129,cs),
(394,304,o),
(124,279,o),
(124,400,cs),
(124,447,o),
(165,476,o),
(230,476,cs),
(291,476,o),
(334,437,o),
(334,381,cs),
(334,338,l),
(374,338,l),
(372,385,o),
(372,453,o),
(374,500,c),
(334,500,l),
(334,449,l),
(355,446,l),
(329,487,o),
(271,516,o),
(216,516,cs),
(122,516,o),
(55,457,o),
(55,373,cs),
(55,205,o),
(325,231,o),
(325,102,cs),
(325,54,o),
(281,24,o),
(211,24,cs),
(146,24,o),
(94,70,o),
(94,128,cs),
(94,160,l),
(54,160,l),
(56,113,o),
(56,47,o),
(54,0,c),
(94,0,l),
(94,60,l),
(76,60,l),
(103,11,o),
(156,-16,o),
(225,-16,cs)
);
},
{
closed = 1;
nodes = (
(404,24,o),
(474,84,o),
(474,169,cs),
(474,344,o),
(204,319,o),
(204,440,cs),
(204,487,o),
(245,516,o),
(310,516,cs),
(371,516,o),
(414,477,o),
(414,421,cs),
(414,378,l),
(454,378,l),
(452,425,o),
(452,493,o),
(454,540,c),
(414,540,l),
(414,489,l),
(435,486,l),
(409,527,o),
(351,556,o),
(296,556,cs),
(202,556,o),
(135,497,o),
(135,413,cs),
(135,245,o),
(405,271,o),
(405,142,cs),
(405,94,o),
(361,64,o),
(291,64,cs),
(226,64,o),
(174,110,o),
(174,168,cs),
(174,200,l),
(134,200,l),
(136,153,o),
(136,87,o),
(134,40,c),
(174,40,l),
(174,100,l),
(156,100,l),
(183,51,o),
(236,24,o),
(305,24,cs)
);
}
);
};
layerId = m01;
shapes = (
{
closed = 1;
nodes = (
(429,-16,o),
(514,53,o),
(514,150,cs),
(514,345,o),
(184,319,o),
(184,420,cs),
(184,453,o),
(223,476,o),
(279,476,cs),
(346,476,o),
(394,432,o),
(394,371,cs),
(394,338,l),
(494,338,l),
(492,397,o),
(492,481,o),
(494,540,c),
(394,540,l),
(394,489,l),
(455,456,l),
(412,515,o),
(319,556,o),
(230,556,cs),
(116,556,o),
(35,490,o),
(35,396,cs),
(35,205,o),
(365,231,o),
(365,127,cs),
(365,90,o),
(321,64,o),
(260,64,cs),
(186,64,o),
(134,111,o),
(134,178,cs),
(134,220,l),
(34,220,l),
(36,156,o),
(36,64,o),
(34,0,c),
(134,0,l),
(134,60,l),
(76,90,l),
(116,28,o),
(212,-16,o),
(308,-16,cs)
);
}
);
width = 548;
},
{
anchors = (
{
name = bottom;
pos = (234,0);
},
{
name = top;
pos = (234,500);
}
);
background = {
shapes = (
{
closed = 1;
nodes = (
(130,516,o),
(64,459,o),
(64,371,cs),
(64,196,o),
(324,221,o),
(324,100,cs),
(324,52,o),
(282,24,o),
(228,24,cs),
(165,24,o),
(124,63,o),
(124,119,cs),
(124,162,l),
(84,162,l),
(86,108,o),
(86,54,o),
(84,0,c),
(124,0,l),
(124,51,l),
(103,54,l),
(129,13,o),
(179,-16,o),
(242,-16,cs),
(328,-16,o),
(403,37,o),
(403,127,cs),
(403,295,o),
(143,269,o),
(143,398,cs),
(143,444,o),
(176,476,o),
(237,476,cs),
(306,476,o),
(364,435,o),
(364,377,cs),
(364,340,l),
(404,340,l),
(402,393,o),
(402,447,o),
(404,500,c),
(364,500,l),
(364,440,l),
(382,440,l),
(357,485,o),
(291,516,o),
(223,516,cs)
);
}
);
};
layerId = m002;
shapes = (
{
closed = 1;
nodes = (
(344,-16,o),
(414,44,o),
(414,129,cs),
(414,304,o),
(144,279,o),
(144,400,cs),
(144,447,o),
(185,476,o),
(250,476,cs),
(311,476,o),
(354,437,o),
(354,381,cs),
(354,338,l),
(394,338,l),
(392,385,o),
(392,453,o),
(394,500,c),
(354,500,l),
(354,449,l),
(375,446,l),
(349,487,o),
(291,516,o),
(236,516,cs),
(142,516,o),
(75,457,o),
(75,373,cs),
(75,205,o),
(345,231,o),
(345,102,cs),
(345,54,o),
(301,24,o),
(231,24,cs),
(166,24,o),
(114,70,o),
(114,128,cs),
(114,160,l),
(74,160,l),
(76,113,o),
(76,47,o),
(74,0,c),
(114,0,l),
(114,60,l),
(96,60,l),
(123,11,o),
(176,-16,o),
(245,-16,cs)
);
}
);
width = 468;
}
);
unicode = 115;
},
{
glyphname = germandbls;
kernLeft = n;
kernRight = germandbls;
lastChange = "2026-02-05 19:47:26 +0000";
layers = (
{
anchors = (
{
name = bottom;
pos = (290,0);
},
{
name = top;
pos = (290,800);
}
);
background = {
shapes = (
{
closed = 1;
nodes = (
(280,0,l),
(280,167,o),
(280,452,o),
(280,501,cs),
(280,603,o),
(335,675,o),
(412,675,cs),
(464,675,o),
(500,627,o),
(500,560,cs),
(500,467,o),
(380,493,o),
(380,343,cs),
(380,205,o),
(575,211,o),
(575,103,cs),
(575,57,o),
(532,24,o),
(472,24,cs),
(414,24,o),
(388,64,o),
(408,120,c),
(360,120,l),
(359,40,o),
(410,-16,o),
(482,-16,cs),
(565,-16,o),
(624,44,o),
(624,130,cs),
(624,284,o),
(430,279,o),
(430,372,cs),
(430,482,o),
(580,431,o),
(580,570,cs),
(580,655,o),
(510,715,o),
(412,715,cs),
(292,715,o),
(200,626,o),
(200,501,c),
(102,501,l),
(102,458,l),
(201,458,l),
(201,41,l),
(101,41,l),
(101,0,l)
);
},
{
closed = 1;
nodes = (
(360,40,l),
(360,207,o),
(360,492,o),
(360,541,cs),
(360,643,o),
(415,715,o),
(492,715,cs),
(544,715,o),
(580,667,o),
(580,600,cs),
(580,507,o),
(460,533,o),
(460,383,cs),
(460,245,o),
(655,251,o),
(655,143,cs),
(655,97,o),
(612,64,o),
(552,64,cs),
(494,64,o),
(468,104,o),
(488,160,c),
(440,160,l),
(439,80,o),
(490,24,o),
(562,24,cs),
(645,24,o),
(704,84,o),
(704,170,cs),
(704,324,o),
(510,319,o),
(510,412,cs),
(510,522,o),
(660,471,o),
(660,610,cs),
(660,695,o),
(590,755,o),
(492,755,cs),
(372,755,o),
(280,666,o),
(280,541,c),
(182,541,l),
(182,498,l),
(281,498,l),
(281,81,l),
(181,81,l),
(181,40,l)
);
}
);
};
layerId = m01;
shapes = (
{
closed = 1;
nodes = (
(280,0,l),
(280,167,o),
(280,452,o),
(280,501,cs),
(280,603,o),
(335,675,o),
(412,675,cs),
(464,675,o),
(500,627,o),
(500,560,cs),
(500,467,o),
(380,493,o),
(380,343,cs),
(380,205,o),
(575,211,o),
(575,103,cs),
(575,80,o),
(549,64,o),
(512,64,cs),
(475,64,o),
(448,104,o),
(448,160,c),
(360,160,l),
(359,57,o),
(426,-16,o),
(522,-16,cs),
(629,-16,o),
(704,61,o),
(704,170,cs),
(704,324,o),
(510,319,o),
(510,412,cs),
(510,522,o),
(660,471,o),
(660,610,cs),
(660,695,o),
(575,755,o),
(454,755,cs),
(258,755,o),
(120,650,o),
(120,501,c),
(22,501,l),
(22,418,l),
(121,418,l),
(121,81,l),
(21,81,l),
(21,0,l)
);
}
);
width = 720;
},
{
anchors = (
{
name = bottom;
pos = (290,0);
},
{
name = top;
pos = (290,800);
}
);
background = {
shapes = (
{
closed = 1;
nodes = (
(111,2,o),
(201,2,o),
(291,0,c),
(291,40,l),
(201,40,l),
(201,500,ls),
(201,595,o),
(161,675,o),
(341,614,c),
(342,647,o),
(342,681,o),
(341,714,c),
(212,714,o),
(121,625,o),
(121,500,cs),
(121,40,l),
(21,40,l),
(21,0,l)
);
},
{
closed = 1;
nodes = (
(21,458,l),
(140,461,l),
(321,458,l),
(321,502,l),
(140,499,l),
(21,502,l)
);
},
{
closed = 1;
nodes = (
(474,-16,o),
(524,44,o),
(524,129,cs),
(524,304,o),
(330,279,o),
(330,400,cs),
(330,447,o),
(359,476,o),
(406,476,cs),
(450,476,o),
(481,437,o),
(481,381,cs),
(481,338,l),
(510,338,l),
(508,385,o),
(508,453,o),
(510,500,c),
(481,500,l),
(481,449,l),
(496,446,l),
(477,487,o),
(436,516,o),
(396,516,cs),
(328,516,o),
(280,457,o),
(280,373,cs),
(280,205,o),
(475,231,o),
(475,102,cs),
(475,54,o),
(443,24,o),
(392,24,cs),
(345,24,o),
(308,70,o),
(308,128,cs),
(308,160,l),
(279,160,l),
(280,113,o),
(280,47,o),
(279,0,c),
(308,0,l),
(308,60,l),
(295,60,l),
(314,11,o),
(353,-16,o),
(402,-16,cs)
);
}
);
};
layerId = m002;
shapes = (
{
closed = 1;
nodes = (
(200,0,l),
(200,167,o),
(200,452,o),
(200,501,cs),
(200,603,o),
(255,675,o),
(332,675,cs),
(384,675,o),
(420,627,o),
(420,560,cs),
(420,467,o),
(300,493,o),
(300,343,cs),
(300,205,o),
(495,211,o),
(495,103,cs),
(495,57,o),
(452,24,o),
(392,24,cs),
(334,24,o),
(308,64,o),
(328,120,c),
(280,120,l),
(279,40,o),
(330,-16,o),
(402,-16,cs),
(485,-16,o),
(544,44,o),
(544,130,cs),
(544,284,o),
(350,279,o),
(350,372,cs),
(350,482,o),
(500,431,o),
(500,570,cs),
(500,655,o),
(430,715,o),
(332,715,cs),
(212,715,o),
(120,626,o),
(120,501,c),
(22,501,l),
(22,458,l),
(121,458,l),
(121,41,l),
(21,41,l),
(21,0,l)
);
}
);
width = 600;
}
);
unicode = 223;
},
{
glyphname = t;
kernLeft = t;
kernRight = t;
lastChange = "2026-02-07 20:18:56 +0000";
layers = (
{
anchors = (
{
name = bottom;
pos = (208,0);
},
{
name = center;
pos = (208,270);
},
{
name = top;
pos = (208,672);
},
{
name = topright;
pos = (395,740);
}
);
background = {
shapes = (
{
closed = 1;
nodes = (
(236,-15,o),
(290,9,o),
(320,43,c),
(299,72,l),
(281,54,o),
(251,41,o),
(228,41,cs),
(198,41,o),
(179,64,o),
(179,97,cs),
(179,612,l),
(152,607,o),
(126,601,o),
(99,592,c),
(99,408,o),
(99,103,o),
(99,80,cs),
(99,24,o),
(137,-15,o),
(190,-15,cs)
);
},
{
closed = 1;
nodes = (
(116,461,l),
(319,458,l),
(319,502,l),
(116,499,l),
(-1,502,l),
(-1,458,l)
);
},
{
closed = 1;
nodes = (
(316,25,o),
(370,49,o),
(400,83,c),
(379,112,l),
(361,94,o),
(331,81,o),
(308,81,cs),
(278,81,o),
(259,104,o),
(259,137,cs),
(259,652,l),
(232,647,o),
(206,641,o),
(179,632,c),
(179,448,o),
(179,143,o),
(179,120,cs),
(179,64,o),
(217,25,o),
(270,25,cs)
);
},
{
closed = 1;
nodes = (
(196,501,l),
(399,498,l),
(399,542,l),
(196,539,l),
(79,542,l),
(79,498,l)
);
},
{
closed = 1;
nodes = (
(236,-15,o),
(290,9,o),
(320,43,c),
(299,72,l),
(281,54,o),
(251,41,o),
(228,41,cs),
(198,41,o),
(179,64,o),
(179,97,cs),
(179,612,l),
(152,607,o),
(126,601,o),
(99,592,c),
(99,408,o),
(99,103,o),
(99,80,cs),
(99,24,o),
(137,-15,o),
(190,-15,cs)
);
},
{
closed = 1;
nodes = (
(116,461,l),
(319,458,l),
(319,502,l),
(116,499,l),
(-1,502,l),
(-1,458,l)
);
}
);
};
layerId = m01;
shapes = (
{
closed = 1;
nodes = (
(298,-15,o),
(385,13,o),
(420,53,c),
(379,112,l),
(361,94,o),
(331,81,o),
(309,81,cs),
(279,81,o),
(259,104,o),
(259,137,cs),
(259,672,l),
(127,648,o),
(61,639,o),
(99,652,c),
(99,468,o),
(99,103,o),
(99,80,cs),
(99,24,o),
(145,-15,o),
(210,-15,cs)
);
},
{
closed = 1;
nodes = (
(116,461,l),
(399,458,l),
(399,542,l),
(116,539,l),
(-1,542,l),
(-1,458,l)
);
}
);
width = 415;
},
{
anchors = (
{
name = bottom;
pos = (178,0);
},
{
name = center;
pos = (178,250);
},
{
name = top;
pos = (178,612);
},
{
name = topright;
pos = (335,800);
}
);
background = {
shapes = (
{
closed = 1;
nodes = (
(289,0,l),
(289,40,l),
(199,40,l),
(199,500,ls),
(199,631,o),
(200,676,o),
(255,676,cs),
(305,676,o),
(359,640,o),
(359,561,cs),
(359,540,l),
(399,540,l),
(399,700,l),
(358,700,l),
(358,629,l),
(375,643,l),
(356,689,o),
(303,716,o),
(253,716,cs),
(179,716,o),
(119,655,o),
(119,500,cs),
(119,40,l),
(19,40,l),
(19,0,l)
);
},
{
closed = 1;
nodes = (
(19,460,l),
(299,460,l),
(299,500,l),
(19,500,l)
);
}
);
};
layerId = m002;
shapes = (
{
closed = 1;
nodes = (
(256,-15,o),
(310,9,o),
(340,43,c),
(319,72,l),
(301,54,o),
(271,41,o),
(248,41,cs),
(218,41,o),
(199,64,o),
(199,97,cs),
(199,612,l),
(172,607,o),
(146,601,o),
(119,592,c),
(119,408,o),
(119,103,o),
(119,80,cs),
(119,24,o),
(157,-15,o),
(210,-15,cs)
);
},
{
closed = 1;
nodes = (
(136,461,l),
(339,458,l),
(339,502,l),
(136,499,l),
(19,502,l),
(19,458,l)
);
}
);
width = 355;
}
);
unicode = 116;
},
{
glyphname = u;
kernLeft = u;
kernRight = u;
lastChange = "2026-02-08 08:36:56 +0000";
layers = (
{
anchors = (
{
name = bottom;
pos = (376,0);
},
{
name = ogonek;
pos = (676,10);
},
{
name = top;
pos = (376,540);
},
{
name = topright;
pos = (731,540);
}
);
background = {
shapes = (
{
closed = 1;
nodes = (
(430,498,o),
(370,498,o),
(310,500,c),
(310,460,l),
(410,460,l),
(410,0,l),
(467,2,o),
(523,2,o),
(580,0,c),
(580,40,l),
(490,40,l),
(490,460,l),
(490,460,l),
(490,500,l)
);
},
{
closed = 1;
nodes = (
(113,498,o),
(57,498,o),
(0,500,c),
(0,460,l),
(90,460,l),
(90,348,o),
(90,224,o),
(90,160,cs),
(90,57,o),
(165,-16,o),
(270,-16,cs),
(381,-16,o),
(450,52,o),
(450,160,c),
(410,158,l),
(410,71,o),
(373,26,o),
(299,26,cs),
(223,26,o),
(170,81,o),
(170,158,cs),
(170,460,l),
(170,460,l),
(170,500,l)
);
},
{
closed = 1;
nodes = (
(510,538,o),
(450,538,o),
(390,540,c),
(390,500,l),
(490,500,l),
(490,40,l),
(547,42,o),
(603,42,o),
(660,40,c),
(660,80,l),
(570,80,l),
(570,500,l),
(570,500,l),
(570,540,l)
);
},
{
closed = 1;
nodes = (
(193,538,o),
(137,538,o),
(80,540,c),
(80,500,l),
(170,500,l),
(170,388,o),
(170,264,o),
(170,200,cs),
(170,97,o),
(245,24,o),
(350,24,cs),
(461,24,o),
(530,92,o),
(530,200,c),
(490,198,l),
(490,111,o),
(453,66,o),
(379,66,cs),
(303,66,o),
(250,121,o),
(250,198,cs),
(250,500,l),
(250,500,l),
(250,540,l)
);
}
);
};
layerId = m01;
shapes = (
{
closed = 1;
nodes = (
(574,537,o),
(466,537,o),
(390,540,c),
(390,460,l),
(490,460,l),
(490,114,l),
(500,100,l),
(500,0,l),
(603,2,o),
(697,2,o),
(740,0,c),
(740,80,l),
(650,80,l),
(650,460,l),
(650,460,l),
(650,540,l)
);
},
{
closed = 1;
nodes = (
(177,537,o),
(73,537,o),
(0,540,c),
(0,460,l),
(90,460,l),
(90,348,o),
(90,224,o),
(90,160,cs),
(90,57,o),
(181,-16,o),
(310,-16,cs),
(451,-16,o),
(550,73,o),
(550,200,c),
(490,198,l),
(490,121,o),
(439,66,o),
(369,66,cs),
(298,66,o),
(250,121,o),
(250,198,cs),
(250,460,l),
(250,460,l),
(250,540,l)
);
}
);
width = 751;
},
{
anchors = (
{
name = bottom;
pos = (306,0);
},
{
name = ogonek;
pos = (550,10);
},
{
name = top;
pos = (306,500);
},
{
name = topright;
pos = (591,500);
}
);
layerId = m002;
shapes = (
{
closed = 1;
nodes = (
(450,498,o),
(390,498,o),
(330,500,c),
(330,460,l),
(430,460,l),
(430,95,l),
(435,79,l),
(435,0,l),
(492,2,o),
(543,2,o),
(600,0,c),
(600,40,l),
(510,40,l),
(510,460,l),
(510,460,l),
(510,500,l)
);
},
{
closed = 1;
nodes = (
(133,498,o),
(77,498,o),
(20,500,c),
(20,460,l),
(110,460,l),
(110,348,o),
(110,224,o),
(110,160,cs),
(110,57,o),
(185,-16,o),
(290,-16,cs),
(401,-16,o),
(470,52,o),
(470,160,c),
(430,158,l),
(430,71,o),
(393,26,o),
(319,26,cs),
(243,26,o),
(190,81,o),
(190,158,cs),
(190,460,l),
(190,460,l),
(190,500,l)
);
}
);
width = 611;
}
);
unicode = 117;
},
{
glyphname = v;
kernLeft = v;
kernRight = v;
lastChange = "2026-02-08 08:40:14 +0000";
layers = (
{
anchors = (
{
name = bottom;
pos = (350,0);
},
{
name = top;
pos = (350,540);
}
);
background = {
shapes = (
{
closed = 1;
nodes = (
(463,460,l),
(540,460,l),
(540,500,l),
(474,498,o),
(407,498,o),
(341,500,c),
(341,460,l),
(419,460,l),
(257,77,l),
(260,-16,l)
);
},
{
closed = 1;
nodes = (
(147,498,o),
(73,498,o),
(0,500,c),
(0,460,l),
(72,460,l),
(260,-16,l),
(297,107,l),
(158,460,l),
(220,460,l),
(220,500,l)
);
},
{
closed = 1;
nodes = (
(543,500,l),
(620,500,l),
(620,540,l),
(554,538,o),
(487,538,o),
(421,540,c),
(421,500,l),
(499,500,l),
(337,117,l),
(340,24,l)
);
},
{
closed = 1;
nodes = (
(227,538,o),
(153,538,o),
(80,540,c),
(80,500,l),
(152,500,l),
(340,24,l),
(377,147,l),
(238,500,l),
(300,500,l),
(300,540,l)
);
}
);
};
layerId = m01;
shapes = (
{
closed = 1;
nodes = (
(623,460,l),
(700,460,l),
(700,540,l),
(634,538,o),
(491,538,o),
(425,540,c),
(425,460,l),
(499,460,l),
(290,0,l),
(405,0,l)
);
},
{
closed = 1;
nodes = (
(231,538,o),
(83,538,o),
(10,540,c),
(10,460,l),
(72,460,l),
(290,0,l),
(397,113,l),
(238,460,l),
(304,460,l),
(304,540,l)
);
}
);
width = 700;
},
{
anchors = (
{
name = bottom;
pos = (270,0);
},
{
name = top;
pos = (270,500);
}
);
background = {
shapes = (
{
closed = 1;
nodes = (
(506,460,l),
(580,460,l),
(580,500,l),
(361,500,l),
(361,460,l),
(445,460,l),
(185,32,l),
(211,1,l)
);
},
{
closed = 1;
nodes = (
(0,500,l),
(0,460,l),
(54,460,l),
(303,-16,l),
(361,40,l),
(158,460,l),
(220,460,l),
(220,500,l)
);
},
{
closed = 1;
nodes = (
(300,500,l),
(300,460,l),
(400,460,l),
(400,0,l),
(570,0,l),
(570,40,l),
(480,40,l),
(480,460,l),
(480,460,l),
(480,500,l)
);
},
{
closed = 1;
nodes = (
(-10,500,l),
(-10,460,l),
(80,460,l),
(80,348,o),
(80,224,o),
(80,160,cs),
(80,52,o),
(149,-16,o),
(260,-16,cs),
(371,-16,o),
(440,52,o),
(440,160,c),
(400,158,l),
(400,71,o),
(353,16,o),
(279,16,cs),
(206,16,o),
(160,71,o),
(160,158,cs),
(160,460,l),
(160,460,l),
(160,500,l)
);
}
);
};
layerId = m002;
shapes = (
{
closed = 1;
nodes = (
(463,460,l),
(540,460,l),
(540,500,l),
(474,498,o),
(409,498,o),
(343,500,c),
(343,460,l),
(419,460,l),
(247,-16,l),
(294,0,l)
);
},
{
closed = 1;
nodes = (
(149,498,o),
(73,498,o),
(0,500,c),
(0,460,l),
(72,460,l),
(250,-16,l),
(303,77,l),
(158,460,l),
(222,460,l),
(222,500,l)
);
}
);
width = 540;
}
);
unicode = 118;
},
{
glyphname = w;
kernLeft = w;
kernRight = w;
lastChange = "2026-02-08 08:39:57 +0000";
layers = (
{
anchors = (
{
name = bottom;
pos = (530,0);
},
{
name = top;
pos = (530,540);
}
);
background = {
shapes = (
{
closed = 1;
nodes = (
(963,460,l),
(1040,460,l),
(1040,540,l),
(974,538,o),
(827,538,o),
(761,540,c),
(761,460,l),
(839,460,l),
(630,0,l),
(745,0,l)
);
},
{
closed = 1;
nodes = (
(567,538,o),
(423,538,o),
(350,540,c),
(350,460,l),
(412,460,l),
(630,0,l),
(737,113,l),
(578,460,l),
(640,460,l),
(640,540,l)
);
}
);
};
layerId = m01;
shapes = (
{
closed = 1;
nodes = (
(589,460,l),
(680,460,l),
(680,540,l),
(614,538,o),
(487,538,o),
(421,540,c),
(421,460,l),
(485,460,l),
(290,0,l),
(405,0,l)
);
},
{
closed = 1;
nodes = (
(242,538,o),
(83,538,o),
(10,540,c),
(10,460,l),
(72,460,l),
(290,0,l),
(397,113,l),
(238,460,l),
(315,460,l),
(315,540,l)
);
},
{
closed = 1;
nodes = (
(963,460,l),
(1020,460,l),
(1020,540,l),
(954,538,o),
(827,538,o),
(761,540,c),
(761,460,l),
(839,460,l),
(630,0,l),
(745,0,l)
);
},
{
closed = 1;
nodes = (
(567,538,o),
(468,538,o),
(395,540,c),
(395,460,l),
(442,460,l),
(630,0,l),
(737,113,l),
(588,460,l),
(640,460,l),
(640,540,l)
);
}
);
width = 1040;
},
{
anchors = (
{
name = bottom;
pos = (420,0);
},
{
name = top;
pos = (420,500);
}
);
background = {
shapes = (
{
closed = 1;
nodes = (
(463,460,l),
(540,460,l),
(540,500,l),
(474,498,o),
(407,497,o),
(341,499,c),
(341,460,l),
(419,460,l),
(257,77,l),
(260,-16,l)
);
},
{
closed = 1;
nodes = (
(147,498,o),
(73,498,o),
(0,500,c),
(0,460,l),
(72,460,l),
(260,-16,l),
(297,107,l),
(158,460,l),
(220,460,l),
(220,500,l)
);
},
{
closed = 1;
nodes = (
(763,460,l),
(840,460,l),
(840,500,l),
(774,498,o),
(707,498,o),
(641,500,c),
(641,460,l),
(719,460,l),
(557,77,l),
(560,-16,l)
);
},
{
closed = 1;
nodes = (
(447,497,o),
(373,498,o),
(300,500,c),
(300,460,l),
(372,460,l),
(560,-16,l),
(597,107,l),
(458,460,l),
(520,460,l),
(520,499,l)
);
}
);
};
layerId = m002;
shapes = (
{
closed = 1;
nodes = (
(463,460,l),
(537,460,l),
(537,500,l),
(471,498,o),
(407,497,o),
(341,499,c),
(341,460,l),
(419,460,l),
(249,-16,l),
(295,0,l)
);
},
{
closed = 1;
nodes = (
(164,498,o),
(73,498,o),
(0,500,c),
(0,460,l),
(72,460,l),
(249,-16,l),
(304,75,l),
(158,460,l),
(237,460,l),
(237,500,l)
);
},
{
closed = 1;
nodes = (
(763,460,l),
(840,460,l),
(840,500,l),
(774,498,o),
(704,498,o),
(638,500,c),
(638,460,l),
(719,460,l),
(549,-16,l),
(595,0,l)
);
},
{
closed = 1;
nodes = (
(444,497,o),
(390,498,o),
(317,500,c),
(317,460,l),
(372,460,l),
(549,-16,l),
(604,75,l),
(458,460,l),
(517,460,l),
(517,499,l)
);
}
);
width = 840;
}
);
unicode = 119;
},
{
glyphname = x;
kernLeft = x;
kernRight = x;
lastChange = "2026-02-08 08:41:00 +0000";
layers = (
{
anchors = (
{
name = bottom;
pos = (320,0);
},
{
name = top;
pos = (320,540);
}
);
background = {
shapes = (
{
closed = 1;
nodes = (
(403,2,o),
(477,2,o),
(550,0,c),
(550,41,l),
(485,41,l),
(301,284,l),
(173,461,l),
(230,461,l),
(230,500,l),
(157,502,o),
(83,502,o),
(10,500,c),
(10,461,l),
(75,461,l),
(255,222,l),
(387,41,l),
(330,41,l),
(330,0,l)
);
},
{
closed = 1;
nodes = (
(76,2,o),
(143,2,o),
(209,0,c),
(209,41,l),
(131,41,l),
(284,228,l),
(263,262,l),
(79,41,l),
(10,41,l),
(10,0,l)
);
},
{
closed = 1;
nodes = (
(481,461,l),
(550,461,l),
(550,500,l),
(484,502,o),
(417,502,o),
(351,500,c),
(351,461,l),
(429,461,l),
(275,281,l),
(297,247,l)
);
},
{
closed = 1;
nodes = (
(483,42,o),
(557,42,o),
(630,40,c),
(630,81,l),
(565,81,l),
(381,324,l),
(253,501,l),
(310,501,l),
(310,540,l),
(237,542,o),
(163,542,o),
(90,540,c),
(90,501,l),
(155,501,l),
(335,262,l),
(467,81,l),
(410,81,l),
(410,40,l)
);
},
{
closed = 1;
nodes = (
(156,42,o),
(223,42,o),
(289,40,c),
(289,81,l),
(211,81,l),
(364,268,l),
(343,302,l),
(159,81,l),
(90,81,l),
(90,40,l)
);
},
{
closed = 1;
nodes = (
(561,501,l),
(630,501,l),
(630,540,l),
(564,542,o),
(497,542,o),
(431,540,c),
(431,501,l),
(509,501,l),
(355,321,l),
(377,287,l)
);
},
{
closed = 1;
nodes = (
(403,2,o),
(477,2,o),
(550,0,c),
(550,41,l),
(485,41,l),
(301,284,l),
(173,461,l),
(230,461,l),
(230,500,l),
(157,502,o),
(83,502,o),
(10,500,c),
(10,461,l),
(75,461,l),
(255,222,l),
(387,41,l),
(330,41,l),
(330,0,l)
);
},
{
closed = 1;
nodes = (
(76,2,o),
(143,2,o),
(209,0,c),
(209,41,l),
(131,41,l),
(284,228,l),
(263,262,l),
(79,41,l),
(10,41,l),
(10,0,l)
);
},
{
closed = 1;
nodes = (
(481,461,l),
(550,461,l),
(550,500,l),
(484,502,o),
(417,502,o),
(351,500,c),
(351,461,l),
(429,461,l),
(275,281,l),
(297,247,l)
);
}
);
};
layerId = m01;
shapes = (
{
closed = 1;
nodes = (
(435,2,o),
(607,2,o),
(680,0,c),
(680,81,l),
(595,81,l),
(401,304,l),
(253,461,l),
(317,461,l),
(317,540,l),
(244,542,o),
(173,542,o),
(20,540,c),
(20,461,l),
(75,461,l),
(275,242,l),
(417,81,l),
(362,81,l),
(362,0,l)
);
},
{
closed = 1;
nodes = (
(66,2,o),
(205,2,o),
(271,0,c),
(271,81,l),
(211,81,l),
(384,248,l),
(293,282,l),
(79,81,l),
(0,81,l),
(0,0,l)
);
},
{
closed = 1;
nodes = (
(601,461,l),
(670,461,l),
(670,540,l),
(604,542,o),
(464,542,o),
(398,540,c),
(398,461,l),
(469,461,l),
(295,301,l),
(387,267,l)
);
}
);
width = 680;
},
{
anchors = (
{
name = bottom;
pos = (280,0);
},
{
name = top;
pos = (280,500);
}
);
background = {
shapes = (
{
closed = 1;
nodes = (
(550,-16,l),
(550,24,l),
(485,24,l),
(303,279,l),
(173,460,l),
(230,460,l),
(230,500,l),
(10,500,l),
(10,460,l),
(75,460,l),
(253,211,l),
(387,24,l),
(330,24,l),
(330,-16,l)
);
},
{
closed = 1;
nodes = (
(209,-16,l),
(209,24,l),
(131,24,l),
(284,219,l),
(263,256,l),
(79,24,l),
(10,24,l),
(10,-16,l)
);
},
{
closed = 1;
nodes = (
(481,460,l),
(550,460,l),
(550,500,l),
(351,500,l),
(351,460,l),
(429,460,l),
(275,274,l),
(297,237,l)
);
}
);
};
layerId = m002;
shapes = (
{
closed = 1;
nodes = (
(395,2,o),
(477,2,o),
(550,0,c),
(550,41,l),
(485,41,l),
(301,284,l),
(173,461,l),
(233,461,l),
(233,500,l),
(160,500,o),
(83,500,o),
(10,500,c),
(10,461,l),
(75,461,l),
(255,222,l),
(387,41,l),
(322,41,l),
(322,0,l)
);
},
{
closed = 1;
nodes = (
(76,2,o),
(135,2,o),
(201,0,c),
(201,41,l),
(131,41,l),
(284,228,l),
(263,262,l),
(79,41,l),
(10,41,l),
(10,0,l)
);
},
{
closed = 1;
nodes = (
(481,461,l),
(550,461,l),
(550,500,l),
(484,500,o),
(420,500,o),
(354,500,c),
(354,461,l),
(429,461,l),
(275,281,l),
(297,247,l)
);
}
);
width = 560;
}
);
unicode = 120;
},
{
glyphname = y;
kernLeft = y;
kernRight = y;
lastChange = "2026-02-08 08:35:18 +0000";
layers = (
{
anchors = (
{
name = bottom;
pos = (300,0);
},
{
name = top;
pos = (300,540);
}
);
background = {
shapes = (
{
closed = 1;
nodes = (
(453,460,l),
(530,460,l),
(530,500,l),
(464,498,o),
(397,498,o),
(331,500,c),
(331,460,l),
(409,460,l),
(220,14,l),
(257,-1,l)
);
},
{
closed = 1;
nodes = (
(137,498,o),
(63,498,o),
(-10,500,c),
(-10,460,l),
(60,460,l),
(250,-6,l),
(289,109,l),
(146,460,l),
(210,460,l),
(210,500,l)
);
},
{
closed = 1;
nodes = (
(20,-214,l),
(149,-214,o),
(209,-114,o),
(257,-1,c),
(220,14,l),
(187,-63,o),
(137,-154,o),
(20,-134,c)
);
},
{
closed = 1;
nodes = (
(533,500,l),
(610,500,l),
(610,540,l),
(544,538,o),
(477,538,o),
(411,540,c),
(411,500,l),
(489,500,l),
(300,54,l),
(337,39,l)
);
},
{
closed = 1;
nodes = (
(217,538,o),
(143,538,o),
(70,540,c),
(70,500,l),
(140,500,l),
(330,34,l),
(369,149,l),
(226,500,l),
(290,500,l),
(290,540,l)
);
},
{
closed = 1;
nodes = (
(100,-174,l),
(229,-174,o),
(289,-74,o),
(337,39,c),
(300,54,l),
(267,-23,o),
(217,-114,o),
(100,-94,c)
);
}
);
};
layerId = m01;
shapes = (
{
closed = 1;
nodes = (
(533,460,l),
(610,460,l),
(610,540,l),
(544,538,o),
(397,538,o),
(331,540,c),
(331,460,l),
(409,460,l),
(220,14,l),
(337,-1,l)
);
},
{
closed = 1;
nodes = (
(217,538,o),
(73,538,o),
(0,540,c),
(0,460,l),
(60,460,l),
(250,-6,l),
(369,109,l),
(226,460,l),
(290,460,l),
(290,540,l)
);
},
{
closed = 1;
nodes = (
(20,-214,l),
(153,-214,o),
(284,-126,o),
(337,-1,c),
(220,14,l),
(187,-63,o),
(137,-114,o),
(20,-94,c)
);
}
);
width = 600;
},
{
anchors = (
{
name = bottom;
pos = (260,0);
},
{
name = top;
pos = (260,500);
}
);
background = {
shapes = (
{
closed = 1;
nodes = (
(220,-58,o),
(137,-154,o),
(20,-114,c),
(20,-214,l),
(149,-214,o),
(240,-105,o),
(240,50,c),
(220,50,l)
);
}
);
};
layerId = m002;
shapes = (
{
closed = 1;
nodes = (
(453,460,l),
(530,460,l),
(530,500,l),
(464,498,o),
(397,498,o),
(331,500,c),
(331,460,l),
(409,460,l),
(220,14,l),
(257,-1,l)
);
},
{
closed = 1;
nodes = (
(137,498,o),
(63,498,o),
(-10,500,c),
(-10,460,l),
(60,460,l),
(250,-6,l),
(289,109,l),
(146,460,l),
(210,460,l),
(210,500,l)
);
},
{
closed = 1;
nodes = (
(20,-214,l),
(149,-214,o),
(209,-114,o),
(257,-1,c),
(220,14,l),
(187,-63,o),
(137,-154,o),
(20,-134,c)
);
}
);
width = 520;
}
);
unicode = 121;
},
{
glyphname = z;
kernLeft = z;
kernRight = z;
lastChange = "2026-02-08 08:41:11 +0000";
layers = (
{
anchors = (
{
name = bottom;
pos = (304,0);
},
{
name = center;
pos = (304,270);
},
{
name = top;
pos = (304,540);
}
);
background = {
shapes = (
{
closed = 1;
nodes = (
(484,0,l),
(482,59,o),
(482,119,o),
(484,178,c),
(444,178,l),
(434,40,l),
(84,40,l),
(124,19,l),
(484,467,l),
(484,504,l),
(64,504,l),
(66,444,o),
(66,384,o),
(64,324,c),
(104,324,l),
(114,464,l),
(431,464,l),
(393,481,l),
(44,47,l),
(44,0,l)
);
},
{
closed = 1;
nodes = (
(564,40,l),
(562,99,o),
(562,159,o),
(564,218,c),
(524,218,l),
(514,80,l),
(164,80,l),
(204,59,l),
(564,507,l),
(564,544,l),
(144,544,l),
(146,484,o),
(146,424,o),
(144,364,c),
(184,364,l),
(194,504,l),
(511,504,l),
(473,521,l),
(124,87,l),
(124,40,l)
);
}
);
};
layerId = m01;
shapes = (
{
closed = 1;
nodes = (
(564,0,l),
(562,99,o),
(562,159,o),
(564,218,c),
(484,218,l),
(474,100,l),
(84,100,l),
(194,19,l),
(564,467,l),
(564,544,l),
(64,544,l),
(66,484,o),
(66,384,o),
(64,324,c),
(144,324,l),
(154,444,l),
(511,444,l),
(413,481,l),
(44,87,l),
(44,0,l)
);
}
);
width = 608;
},
{
anchors = (
{
name = bottom;
pos = (264,0);
},
{
name = center;
pos = (264,250);
},
{
name = top;
pos = (264,500);
}
);
layerId = m002;
shapes = (
{
closed = 1;
nodes = (
(484,0,l),
(482,59,o),
(482,119,o),
(484,178,c),
(434,178,l),
(424,40,l),
(84,40,l),
(124,19,l),
(484,467,l),
(484,504,l),
(64,504,l),
(66,444,o),
(66,384,o),
(64,324,c),
(114,324,l),
(124,464,l),
(431,464,l),
(393,481,l),
(44,47,l),
(44,0,l)
);
}
);
width = 528;
}
);
unicode = 122;
},
{
glyphname = zero;
kernLeft = zero;
kernRight = zero;
lastChange = "2026-02-07 16:11:08 +0000";
layers = (
{
background = {
shapes = (
{
closed = 1;
nodes = (
(435,-13,o),
(536,138,o),
(536,351,cs),
(536,565,o),
(435,716,o),
(293,716,cs),
(151,716,o),
(50,565,o),
(50,351,cs),
(50,138,o),
(151,-13,o),
(293,-13,cs)
);
},
{
closed = 1;
nodes = (
(205,29,o),
(142,162,o),
(142,351,cs),
(142,540,o),
(205,674,o),
(293,674,cs),
(382,674,o),
(445,540,o),
(445,351,cs),
(445,162,o),
(382,29,o),
(293,29,cs)
);
},
{
closed = 1;
nodes = (
(515,27,o),
(616,178,o),
(616,391,cs),
(616,605,o),
(515,756,o),
(373,756,cs),
(231,756,o),
(130,605,o),
(130,391,cs),
(130,178,o),
(231,27,o),
(373,27,cs)
);
},
{
closed = 1;
nodes = (
(285,69,o),
(222,202,o),
(222,391,cs),
(222,580,o),
(285,714,o),
(373,714,cs),
(462,714,o),
(525,580,o),
(525,391,cs),
(525,202,o),
(462,69,o),
(373,69,cs)
);
}
);
};
layerId = m01;
shapes = (
{
closed = 1;
nodes = (
(571,-13,o),
(696,135,o),
(696,371,cs),
(696,607,o),
(571,756,o),
(373,756,cs),
(175,756,o),
(50,607,o),
(50,371,cs),
(50,135,o),
(175,-13,o),
(373,-13,cs)
);
},
{
closed = 1;
nodes = (
(280,69,o),
(222,185,o),
(222,371,cs),
(222,557,o),
(280,674,o),
(373,674,cs),
(466,674,o),
(525,557,o),
(525,371,cs),
(525,185,o),
(466,69,o),
(373,69,cs)
);
}
);
width = 746;
},
{
layerId = m002;
shapes = (
{
closed = 1;
nodes = (
(435,-13,o),
(536,118,o),
(536,351,cs),
(536,585,o),
(435,716,o),
(293,716,cs),
(151,716,o),
(50,585,o),
(50,351,cs),
(50,118,o),
(151,-13,o),
(293,-13,cs)
);
},
{
closed = 1;
nodes = (
(205,29,o),
(142,142,o),
(142,351,cs),
(142,560,o),
(205,674,o),
(293,674,cs),
(382,674,o),
(445,560,o),
(445,351,cs),
(445,142,o),
(382,29,o),
(293,29,cs)
);
}
);
width = 586;
}
);
unicode = 48;
},
{
glyphname = one;
kernLeft = one;
kernRight = one;
lastChange = "2026-02-07 16:11:51 +0000";
layers = (
{
background = {
shapes = (
{
closed = 1;
nodes = (
(429,0,l),
(429,40,l),
(292,40,l),
(292,702,l),
(230,702,l),
(50,530,l),
(77,500,l),
(210,627,l),
(210,40,l),
(70,40,l),
(70,0,l)
);
},
{
closed = 1;
nodes = (
(509,40,l),
(509,80,l),
(372,80,l),
(372,742,l),
(310,742,l),
(130,570,l),
(157,540,l),
(290,667,l),
(290,80,l),
(150,80,l),
(150,40,l)
);
}
);
};
layerId = m01;
shapes = (
{
closed = 1;
nodes = (
(509,0,l),
(509,80,l),
(372,80,l),
(372,742,l),
(230,742,l),
(50,570,l),
(77,500,l),
(210,627,l),
(210,80,l),
(70,80,l),
(70,0,l)
);
}
);
width = 559;
},
{
layerId = m002;
shapes = (
{
closed = 1;
nodes = (
(429,0,l),
(429,40,l),
(292,40,l),
(292,700,l),
(230,700,l),
(50,530,l),
(77,498,l),
(210,625,l),
(210,40,l),
(70,40,l),
(70,0,l)
);
}
);
width = 479;
}
);
unicode = 49;
},
{
glyphname = two;
kernLeft = two;
kernRight = two;
lastChange = "2026-02-07 16:54:14 +0000";
layers = (
{
background = {
shapes = (
{
closed = 1;
nodes = (
(300,181,o),
(445,377,o),
(445,523,cs),
(445,635,o),
(359,715,o),
(240,715,cs),
(161,715,o),
(84,679,o),
(50,627,c),
(105,587,l),
(126,637,o),
(176,673,o),
(228,673,cs),
(299,673,o),
(351,605,o),
(351,506,cs),
(351,359,o),
(236,181,o),
(74,78,c),
(94,50,l)
);
},
{
closed = 1;
nodes = (
(74,-2,l),
(476,-2,l),
(476,78,l),
(74,78,l)
);
},
{
closed = 1;
nodes = (
(380,221,o),
(525,417,o),
(525,563,cs),
(525,675,o),
(439,755,o),
(320,755,cs),
(241,755,o),
(164,719,o),
(130,667,c),
(185,627,l),
(206,677,o),
(256,713,o),
(308,713,cs),
(379,713,o),
(431,645,o),
(431,546,cs),
(431,399,o),
(316,221,o),
(154,118,c),
(174,90,l)
);
},
{
closed = 1;
nodes = (
(154,38,l),
(556,38,l),
(556,118,l),
(154,118,l)
);
}
);
};
layerId = m01;
shapes = (
{
closed = 1;
nodes = (
(218,111,o),
(310,185,o),
(379,263,cs),
(470,364,o),
(525,471,o),
(525,561,cs),
(525,674,o),
(439,755,o),
(299,755,cs),
(186,755,o),
(59,702,o),
(10,627,c),
(105,547,l),
(136,621,o),
(195,673,o),
(249,673,cs),
(308,673,o),
(351,612,o),
(351,528,cs),
(351,448,o),
(313,358,o),
(249,277,cs),
(202,217,o),
(142,162,o),
(74,118,c),
(114,50,l)
);
},
{
closed = 1;
nodes = (
(74,-2,l),
(556,-2,l),
(556,118,l),
(74,118,l)
);
}
);
width = 606;
},
{
background = {
shapes = (
{
closed = 1;
nodes = (
(334,353,o),
(445,422,o),
(445,533,cs),
(445,635,o),
(353,715,o),
(234,715,cs),
(155,715,o),
(84,679,o),
(50,627,c),
(105,587,l),
(126,637,o),
(175,673,o),
(228,673,cs),
(298,673,o),
(351,610,o),
(351,533,cs),
(351,444,o),
(279,390,o),
(177,390,c),
(177,352,l)
);
},
{
closed = 1;
nodes = (
(364,-16,o),
(465,77,o),
(465,191,cs),
(465,315,o),
(345,389,o),
(175,390,c),
(175,352,l),
(290,352,o),
(371,292,o),
(371,190,cs),
(371,101,o),
(309,26,o),
(223,26,cs),
(163,26,o),
(106,62,o),
(85,112,c),
(30,72,l),
(64,20,o),
(143,-16,o),
(228,-16,cs)
);
}
);
};
layerId = m002;
shapes = (
{
closed = 1;
nodes = (
(181,96,o),
(231,150,o),
(284,207,cs),
(384,312,o),
(445,428,o),
(445,523,cs),
(445,635,o),
(359,715,o),
(240,715,cs),
(161,715,o),
(84,679,o),
(50,627,c),
(105,587,l),
(126,637,o),
(176,673,o),
(228,673,cs),
(299,673,o),
(351,605,o),
(351,506,cs),
(351,420,o),
(312,324,o),
(247,238,cs),
(201,177,o),
(142,121,o),
(74,78,c),
(109,50,l)
);
},
{
closed = 1;
nodes = (
(74,-2,l),
(476,-2,l),
(476,78,l),
(74,78,l)
);
}
);
width = 526;
}
);
unicode = 50;
},
{
glyphname = three;
kernLeft = three;
kernRight = three;
lastChange = "2026-02-07 16:32:59 +0000";
layers = (
{
background = {
shapes = (
{
closed = 1;
nodes = (
(354,353,o),
(465,422,o),
(465,533,cs),
(465,635,o),
(373,715,o),
(254,715,cs),
(175,715,o),
(104,679,o),
(70,627,c),
(125,587,l),
(146,637,o),
(195,673,o),
(248,673,cs),
(318,673,o),
(371,610,o),
(371,533,cs),
(371,444,o),
(299,390,o),
(197,390,c),
(197,352,l)
);
},
{
closed = 1;
nodes = (
(384,-16,o),
(485,77,o),
(485,191,cs),
(485,315,o),
(365,389,o),
(195,390,c),
(195,352,l),
(310,352,o),
(391,292,o),
(391,190,cs),
(391,101,o),
(329,26,o),
(243,26,cs),
(183,26,o),
(126,62,o),
(105,112,c),
(50,72,l),
(84,20,o),
(163,-16,o),
(248,-16,cs)
);
},
{
closed = 1;
nodes = (
(434,393,o),
(545,462,o),
(545,573,cs),
(545,675,o),
(453,755,o),
(334,755,cs),
(255,755,o),
(184,719,o),
(150,667,c),
(205,627,l),
(226,677,o),
(275,713,o),
(328,713,cs),
(398,713,o),
(451,650,o),
(451,573,cs),
(451,484,o),
(379,430,o),
(277,430,c),
(277,392,l)
);
},
{
closed = 1;
nodes = (
(464,24,o),
(565,117,o),
(565,231,cs),
(565,355,o),
(445,429,o),
(275,430,c),
(275,392,l),
(390,392,o),
(471,332,o),
(471,230,cs),
(471,141,o),
(409,66,o),
(323,66,cs),
(263,66,o),
(206,102,o),
(185,152,c),
(130,112,l),
(164,60,o),
(243,24,o),
(328,24,cs)
);
}
);
};
layerId = m01;
shapes = (
{
closed = 1;
nodes = (
(401,353,o),
(545,447,o),
(545,580,cs),
(545,682,o),
(453,755,o),
(323,755,cs),
(212,755,o),
(99,702,o),
(50,627,c),
(145,547,l),
(176,621,o),
(231,673,o),
(278,673,cs),
(332,673,o),
(371,628,o),
(371,565,cs),
(371,486,o),
(299,430,o),
(197,430,c),
(197,352,l)
);
},
{
closed = 1;
nodes = (
(442,-16,o),
(565,74,o),
(565,202,cs),
(565,335,o),
(412,429,o),
(195,430,c),
(195,352,l),
(310,352,o),
(391,289,o),
(391,199,cs),
(391,121,o),
(336,66,o),
(259,66,cs),
(208,66,o),
(156,102,o),
(135,152,c),
(30,72,l),
(64,20,o),
(163,-16,o),
(269,-16,cs)
);
}
);
width = 615;
},
{
layerId = m002;
shapes = (
{
closed = 1;
nodes = (
(354,353,o),
(465,428,o),
(465,540,cs),
(465,640,o),
(378,715,o),
(265,715,cs),
(186,715,o),
(114,679,o),
(80,627,c),
(135,587,l),
(156,637,o),
(203,673,o),
(255,673,cs),
(320,673,o),
(371,615,o),
(371,539,cs),
(371,449,o),
(299,390,o),
(197,390,c),
(197,352,l)
);
},
{
closed = 1;
nodes = (
(387,-16,o),
(485,70,o),
(485,183,cs),
(485,307,o),
(365,389,o),
(195,390,c),
(195,352,l),
(310,352,o),
(391,285,o),
(391,183,cs),
(391,94,o),
(330,26,o),
(248,26,cs),
(189,26,o),
(136,62,o),
(115,112,c),
(60,72,l),
(94,20,o),
(172,-16,o),
(256,-16,cs)
);
}
);
width = 535;
}
);
unicode = 51;
},
{
glyphname = four;
kernLeft = four;
kernRight = four;
lastChange = "2026-02-08 09:06:30 +0000";
layers = (
{
background = {
shapes = (
{
closed = 1;
nodes = (
(431,3,l),
(431,705,l),
(390,705,l),
(50,231,l),
(50,212,l),
(549,212,l),
(549,272,l),
(132,272,l),
(349,586,l),
(349,3,l)
);
},
{
closed = 1;
nodes = (
(511,43,l),
(511,745,l),
(470,745,l),
(130,271,l),
(130,252,l),
(629,252,l),
(629,312,l),
(212,312,l),
(429,626,l),
(429,43,l)
);
}
);
};
layerId = m01;
shapes = (
{
closed = 1;
nodes = (
(511,257,l),
(511,745,l),
(400,745,l),
(50,251,l),
(50,212,l),
(629,212,l),
(629,292,l),
(177,292,l),
(349,573,l),
(349,257,l)
);
},
{
closed = 1;
nodes = (
(349,257,l),
(349,0,l),
(511,0,l),
(511,257,l)
);
}
);
width = 679;
},
{
layerId = m002;
shapes = (
{
closed = 1;
nodes = (
(431,242,l),
(431,705,l),
(390,705,l),
(50,231,l),
(50,212,l),
(549,212,l),
(549,272,l),
(132,272,l),
(349,586,l),
(349,242,l)
);
},
{
closed = 1;
nodes = (
(349,242,l),
(349,3,l),
(431,3,l),
(431,242,l)
);
}
);
width = 599;
}
);
unicode = 52;
},
{
glyphname = five;
kernLeft = five;
kernRight = five;
lastChange = "2026-02-07 16:34:01 +0000";
layers = (
{
background = {
shapes = (
{
closed = 1;
nodes = (
(144,616,l),
(391,616,l),
(391,740,l),
(351,740,l),
(351,700,l),
(111,700,l),
(84,345,l),
(124,344,l)
);
},
{
closed = 1;
nodes = (
(151,435,o),
(84,400,o),
(84,351,c),
(124,344,l),
(124,375,o),
(170,397,o),
(226,397,cs),
(324,397,o),
(368,319,o),
(368,211,cs),
(368,102,o),
(303,26,o),
(215,26,cs),
(166,26,o),
(121,53,o),
(105,92,c),
(50,52,l),
(76,12,o),
(144,-16,o),
(218,-16,cs),
(358,-16,o),
(459,86,o),
(459,219,cs),
(459,349,o),
(382,434,o),
(242,435,cs)
);
},
{
closed = 1;
nodes = (
(224,656,l),
(471,656,l),
(471,780,l),
(431,780,l),
(431,740,l),
(191,740,l),
(164,385,l),
(204,384,l)
);
},
{
closed = 1;
nodes = (
(231,475,o),
(164,440,o),
(164,391,c),
(204,384,l),
(204,415,o),
(250,437,o),
(306,437,cs),
(404,437,o),
(448,359,o),
(448,251,cs),
(448,142,o),
(383,66,o),
(295,66,cs),
(246,66,o),
(201,93,o),
(185,132,c),
(130,92,l),
(156,52,o),
(224,24,o),
(298,24,cs),
(438,24,o),
(539,126,o),
(539,259,cs),
(539,389,o),
(462,474,o),
(322,475,cs)
);
}
);
};
layerId = m01;
shapes = (
{
closed = 1;
nodes = (
(184,620,l),
(471,620,l),
(471,780,l),
(391,780,l),
(391,740,l),
(111,740,l),
(84,345,l),
(164,344,l)
);
},
{
closed = 1;
nodes = (
(159,455,o),
(84,412,o),
(84,351,c),
(164,344,l),
(164,363,o),
(191,377,o),
(228,377,cs),
(310,377,o),
(368,309,o),
(368,214,cs),
(368,127,o),
(323,66,o),
(260,66,cs),
(214,66,o),
(166,102,o),
(145,152,c),
(10,52,l),
(36,12,o),
(124,-16,o),
(222,-16,cs),
(408,-16,o),
(539,84,o),
(539,226,cs),
(539,359,o),
(426,454,o),
(266,455,cs)
);
}
);
width = 589;
},
{
layerId = m002;
shapes = (
{
closed = 1;
nodes = (
(144,616,l),
(391,616,l),
(391,740,l),
(351,740,l),
(351,700,l),
(111,700,l),
(84,345,l),
(124,344,l)
);
},
{
closed = 1;
nodes = (
(149,435,o),
(84,400,o),
(84,351,c),
(124,344,l),
(144,375,o),
(186,397,o),
(226,397,cs),
(324,397,o),
(368,319,o),
(368,211,cs),
(368,102,o),
(303,26,o),
(215,26,cs),
(166,26,o),
(121,53,o),
(105,92,c),
(50,52,l),
(76,12,o),
(144,-16,o),
(218,-16,cs),
(358,-16,o),
(459,86,o),
(459,219,cs),
(459,349,o),
(382,434,o),
(242,435,cs)
);
}
);
width = 509;
}
);
unicode = 53;
},
{
glyphname = six;
kernLeft = six;
kernRight = six;
lastChange = "2026-02-07 16:31:22 +0000";
layers = (
{
background = {
shapes = (
{
closed = 1;
nodes = (
(393,-17,o),
(480,80,o),
(480,215,cs),
(480,346,o),
(417,438,o),
(276,438,cs),
(167,438,o),
(82,389,o),
(82,320,c),
(113,320,l),
(113,366,o),
(176,398,o),
(252,398,cs),
(359,398,o),
(398,319,o),
(398,206,cs),
(398,99,o),
(344,22,o),
(274,22,cs),
(180,22,o),
(112,109,o),
(112,301,cs),
(112,519,o),
(192,673,o),
(304,673,cs),
(334,673,o),
(378,662,o),
(384,647,c),
(439,687,l),
(428,703,o),
(365,715,o),
(319,715,cs),
(149,715,o),
(30,552,o),
(30,322,cs),
(30,107,o),
(132,-15,o),
(274,-16,cs)
);
},
{
closed = 1;
nodes = (
(473,23,o),
(560,120,o),
(560,255,cs),
(560,386,o),
(497,478,o),
(356,478,cs),
(247,478,o),
(162,429,o),
(162,360,c),
(193,360,l),
(193,406,o),
(256,438,o),
(332,438,cs),
(439,438,o),
(478,359,o),
(478,246,cs),
(478,139,o),
(424,62,o),
(354,62,cs),
(260,62,o),
(192,149,o),
(192,341,cs),
(192,559,o),
(272,713,o),
(384,713,cs),
(414,713,o),
(458,702,o),
(464,687,c),
(519,727,l),
(508,743,o),
(445,755,o),
(399,755,cs),
(229,755,o),
(110,592,o),
(110,362,cs),
(110,147,o),
(212,25,o),
(354,24,cs)
);
}
);
};
layerId = m01;
shapes = (
{
closed = 1;
nodes = (
(495,-17,o),
(600,81,o),
(600,220,cs),
(600,359,o),
(496,458,o),
(350,458,cs),
(239,458,o),
(162,401,o),
(162,320,c),
(193,320,l),
(193,354,o),
(229,378,o),
(282,378,cs),
(373,378,o),
(438,307,o),
(438,204,cs),
(438,122,o),
(397,62,o),
(337,62,cs),
(252,62,o),
(192,182,o),
(192,352,cs),
(192,540,o),
(266,673,o),
(374,673,cs),
(422,673,o),
(469,646,o),
(484,607,c),
(579,727,l),
(568,743,o),
(511,755,o),
(446,755,cs),
(201,755,o),
(30,586,o),
(30,346,cs),
(30,135,o),
(161,-15,o),
(345,-16,cs)
);
}
);
width = 630;
},
{
background = {
shapes = (
{
closed = 1;
nodes = (
(414,-16,o),
(490,102,o),
(490,235,cs),
(490,354,o),
(417,438,o),
(313,438,cs),
(224,438,o),
(132,389,o),
(132,320,c),
(163,320,l),
(163,366,o),
(233,398,o),
(290,398,cs),
(359,398,o),
(408,327,o),
(408,227,cs),
(408,122,o),
(366,22,o),
(302,22,cs),
(222,22,o),
(162,127,o),
(162,319,cs),
(162,508,o),
(200,673,o),
(296,673,cs),
(338,673,o),
(388,646,o),
(404,607,c),
(459,647,l),
(433,687,o),
(358,715,o),
(295,715,cs),
(145,715,o),
(70,536,o),
(70,324,cs),
(70,109,o),
(168,-15,o),
(303,-16,cs)
);
}
);
};
layerId = m002;
shapes = (
{
closed = 1;
nodes = (
(375,-17,o),
(460,79,o),
(460,215,cs),
(460,334,o),
(384,418,o),
(276,418,cs),
(168,418,o),
(92,369,o),
(92,300,c),
(123,300,l),
(133,346,o),
(186,378,o),
(252,378,cs),
(326,378,o),
(378,307,o),
(378,206,cs),
(378,98,o),
(327,22,o),
(254,22,cs),
(183,22,o),
(132,138,o),
(132,301,cs),
(132,519,o),
(207,673,o),
(314,673,cs),
(343,673,o),
(368,662,o),
(374,647,c),
(429,687,l),
(418,703,o),
(376,715,o),
(329,715,cs),
(166,715,o),
(50,552,o),
(50,322,cs),
(50,125,o),
(135,-15,o),
(254,-16,cs)
);
}
);
width = 530;
}
);
unicode = 54;
},
{
glyphname = seven;
kernLeft = seven;
kernRight = seven;
lastChange = "2026-02-07 17:17:55 +0000";
layers = (
{
background = {
shapes = (
{
closed = 1;
nodes = (
(50,704,l),
(450,704,l),
(450,664,l),
(190,-16,l),
(133,0,l),
(412,676,l),
(431,622,l),
(90,622,l),
(90,544,l),
(50,544,l)
);
},
{
closed = 1;
nodes = (
(130,744,l),
(530,744,l),
(530,704,l),
(270,24,l),
(213,40,l),
(492,716,l),
(511,662,l),
(170,662,l),
(170,584,l),
(130,584,l)
);
}
);
};
layerId = m01;
shapes = (
{
closed = 1;
nodes = (
(50,744,l),
(530,744,l),
(580,664,l),
(240,-16,l),
(133,0,l),
(492,676,l),
(511,602,l),
(130,602,l),
(130,464,l),
(50,464,l)
);
}
);
width = 630;
},
{
layerId = m002;
shapes = (
{
closed = 1;
nodes = (
(50,704,l),
(450,704,l),
(450,664,l),
(190,-16,l),
(133,0,l),
(412,676,l),
(431,622,l),
(90,622,l),
(90,544,l),
(50,544,l)
);
}
);
width = 500;
}
);
unicode = 55;
},
{
glyphname = eight;
kernLeft = eight;
kernRight = eight;
lastChange = "2026-02-07 16:33:34 +0000";
layers = (
{
background = {
shapes = (
{
closed = 1;
nodes = (
(419,-14,o),
(501,68,o),
(500,176,cs),
(498,373,o),
(184,402,o),
(184,570,cs),
(184,632,o),
(231,676,o),
(297,676,cs),
(368,676,o),
(418,627,o),
(418,557,cs),
(418,385,o),
(90,401,o),
(90,178,cs),
(90,66,o),
(178,-14,o),
(295,-14,c),
(295,26,l),
(207,26,o),
(140,88,o),
(140,176,cs),
(140,367,o),
(468,349,o),
(468,554,cs),
(468,649,o),
(397,716,o),
(297,716,cs),
(193,716,o),
(119,639,o),
(119,538,cs),
(119,330,o),
(439,284,o),
(439,137,cs),
(439,69,o),
(382,26,o),
(295,26,c),
(295,-14,l)
);
},
{
closed = 1;
nodes = (
(499,26,o),
(581,108,o),
(580,216,cs),
(578,413,o),
(264,442,o),
(264,610,cs),
(264,672,o),
(311,716,o),
(377,716,cs),
(448,716,o),
(498,667,o),
(498,597,cs),
(498,425,o),
(170,441,o),
(170,218,cs),
(170,106,o),
(258,26,o),
(375,26,c),
(375,66,l),
(287,66,o),
(220,128,o),
(220,216,cs),
(220,407,o),
(548,389,o),
(548,594,cs),
(548,689,o),
(477,756,o),
(377,756,cs),
(273,756,o),
(199,679,o),
(199,578,cs),
(199,370,o),
(519,324,o),
(519,177,cs),
(519,109,o),
(462,66,o),
(375,66,c),
(375,26,l)
);
}
);
};
layerId = m01;
shapes = (
{
closed = 1;
nodes = (
(451,-14,o),
(561,75,o),
(560,202,cs),
(558,433,o),
(184,422,o),
(184,579,cs),
(184,636,o),
(234,676,o),
(305,676,cs),
(383,676,o),
(438,629,o),
(438,562,cs),
(438,385,o),
(50,401,o),
(50,180,cs),
(50,66,o),
(152,-14,o),
(295,-14,c),
(335,66,l),
(233,66,o),
(160,126,o),
(160,211,cs),
(160,407,o),
(548,389,o),
(548,589,cs),
(548,687,o),
(454,756,o),
(320,756,cs),
(167,756,o),
(59,667,o),
(59,542,cs),
(59,310,o),
(439,304,o),
(439,152,cs),
(439,102,o),
(396,66,o),
(335,66,c),
(295,-14,l)
);
}
);
width = 610;
},
{
layerId = m002;
shapes = (
{
closed = 1;
nodes = (
(376,-14,o),
(461,65,o),
(460,176,cs),
(458,373,o),
(144,402,o),
(144,570,cs),
(144,632,o),
(191,676,o),
(257,676,cs),
(328,676,o),
(378,623,o),
(378,547,cs),
(378,375,o),
(50,391,o),
(50,168,cs),
(50,61,o),
(135,-14,o),
(255,-14,c),
(255,26,l),
(164,26,o),
(100,84,o),
(100,166,cs),
(100,357,o),
(428,339,o),
(428,544,cs),
(428,645,o),
(357,716,o),
(257,716,cs),
(153,716,o),
(79,642,o),
(79,538,cs),
(79,330,o),
(399,284,o),
(399,137,cs),
(399,72,o),
(339,26,o),
(255,26,c),
(255,-14,l)
);
}
);
width = 510;
}
);
unicode = 56;
},
{
glyphname = nine;
kernLeft = nine;
kernRight = nine;
lastChange = "2026-02-07 16:32:14 +0000";
layers = (
{
background = {
shapes = (
{
closed = 1;
nodes = (
(137,716,o),
(50,619,o),
(50,484,cs),
(50,353,o),
(113,261,o),
(254,261,cs),
(343,261,o),
(448,310,o),
(448,379,c),
(417,379,l),
(417,333,o),
(334,301,o),
(278,301,cs),
(171,301,o),
(132,380,o),
(132,493,cs),
(132,600,o),
(186,677,o),
(256,677,cs),
(350,677,o),
(418,590,o),
(418,398,cs),
(418,180,o),
(358,26,o),
(237,26,cs),
(205,26,o),
(152,37,o),
(146,52,c),
(91,12,l),
(102,-4,o),
(172,-16,o),
(220,-16,cs),
(401,-16,o),
(500,155,o),
(500,397,cs),
(500,612,o),
(398,714,o),
(256,715,cs)
);
},
{
closed = 1;
nodes = (
(217,756,o),
(130,659,o),
(130,524,cs),
(130,393,o),
(193,301,o),
(334,301,cs),
(423,301,o),
(528,350,o),
(528,419,c),
(497,419,l),
(497,373,o),
(414,341,o),
(358,341,cs),
(251,341,o),
(212,420,o),
(212,533,cs),
(212,640,o),
(266,717,o),
(336,717,cs),
(430,717,o),
(498,630,o),
(498,438,cs),
(498,220,o),
(438,66,o),
(317,66,cs),
(285,66,o),
(232,77,o),
(226,92,c),
(171,52,l),
(182,36,o),
(252,24,o),
(300,24,cs),
(481,24,o),
(580,195,o),
(580,437,cs),
(580,652,o),
(478,754,o),
(336,755,cs)
);
}
);
};
layerId = m01;
shapes = (
{
closed = 1;
nodes = (
(162,757,o),
(50,648,o),
(50,495,cs),
(50,345,o),
(158,241,o),
(310,241,cs),
(414,241,o),
(488,290,o),
(488,359,c),
(457,399,l),
(457,353,o),
(417,321,o),
(361,321,cs),
(273,321,o),
(212,399,o),
(212,512,cs),
(212,608,o),
(256,677,o),
(318,677,cs),
(400,677,o),
(458,556,o),
(458,385,cs),
(458,198,o),
(389,66,o),
(289,66,cs),
(244,66,o),
(201,93,o),
(186,132,c),
(61,32,l),
(80,4,o),
(148,-16,o),
(228,-16,cs),
(459,-16,o),
(620,152,o),
(620,392,cs),
(620,602,o),
(496,754,o),
(316,756,cs)
);
}
);
width = 670;
},
{
background = {
shapes = (
{
closed = 1;
nodes = (
(164,715,o),
(88,617,o),
(88,484,cs),
(88,351,o),
(164,261,o),
(285,261,cs),
(374,261,o),
(446,310,o),
(446,379,c),
(415,379,l),
(415,333,o),
(365,301,o),
(308,301,cs),
(221,301,o),
(170,377,o),
(170,492,cs),
(170,597,o),
(212,677,o),
(276,677,cs),
(356,677,o),
(416,552,o),
(416,360,cs),
(416,171,o),
(358,26,o),
(262,26,cs),
(220,26,o),
(170,53,o),
(154,92,c),
(99,52,l),
(125,12,o),
(200,-16,o),
(263,-16,cs),
(413,-16,o),
(508,143,o),
(508,355,cs),
(508,570,o),
(410,714,o),
(275,715,cs)
);
}
);
};
layerId = m002;
shapes = (
{
closed = 1;
nodes = (
(151,716,o),
(70,620,o),
(70,490,cs),
(70,365,o),
(146,281,o),
(268,281,cs),
(362,281,o),
(438,330,o),
(438,399,c),
(407,399,l),
(407,353,o),
(354,321,o),
(294,321,cs),
(204,321,o),
(152,392,o),
(152,499,cs),
(152,601,o),
(199,677,o),
(263,677,cs),
(343,677,o),
(398,561,o),
(398,388,cs),
(398,180,o),
(319,26,o),
(212,26,cs),
(183,26,o),
(162,37,o),
(156,52,c),
(101,12,l),
(112,-4,o),
(149,-16,o),
(193,-16,cs),
(360,-16,o),
(480,155,o),
(480,384,cs),
(480,582,o),
(391,714,o),
(262,715,cs)
);
}
);
width = 530;
}
);
unicode = 57;
},
{
glyphname = period;
kernLeft = period;
kernRight = period;
lastChange = "2026-02-07 20:54:22 +0000";
layers = (
{
background = {
shapes = (
{
closed = 1;
nodes = (
(182,11,o),
(207,36,o),
(234,59,c),
(207,82,o),
(182,107,o),
(159,134,c),
(136,107,o),
(111,82,o),
(84,59,c),
(111,36,o),
(136,11,o),
(159,-16,c)
);
},
{
closed = 1;
nodes = (
(262,51,o),
(287,76,o),
(314,99,c),
(287,122,o),
(262,147,o),
(239,174,c),
(216,147,o),
(191,122,o),
(164,99,c),
(191,76,o),
(216,51,o),
(239,24,c)
);
}
);
};
layerId = m01;
shapes = (
{
closed = 1;
nodes = (
(222,11,o),
(287,76,o),
(314,99,c),
(287,122,o),
(202,167,o),
(179,194,c),
(156,167,o),
(91,102,o),
(64,79,c),
(91,56,o),
(176,11,o),
(199,-16,c)
);
}
);
width = 398;
},
{
layerId = m002;
shapes = (
{
closed = 1;
nodes = (
(182,11,o),
(207,36,o),
(234,59,c),
(207,82,o),
(182,107,o),
(159,134,c),
(136,107,o),
(111,82,o),
(84,59,c),
(111,36,o),
(136,11,o),
(159,-16,c)
);
}
);
width = 318;
}
);
unicode = 46;
},
{
glyphname = comma;
kernLeft = period;
kernRight = period;
lastChange = "2026-02-07 20:53:18 +0000";
layers = (
{
background = {
shapes = (
{
closed = 1;
nodes = (
(182,11,o),
(207,36,o),
(234,59,c),
(207,82,o),
(182,107,o),
(159,134,c),
(136,107,o),
(111,82,o),
(84,59,c),
(111,36,o),
(136,11,o),
(159,-16,c)
);
},
{
closed = 1;
nodes = (
(234,59,l),
(198,80,l),
(64,-117,l),
(90,-147,l)
);
},
{
closed = 1;
nodes = (
(262,51,o),
(287,76,o),
(314,99,c),
(287,122,o),
(262,147,o),
(239,174,c),
(216,147,o),
(191,122,o),
(164,99,c),
(191,76,o),
(216,51,o),
(239,24,c)
);
},
{
closed = 1;
nodes = (
(314,99,l),
(278,120,l),
(144,-77,l),
(170,-107,l)
);
}
);
};
layerId = m01;
shapes = (
{
closed = 1;
nodes = (
(212,1,o),
(257,76,o),
(284,99,c),
(257,112,o),
(172,167,o),
(149,194,c),
(136,167,o),
(91,102,o),
(64,79,c),
(91,66,o),
(176,11,o),
(199,-16,c)
);
},
{
closed = 1;
nodes = (
(199,-16,l),
(178,50,l),
(54,-107,l),
(110,-147,l)
);
}
);
width = 388;
},
{
layerId = m002;
shapes = (
{
closed = 1;
nodes = (
(182,11,o),
(207,36,o),
(234,59,c),
(207,82,o),
(182,107,o),
(159,134,c),
(136,107,o),
(111,82,o),
(84,59,c),
(111,36,o),
(136,11,o),
(159,-16,c)
);
},
{
closed = 1;
nodes = (
(234,59,l),
(198,80,l),
(64,-117,l),
(90,-147,l)
);
}
);
width = 318;
}
);
unicode = 44;
},
{
glyphname = colon;
kernLeft = colon;
kernRight = colon;
lastChange = "2026-02-07 20:54:17 +0000";
layers = (
{
background = {
shapes = (
{
closed = 1;
nodes = (
(182,11,o),
(207,36,o),
(234,59,c),
(207,82,o),
(182,107,o),
(159,134,c),
(136,107,o),
(111,82,o),
(84,59,c),
(111,36,o),
(136,11,o),
(159,-16,c)
);
},
{
closed = 1;
nodes = (
(182,311,o),
(207,336,o),
(234,359,c),
(207,382,o),
(182,407,o),
(159,434,c),
(136,407,o),
(111,382,o),
(84,359,c),
(111,336,o),
(136,311,o),
(159,284,c)
);
},
{
closed = 1;
nodes = (
(262,51,o),
(287,76,o),
(314,99,c),
(287,122,o),
(262,147,o),
(239,174,c),
(216,147,o),
(191,122,o),
(164,99,c),
(191,76,o),
(216,51,o),
(239,24,c)
);
},
{
closed = 1;
nodes = (
(262,351,o),
(287,376,o),
(314,399,c),
(287,422,o),
(262,447,o),
(239,474,c),
(216,447,o),
(191,422,o),
(164,399,c),
(191,376,o),
(216,351,o),
(239,324,c)
);
}
);
};
layerId = m01;
shapes = (
{
closed = 1;
nodes = (
(222,11,o),
(287,76,o),
(314,99,c),
(287,122,o),
(202,167,o),
(179,194,c),
(156,167,o),
(91,102,o),
(64,79,c),
(91,56,o),
(176,11,o),
(199,-16,c)
);
},
{
closed = 1;
nodes = (
(222,311,o),
(287,376,o),
(314,399,c),
(287,422,o),
(202,467,o),
(179,494,c),
(156,467,o),
(91,402,o),
(64,379,c),
(91,356,o),
(176,311,o),
(199,284,c)
);
}
);
width = 378;
},
{
layerId = m002;
shapes = (
{
closed = 1;
nodes = (
(182,11,o),
(207,36,o),
(234,59,c),
(207,82,o),
(182,107,o),
(159,134,c),
(136,107,o),
(111,82,o),
(84,59,c),
(111,36,o),
(136,11,o),
(159,-16,c)
);
},
{
closed = 1;
nodes = (
(182,311,o),
(207,336,o),
(234,359,c),
(207,382,o),
(182,407,o),
(159,434,c),
(136,407,o),
(111,382,o),
(84,359,c),
(111,336,o),
(136,311,o),
(159,284,c)
);
}
);
width = 318;
}
);
unicode = 58;
},
{
glyphname = semicolon;
kernLeft = colon;
kernRight = colon;
lastChange = "2026-02-07 20:54:08 +0000";
layers = (
{
background = {
shapes = (
{
closed = 1;
nodes = (
(182,11,o),
(207,36,o),
(234,59,c),
(207,82,o),
(182,107,o),
(159,134,c),
(136,107,o),
(111,82,o),
(84,59,c),
(111,36,o),
(136,11,o),
(159,-16,c)
);
},
{
closed = 1;
nodes = (
(234,59,l),
(198,80,l),
(64,-117,l),
(90,-147,l)
);
},
{
closed = 1;
nodes = (
(182,311,o),
(207,336,o),
(234,359,c),
(207,382,o),
(182,407,o),
(159,434,c),
(136,407,o),
(111,382,o),
(84,359,c),
(111,336,o),
(136,311,o),
(159,284,c)
);
},
{
closed = 1;
nodes = (
(262,51,o),
(287,76,o),
(314,99,c),
(287,122,o),
(262,147,o),
(239,174,c),
(216,147,o),
(191,122,o),
(164,99,c),
(191,76,o),
(216,51,o),
(239,24,c)
);
},
{
closed = 1;
nodes = (
(314,99,l),
(278,120,l),
(144,-77,l),
(170,-107,l)
);
},
{
closed = 1;
nodes = (
(262,351,o),
(287,376,o),
(314,399,c),
(287,422,o),
(262,447,o),
(239,474,c),
(216,447,o),
(191,422,o),
(164,399,c),
(191,376,o),
(216,351,o),
(239,324,c)
);
}
);
};
layerId = m01;
shapes = (
{
closed = 1;
nodes = (
(232,11,o),
(287,76,o),
(314,99,c),
(287,122,o),
(202,167,o),
(179,194,c),
(156,167,o),
(91,102,o),
(64,79,c),
(91,56,o),
(186,11,o),
(209,-16,c)
);
},
{
closed = 1;
nodes = (
(209,-16,l),
(218,80,l),
(64,-117,l),
(110,-167,l)
);
},
{
closed = 1;
nodes = (
(222,311,o),
(287,376,o),
(314,399,c),
(287,422,o),
(202,467,o),
(179,494,c),
(156,467,o),
(91,402,o),
(64,379,c),
(91,356,o),
(176,311,o),
(199,284,c)
);
}
);
width = 378;
},
{
layerId = m002;
shapes = (
{
closed = 1;
nodes = (
(182,11,o),
(207,36,o),
(234,59,c),
(207,82,o),
(182,107,o),
(159,134,c),
(136,107,o),
(111,82,o),
(84,59,c),
(111,36,o),
(136,11,o),
(159,-16,c)
);
},
{
closed = 1;
nodes = (
(234,59,l),
(198,80,l),
(64,-117,l),
(90,-147,l)
);
},
{
closed = 1;
nodes = (
(182,311,o),
(207,336,o),
(234,359,c),
(207,382,o),
(182,407,o),
(159,434,c),
(136,407,o),
(111,382,o),
(84,359,c),
(111,336,o),
(136,311,o),
(159,284,c)
);
}
);
width = 318;
}
);
unicode = 59;
},
{
glyphname = exclam;
kernLeft = exclam;
kernRight = exclam;
lastChange = "2026-02-07 17:24:31 +0000";
layers = (
{
layerId = m01;
shapes = (
{
closed = 1;
nodes = (
(222,11,o),
(287,76,o),
(314,99,c),
(287,122,o),
(222,187,o),
(199,214,c),
(176,187,o),
(111,122,o),
(84,99,c),
(111,76,o),
(176,11,o),
(199,-16,c)
);
},
{
closed = 1;
nodes = (
(247,362,o),
(280,638,o),
(308,738,c),
(294,773,l),
(110,696,l),
(125,632,o),
(159,355,o),
(164,295,c),
(232,326,l)
);
}
);
width = 398;
},
{
background = {
shapes = (
{
closed = 1;
nodes = (
(182,11,o),
(207,36,o),
(234,59,c),
(207,82,o),
(182,107,o),
(159,134,c),
(136,107,o),
(111,82,o),
(84,59,c),
(111,36,o),
(136,11,o),
(159,-16,c)
);
},
{
closed = 1;
nodes = (
(187,242,o),
(200,598,o),
(228,698,c),
(214,733,l),
(110,696,l),
(125,632,o),
(139,275,o),
(144,215,c),
(172,206,l)
);
},
{
closed = 1;
nodes = (
(262,51,o),
(287,76,o),
(314,99,c),
(287,122,o),
(262,147,o),
(239,174,c),
(216,147,o),
(191,122,o),
(164,99,c),
(191,76,o),
(216,51,o),
(239,24,c)
);
},
{
closed = 1;
nodes = (
(267,282,o),
(280,638,o),
(308,738,c),
(294,773,l),
(190,736,l),
(205,672,o),
(219,315,o),
(224,255,c),
(252,246,l)
);
}
);
};
layerId = m002;
shapes = (
{
closed = 1;
nodes = (
(182,11,o),
(207,36,o),
(234,59,c),
(207,82,o),
(182,107,o),
(159,134,c),
(136,107,o),
(111,82,o),
(84,59,c),
(111,36,o),
(136,11,o),
(159,-16,c)
);
},
{
closed = 1;
nodes = (
(187,242,o),
(200,598,o),
(228,698,c),
(214,733,l),
(110,696,l),
(125,632,o),
(139,275,o),
(144,215,c),
(172,206,l)
);
}
);
width = 318;
}
);
unicode = 33;
},
{
glyphname = exclamdown;
kernLeft = exclamdown;
kernRight = exclamdown;
lastChange = "2026-02-07 19:52:15 +0000";
layers = (
{
layerId = m01;
shapes = (
{
closed = 1;
nodes = (
(176,746,o),
(111,681,o),
(84,658,c),
(111,635,o),
(176,570,o),
(199,543,c),
(222,570,o),
(287,635,o),
(314,658,c),
(287,681,o),
(222,746,o),
(199,773,c)
);
},
{
closed = 1;
nodes = (
(151,395,o),
(118,119,o),
(90,19,c),
(104,-16,l),
(288,61,l),
(273,125,o),
(239,402,o),
(234,462,c),
(166,431,l)
);
}
);
width = 398;
},
{
layerId = m002;
shapes = (
{
closed = 1;
nodes = (
(136,706,o),
(111,681,o),
(84,658,c),
(111,635,o),
(136,610,o),
(159,583,c),
(182,610,o),
(207,635,o),
(234,658,c),
(207,681,o),
(182,706,o),
(159,733,c)
);
},
{
closed = 1;
nodes = (
(131,475,o),
(118,119,o),
(90,19,c),
(104,-16,l),
(208,21,l),
(193,85,o),
(179,442,o),
(174,502,c),
(146,511,l)
);
}
);
width = 318;
}
);
unicode = 161;
},
{
glyphname = question;
kernLeft = question;
kernRight = question;
lastChange = "2026-02-07 20:56:23 +0000";
layers = (
{
layerId = m01;
shapes = (
{
closed = 1;
nodes = (
(280,419,o),
(525,417,o),
(525,577,cs),
(525,675,o),
(440,755,o),
(314,755,cs),
(211,755,o),
(99,702,o),
(50,627,c),
(125,567,l),
(141,606,o),
(204,653,o),
(252,653,cs),
(320,653,o),
(371,600,o),
(371,525,cs),
(371,379,o),
(136,427,o),
(195,285,c),
(323,256,l)
);
},
{
closed = 1;
nodes = (
(303,11,o),
(368,76,o),
(395,99,c),
(358,122,o),
(293,167,o),
(260,194,c),
(237,167,o),
(172,102,o),
(145,79,c),
(182,56,o),
(247,11,o),
(280,-16,c)
);
}
);
width = 575;
},
{
layerId = m002;
shapes = (
{
closed = 1;
nodes = (
(220,359,o),
(445,377,o),
(445,523,cs),
(445,635,o),
(359,715,o),
(240,715,cs),
(161,715,o),
(84,679,o),
(50,627,c),
(105,587,l),
(126,637,o),
(176,673,o),
(228,673,cs),
(299,673,o),
(351,605,o),
(351,506,cs),
(351,359,o),
(156,367,o),
(215,225,c),
(263,196,l)
);
},
{
closed = 1;
nodes = (
(263,11,o),
(288,36,o),
(315,59,c),
(288,82,o),
(263,107,o),
(240,134,c),
(217,107,o),
(192,82,o),
(165,59,c),
(192,36,o),
(217,11,o),
(240,-16,c)
);
}
);
width = 508;
}
);
unicode = 63;
},
{
glyphname = periodcentered;
kernLeft = anoteleia;
kernRight = anoteleia;
lastChange = "2026-02-07 20:54:38 +0000";
layers = (
{
layerId = m01;
shapes = (
{
closed = 1;
nodes = (
(325,210,o),
(399,284,o),
(436,315,c),
(389,346,o),
(315,400,o),
(274,437,c),
(243,400,o),
(169,326,o),
(132,295,c),
(179,264,o),
(253,210,o),
(294,173,c)
);
}
);
width = 588;
},
{
layerId = m002;
shapes = (
{
closed = 1;
nodes = (
(285,210,o),
(319,244,o),
(356,275,c),
(319,306,o),
(285,340,o),
(254,377,c),
(223,340,o),
(189,306,o),
(152,275,c),
(189,244,o),
(223,210,o),
(254,173,c)
);
}
);
width = 508;
}
);
unicode = 183;
},
{
glyphname = bullet;
kernLeft = bullet;
kernRight = bullet;
lastChange = "2026-02-07 20:54:42 +0000";
layers = (
{
layerId = m01;
shapes = (
{
closed = 1;
nodes = (
(346,166,o),
(443,263,o),
(504,315,c),
(433,367,o),
(336,444,o),
(274,505,c),
(222,444,o),
(125,347,o),
(64,295,c),
(135,243,o),
(232,166,o),
(294,105,c)
);
}
);
width = 588;
},
{
layerId = m002;
shapes = (
{
closed = 1;
nodes = (
(306,166,o),
(363,223,o),
(424,275,c),
(363,327,o),
(306,384,o),
(254,445,c),
(202,384,o),
(145,327,o),
(84,275,c),
(145,223,o),
(202,166,o),
(254,105,c)
);
}
);
width = 508;
}
);
unicode = 8226;
},
{
glyphname = asterisk;
kernLeft = asterisk;
kernRight = asterisk;
lastChange = "2026-02-07 19:55:42 +0000";
layers = (
{
background = {
shapes = (
{
closed = 1;
nodes = (
(253,511,l),
(287,499,l),
(255,603,o),
(255,612,o),
(287,716,c),
(254,704,l),
(221,716,l),
(253,612,o),
(253,603,o),
(221,499,c),
(255,511,l)
);
},
{
closed = 1;
nodes = (
(170,560,l),
(176,525,l),
(251,604,o),
(258,609,o),
(364,634,c),
(338,656,l),
(332,690,l),
(257,611,o),
(250,606,o),
(144,581,c),
(171,559,l)
);
},
{
closed = 1;
nodes = (
(337,559,l),
(364,581,l),
(258,606,o),
(251,611,o),
(176,690,c),
(170,656,l),
(144,634,l),
(250,609,o),
(257,604,o),
(332,525,c),
(338,560,l)
);
}
);
};
layerId = m01;
shapes = (
{
closed = 1;
nodes = (
(252,389,l),
(322,365,l),
(256,578,o),
(256,597,o),
(322,810,c),
(254,786,l),
(186,810,l),
(252,597,o),
(252,578,o),
(186,365,c),
(256,389,l)
);
},
{
closed = 1;
nodes = (
(82,490,l),
(94,418,l),
(248,581,o),
(262,591,o),
(480,643,c),
(426,686,l),
(414,757,l),
(260,594,o),
(246,584,o),
(28,532,c),
(84,489,l)
);
},
{
closed = 1;
nodes = (
(424,489,l),
(480,532,l),
(262,584,o),
(248,594,o),
(94,757,c),
(82,686,l),
(28,643,l),
(246,591,o),
(260,581,o),
(414,418,c),
(426,490,l)
);
}
);
width = 508;
},
{
background = {
shapes = (
{
closed = 1;
nodes = (
(253,511,l),
(287,499,l),
(255,603,o),
(255,612,o),
(287,716,c),
(254,704,l),
(221,716,l),
(253,612,o),
(253,603,o),
(221,499,c),
(255,511,l)
);
},
{
closed = 1;
nodes = (
(170,560,l),
(176,525,l),
(251,604,o),
(258,609,o),
(364,634,c),
(338,656,l),
(332,690,l),
(257,611,o),
(250,606,o),
(144,581,c),
(171,559,l)
);
},
{
closed = 1;
nodes = (
(337,559,l),
(364,581,l),
(258,606,o),
(251,611,o),
(176,690,c),
(170,656,l),
(144,634,l),
(250,609,o),
(257,604,o),
(332,525,c),
(338,560,l)
);
}
);
};
layerId = m002;
shapes = (
{
closed = 1;
nodes = (
(253,456,l),
(299,440,l),
(255,581,o),
(255,594,o),
(299,735,c),
(254,719,l),
(209,735,l),
(253,594,o),
(253,581,o),
(209,440,c),
(255,456,l)
);
},
{
closed = 1;
nodes = (
(140,523,l),
(148,475,l),
(250,583,o),
(259,590,o),
(404,624,c),
(368,653,l),
(360,700,l),
(258,592,o),
(249,585,o),
(104,551,c),
(141,522,l)
);
},
{
closed = 1;
nodes = (
(367,522,l),
(404,551,l),
(259,585,o),
(250,592,o),
(148,700,c),
(140,653,l),
(104,624,l),
(249,590,o),
(258,583,o),
(360,475,c),
(368,523,l)
);
}
);
width = 508;
}
);
unicode = 42;
},
{
glyphname = numbersign;
kernLeft = numbersign;
kernRight = numbersign;
lastChange = "2026-02-07 19:56:20 +0000";
layers = (
{
layerId = m01;
shapes = (
{
closed = 1;
nodes = (
(64,460,l),
(735,460,l),
(752,540,l),
(81,540,l)
);
},
{
closed = 1;
nodes = (
(18,210,l),
(689,210,l),
(706,290,l),
(35,290,l)
);
},
{
closed = 1;
nodes = (
(88,0,l),
(248,0,l),
(376,700,l),
(216,700,l)
);
},
{
closed = 1;
nodes = (
(368,0,l),
(528,0,l),
(656,700,l),
(496,700,l)
);
}
);
width = 770;
},
{
layerId = m002;
shapes = (
{
closed = 1;
nodes = (
(64,460,l),
(575,460,l),
(582,500,l),
(71,500,l)
);
},
{
closed = 1;
nodes = (
(18,210,l),
(529,210,l),
(536,250,l),
(25,250,l)
);
},
{
closed = 1;
nodes = (
(88,0,l),
(168,0,l),
(296,700,l),
(216,700,l)
);
},
{
closed = 1;
nodes = (
(288,0,l),
(368,0,l),
(496,700,l),
(416,700,l)
);
}
);
width = 600;
}
);
unicode = 35;
},
{
glyphname = slash;
kernLeft = slash;
kernRight = slash;
lastChange = "2026-02-07 19:56:39 +0000";
layers = (
{
layerId = m01;
shapes = (
{
closed = 1;
nodes = (
(30,-200,l),
(136,-200,l),
(396,700,l),
(280,700,l)
);
}
);
width = 426;
},
{
layerId = m002;
shapes = (
{
closed = 1;
nodes = (
(30,-200,l),
(96,-200,l),
(356,700,l),
(280,700,l)
);
}
);
width = 386;
}
);
unicode = 47;
},
{
glyphname = backslash;
kernLeft = backslash;
kernRight = backslash;
lastChange = "2026-02-07 19:56:34 +0000";
layers = (
{
layerId = m01;
shapes = (
{
closed = 1;
nodes = (
(300,-200,l),
(406,-200,l),
(146,700,l),
(30,700,l)
);
}
);
width = 436;
},
{
layerId = m002;
shapes = (
{
closed = 1;
nodes = (
(300,-200,l),
(366,-200,l),
(106,700,l),
(30,700,l)
);
}
);
width = 396;
}
);
unicode = 92;
},
{
glyphname = hyphen;
kernLeft = hyphen;
kernRight = hyphen;
lastChange = "2026-02-07 17:21:09 +0000";
layers = (
{
layerId = m01;
shapes = (
{
closed = 1;
nodes = (
(40,283,l),
(320,283,l),
(320,383,l),
(40,383,l)
);
}
);
width = 360;
},
{
layerId = m002;
shapes = (
{
closed = 1;
nodes = (
(40,303,l),
(320,303,l),
(320,363,l),
(40,363,l)
);
}
);
width = 360;
}
);
unicode = 45;
},
